<svg xmlns="http://www.w3.org/2000/svg" width="398" height="224"><defs><clipPath id="a"><path transform="translate(1244 4543)" fill="#fff" d="M0 0h398v224H0z"/></clipPath></defs><g transform="translate(-1244 -4543)" clip-path="url(#a)"><g data-name="altus"><g data-name="Grupo 24"><path data-name="Trazado 120" d="M1492.895 4587.559v78.646h-18.31v-78.646h-30.248v-17.207h38.207a10.351 10.351 0 0110.351 10.351z" fill="#a45bcf"/><path data-name="Trazado 121" d="M1414.704 4570.352c0 .88-.005 40.62 0 60.006 0 3.189.077 6.263 1.465 9.177 2.536 5.322 7.4 8.047 12.451 9.123 5.322 1.134 23.3.767 31.95.767v16.707c-14.031 0-25.719-.082-30.3-.127-10.205-.769-14.271-2.763-20.571-7.174a28.473 28.473 0 01-12.338-21.024 91.117 91.117 0 01-.521-10.225v-57.23z" fill="#cd518b"/></g><g data-name="Grupo 25" fill="#5d5d5d"><path data-name="Trazado 122" d="M1457.692 4684.147v35.254h-7.928v-35.254h-13.1v-7.452h16.552a4.475 4.475 0 014.476 4.475z" opacity=".23"/><path data-name="Trazado 123" d="M1422.784 4676.694v26.719a8.857 8.857 0 00.875 4.017 7.913 7.913 0 005.476 4.254c2.378.507 11.6.261 14.313.266v7.467c-6.271 0-11.506.02-13.553 0-4.748-.273-6.439-1.494-9.3-3.4a14.885 14.885 0 01-5.391-9.258 29.427 29.427 0 01-.254-4.57c-.024-8.316-.015-25.493-.015-25.493s7.534-.017 7.849-.002z" opacity=".23"/><path data-name="Trazado 124" d="M1521.399 4706.257c0 7.792-5.687 13.138-13.441 13.138h-12.063v-7.166h12.065c3.044 0 5.686-1.934 5.686-5.062 0-4.664-4.193-5.574-7.869-6.882-1.206-.512-2.528-1.08-3.734-1.592a10.7 10.7 0 01-6.146-10.238c0-6.768 5.227-11.6 11.947-11.717h13.556v7h-13.555a4.136 4.136 0 00-4.193 4.209c0 3.981 3.792 4.778 6.835 5.687 6.317 2.097 10.912 5.453 10.912 12.623z" opacity=".23"/><path data-name="Trazado 125" d="M1411.001 4719.37h-8.974l-4.574-11.1h-9.009l.037-7.418h6.078l-4.978-12.966h-.174l-12.272 31.482h-8.8l18.119-42.636h6.31z" opacity=".23"/><path data-name="Trazado 126" d="M1491.768 4676.676v26.667l-.233 3.666a27.992 27.992 0 01-.932 3.75 13.146 13.146 0 01-4.215 5.445c-.585.437-2.629 1.548-2.629 1.548a15.994 15.994 0 01-19.448-4.382c-2.121-2.733-2.637-6.723-2.637-10.028v-26.66h7.853l.017 27.338c0 4.729 3.074 7.725 7.262 7.905a7.28 7.28 0 007.193-7.776c-.008-.247-.034-27.468-.034-27.468z" opacity=".23"/></g><g data-name="Grupo 27"><g data-name="Grupo 26" fill="#80bbc4"><path data-name="Trazado 127" d="M1355.22 4728.752a10.714 10.714 0 012-.175 3.536 3.536 0 012.329.61 1.755 1.755 0 01.7 1.483 2 2 0 01-1.435 1.845v.025a2.172 2.172 0 011.75 2.106 2.255 2.255 0 01-.717 1.682 4.292 4.292 0 01-2.933.786 12.912 12.912 0 01-1.7-.1zm1.1 3.44h.994c1.158 0 1.838-.6 1.838-1.408 0-.985-.755-1.371-1.863-1.371a4.746 4.746 0 00-.969.075zm0 4.025a5.872 5.872 0 00.918.05c1.133 0 2.178-.412 2.178-1.633 0-1.147-.995-1.62-2.19-1.62h-.906z"/><path data-name="Trazado 128" d="M1370.374 4735.395c0 .623.012 1.171.05 1.645h-.982l-.063-.984h-.025a2.3 2.3 0 01-2.015 1.122c-.957 0-2.1-.524-2.1-2.642v-3.527h1.108v3.34c0 1.146.353 1.919 1.36 1.919a1.546 1.546 0 001.561-1.558v-3.7h1.108z"/><path data-name="Trazado 129" d="M1375.334 4735.918a2.927 2.927 0 001.46.436c.806 0 1.183-.4 1.183-.9 0-.523-.315-.81-1.133-1.109-1.1-.387-1.611-.985-1.611-1.708a1.872 1.872 0 012.1-1.77 3.067 3.067 0 011.5.376l-.277.8a2.388 2.388 0 00-1.246-.349c-.655 0-1.02.376-1.02.823 0 .5.365.723 1.158 1.022 1.059.4 1.6.922 1.6 1.819 0 1.059-.831 1.807-2.278 1.807a3.5 3.5 0 01-1.712-.41z"/><path data-name="Trazado 130" d="M1384.977 4729.313a.687.687 0 11-1.373 0 .672.672 0 01.693-.686.654.654 0 01.68.686zm-1.234 7.726v-6.032h1.108v6.032z"/><path data-name="Trazado 131" d="M1389.961 4732.64c0-.623-.013-1.134-.05-1.633h.982l.063 1h.025a2.245 2.245 0 012.016-1.134c.844 0 2.152.5 2.152 2.567v3.6h-1.108v-3.475c0-.972-.365-1.782-1.41-1.782a1.61 1.61 0 00-1.561 1.633v3.627h-1.108z"/><path data-name="Trazado 132" d="M1400.838 4734.222a1.943 1.943 0 002.09 2.094 4.046 4.046 0 001.687-.312l.189.786a4.983 4.983 0 01-2.027.374 2.814 2.814 0 01-3-3.04c0-1.819 1.083-3.253 2.858-3.253a2.564 2.564 0 012.518 2.841 4 4 0 01-.038.512zm3.248-.786a1.566 1.566 0 00-1.537-1.782 1.825 1.825 0 00-1.7 1.782z"/><path data-name="Trazado 133" d="M1409.652 4735.918a2.924 2.924 0 001.46.436c.805 0 1.183-.4 1.183-.9 0-.523-.315-.81-1.133-1.109-1.1-.387-1.611-.985-1.611-1.708a1.872 1.872 0 012.1-1.77 3.069 3.069 0 011.5.376l-.277.8a2.388 2.388 0 00-1.246-.349c-.655 0-1.019.376-1.019.823 0 .5.365.723 1.158 1.022 1.059.4 1.6.922 1.6 1.819 0 1.059-.831 1.807-2.278 1.807a3.5 3.5 0 01-1.712-.41z"/><path data-name="Trazado 134" d="M1417.908 4735.918a2.927 2.927 0 001.46.436c.806 0 1.183-.4 1.183-.9 0-.523-.315-.81-1.133-1.109-1.1-.387-1.611-.985-1.611-1.708a1.872 1.872 0 012.1-1.77 3.067 3.067 0 011.5.376l-.277.8a2.387 2.387 0 00-1.246-.349c-.655 0-1.02.376-1.02.823 0 .5.365.723 1.158 1.022 1.059.4 1.6.922 1.6 1.819 0 1.059-.831 1.807-2.278 1.807a3.5 3.5 0 01-1.712-.41z"/><path data-name="Trazado 135" d="M1437.612 4737.04a28.706 28.706 0 01-.793-.823 3.5 3.5 0 01-2.48.96 2.39 2.39 0 01-2.606-2.357 2.759 2.759 0 011.662-2.455v-.033a2.868 2.868 0 01-.7-1.757 2.049 2.049 0 012.152-2.069 1.758 1.758 0 011.876 1.782c0 .885-.516 1.583-1.863 2.243v.037c.717.823 1.523 1.745 2.064 2.343a6.115 6.115 0 00.82-2.455h1.007a6.353 6.353 0 01-1.221 3.1c.453.474.894.947 1.4 1.483zm-1.334-1.446c-.5-.547-1.448-1.571-2.391-2.642a2.063 2.063 0 00-1.1 1.708 1.666 1.666 0 001.737 1.7 2.38 2.38 0 001.748-.761zm-2.581-5.122a2.342 2.342 0 00.642 1.508c.856-.486 1.41-.934 1.41-1.645a.991.991 0 00-.982-1.084 1.1 1.1 0 00-1.073 1.221z"/><path data-name="Trazado 136" d="M1455.058 4736.765a5.49 5.49 0 01-2.241.4 3.945 3.945 0 01-4.192-4.25 4.2 4.2 0 014.431-4.412 4.592 4.592 0 012.016.374l-.265.885a4.026 4.026 0 00-1.712-.349 3.138 3.138 0 00-3.311 3.465 3.067 3.067 0 003.26 3.377 4.415 4.415 0 001.787-.349z"/><path data-name="Trazado 137" d="M1465.04 4733.974a2.963 2.963 0 01-3.034 3.2 2.88 2.88 0 01-2.921-3.1 2.959 2.959 0 013.022-3.2 2.869 2.869 0 012.933 3.1zm-4.834.063c0 1.321.768 2.318 1.851 2.318 1.057 0 1.85-.985 1.85-2.343 0-1.022-.516-2.318-1.825-2.318s-1.876 1.2-1.876 2.343z"/><path data-name="Trazado 138" d="M1470.067 4731.008l.806 3.066c.176.673.342 1.3.453 1.919h.038c.139-.611.342-1.259.541-1.907l.995-3.078h.932l.944 3.016c.227.723.4 1.358.541 1.969h.038a17.928 17.928 0 01.466-1.957l.869-3.028h1.095l-1.964 6.032h-1.007l-.932-2.879a19.857 19.857 0 01-.541-1.981h-.025a17.7 17.7 0 01-.554 1.994l-.982 2.866h-1.013l-1.838-6.032z"/><path data-name="Trazado 139" d="M1487.548 4733.974a2.963 2.963 0 01-3.034 3.2 2.88 2.88 0 01-2.921-3.1 2.959 2.959 0 013.021-3.2 2.869 2.869 0 012.934 3.1zm-4.834.063c0 1.321.768 2.318 1.85 2.318 1.059 0 1.85-.985 1.85-2.343 0-1.022-.516-2.318-1.825-2.318s-1.876 1.2-1.876 2.343z"/><path data-name="Trazado 140" d="M1492.221 4732.889c0-.711-.013-1.321-.05-1.882h.969l.038 1.184h.051a1.824 1.824 0 011.687-1.321 1.211 1.211 0 01.315.038v1.034a1.682 1.682 0 00-.378-.037 1.547 1.547 0 00-1.485 1.408 3.02 3.02 0 00-.05.512v3.215h-1.1z"/><path data-name="Trazado 141" d="M1500.755 4733.774h.025c.151-.212.365-.473.542-.686l1.787-2.081h1.335l-2.354 2.48 2.681 3.553h-1.347l-2.1-2.891-.567.623v2.268h-1.1v-8.848h1.1z"/><path data-name="Trazado 142" d="M1510.286 4729.313a.686.686 0 11-1.372 0 .671.671 0 01.692-.686.654.654 0 01.68.686zm-1.234 7.726v-6.032h1.108v6.032z"/><path data-name="Trazado 143" d="M1515.27 4732.64c0-.623-.012-1.134-.05-1.633h.982l.063 1h.025a2.244 2.244 0 012.015-1.134c.844 0 2.152.5 2.152 2.567v3.6h-1.108v-3.475c0-.972-.365-1.782-1.41-1.782a1.611 1.611 0 00-1.561 1.633v3.627h-1.108z"/><path data-name="Trazado 144" d="M1530.779 4731.008c-.026.436-.051.922-.051 1.657v3.5a3.449 3.449 0 01-.868 2.754 3.253 3.253 0 01-2.216.723 3.968 3.968 0 01-2.027-.5l.277-.835a3.466 3.466 0 001.788.473c1.133 0 1.964-.586 1.964-2.106v-.673h-.025a2.182 2.182 0 01-1.939 1.009 2.706 2.706 0 01-2.593-2.941 2.906 2.906 0 012.744-3.2 2.03 2.03 0 011.9 1.047h.025l.05-.91zm-1.146 2.38a1.543 1.543 0 00-.063-.5 1.593 1.593 0 00-1.548-1.159c-1.059 0-1.813.885-1.813 2.281 0 1.184.6 2.169 1.8 2.169a1.618 1.618 0 001.537-1.122 1.883 1.883 0 00.089-.586z"/></g></g></g></g></svg>