<svg xmlns="http://www.w3.org/2000/svg" width="398" height="224"><defs><clipPath id="a"><path transform="translate(1244 5165)" fill="#fff" d="M0 0h398v224H0z"/></clipPath></defs><g transform="translate(-1244 -5165)" clip-path="url(#a)"><g data-name="Grupo 25"><path data-name="Trazado 3917" d="M1338.86 5334.999h2.82l.92-4.86a8.85 8.85 0 001.18.08 7.009 7.009 0 004.3-1.24 4.679 4.679 0 001.84-3.8 3.3 3.3 0 00-1.46-2.86 6.338 6.338 0 00-3.58-.9 15.758 15.758 0 00-3.52.36zm4.94-11.18a5.11 5.11 0 011.16-.1c1.12 0 2.06.42 2.06 1.72a2.616 2.616 0 01-2.88 2.46 5.288 5.288 0 01-1.1-.1zm9.94 11.18l.68-3.64c.36-1.92 1.22-3.56 3.06-3.56a3.39 3.39 0 01.46.02l.56-2.8a4.874 4.874 0 00-.54-.02 3.655 3.655 0 00-3.12 2.22h-.06c.06-.68.12-1.34.18-2h-2.5c-.1.84-.22 2.48-.5 3.96l-1.1 5.82zm11.7-10a5.866 5.866 0 00-5.84 6.18 3.869 3.869 0 004.14 4.04c3.4 0 5.84-2.62 5.84-6.2a3.884 3.884 0 00-4.14-4.02zm-.38 2.18c1.16 0 1.54.96 1.54 1.86 0 1.68-.88 3.98-2.46 3.98-1 0-1.56-.76-1.56-1.9-.02-1.52.82-3.94 2.48-3.94zm9.16 7.82l.8-4.4c.36-1.92 1.38-3.3 2.36-3.3.7 0 .92.54.92 1.2a5.9 5.9 0 01-.14 1.12l-1 5.38h2.78l.82-4.44c.38-1.96 1.32-3.26 2.28-3.26.68 0 .98.48.98 1.16a6.319 6.319 0 01-.14 1.2l-.98 5.34h2.78l1.06-5.7a10.468 10.468 0 00.18-1.68c0-1.66-.88-2.62-2.4-2.62a4.031 4.031 0 00-3.36 1.84 2.1 2.1 0 00-2.32-1.84 3.954 3.954 0 00-3.34 1.8h-.04l.18-1.58h-2.48c-.12.86-.28 1.94-.5 3.18l-1.22 6.6zm21.02-10a5.866 5.866 0 00-5.84 6.18 3.869 3.869 0 004.14 4.04c3.4 0 5.84-2.62 5.84-6.2a3.884 3.884 0 00-4.14-4.02zm-.38 2.18c1.16 0 1.54.96 1.54 1.86 0 1.68-.88 3.98-2.46 3.98-1 0-1.56-.76-1.56-1.9-.02-1.52.82-3.94 2.48-3.94zm8.98-4.02l-.4 2.06h-1.26l-.4 2.18h1.24l-.76 3.9a9.474 9.474 0 00-.2 1.82c0 1.22.82 2.1 2.54 2.1a5.658 5.658 0 001.7-.22l.34-2.26a5.361 5.361 0 01-.8.04.721.721 0 01-.82-.82 7.272 7.272 0 01.16-1.24l.66-3.32h2.08l.42-2.18h-2.08l.52-2.74zm11.44 1.84a5.866 5.866 0 00-5.84 6.18 3.869 3.869 0 004.14 4.04c3.4 0 5.84-2.62 5.84-6.2a3.884 3.884 0 00-4.14-4.02zm-.38 2.18c1.16 0 1.54.96 1.54 1.86 0 1.68-.88 3.98-2.46 3.98-1 0-1.56-.76-1.56-1.9-.02-1.52.82-3.94 2.48-3.94zm9.26 7.82l.68-3.64c.36-1.92 1.22-3.56 3.06-3.56a3.39 3.39 0 01.46.02l.56-2.8a4.874 4.874 0 00-.54-.02 3.655 3.655 0 00-3.12 2.22h-.06c.06-.68.12-1.34.18-2h-2.5c-.1.84-.22 2.48-.5 3.96l-1.1 5.82zm14.4 0a23.646 23.646 0 01.38-4.4l1.04-5.12a11.651 11.651 0 00-3.24-.48 6.6 6.6 0 00-7 6.82c0 2.04 1.2 3.4 2.96 3.4a3.69 3.69 0 003.28-2.16h.06c-.06.7-.12 1.36-.14 1.94zm-2.28-5.48c-.44 2.4-1.5 3.38-2.36 3.38-.8 0-1.18-.66-1.18-1.62 0-1.82 1.36-4.1 3.22-4.1a4.46 4.46 0 01.78.08zm18.58-8.72l-.84 4.42a4 4 0 00-1.34-.22 6.28 6.28 0 00-6.16 6.52c0 2.38 1.38 3.7 3.04 3.7a3.755 3.755 0 003.2-1.8h.04l-.14 1.58h2.64a26.2 26.2 0 01.46-3.8l1.98-10.4zm-1.76 9.36c-.38 1.86-1.4 2.74-2.22 2.74-.84 0-1.36-.66-1.36-1.84 0-1.88 1.22-3.88 2.94-3.88a1.929 1.929 0 011.14.34zm13.34 2.2a6.149 6.149 0 01-2.74.62 2.259 2.259 0 01-1.88-.76 1.929 1.929 0 01-.3-1c3.92.1 6.34-.8 6.34-3.3 0-1.82-1.42-2.92-3.4-2.92a5.875 5.875 0 00-5.7 6.08c0 2.54 1.44 4.12 4.24 4.12a8.391 8.391 0 003.64-.76zm-1.28-4.42c0 .88-1.12 1.2-3.36 1.18a2.428 2.428 0 012.3-2.02c.66 0 1.06.34 1.06.84zm8.74 6.3a6.759 6.759 0 003.86.96c3 0 5.48-1.54 5.48-4.54 0-1.6-1.04-2.7-2.68-3.56-1.14-.64-1.96-1.12-1.96-1.9 0-.74.7-1.42 2.04-1.42a5.366 5.366 0 012.52.6l.9-2.4a6.375 6.375 0 00-3.18-.68c-2.94 0-5.32 1.66-5.32 4.38 0 1.76 1.36 2.8 2.8 3.58 1.24.64 1.82 1.14 1.82 1.9 0 1.06-1.02 1.58-2.14 1.58a6.336 6.336 0 01-3.18-.86zm19.58-1.88a6.149 6.149 0 01-2.74.62 2.259 2.259 0 01-1.88-.76 1.929 1.929 0 01-.3-1c3.92.1 6.34-.8 6.34-3.3 0-1.82-1.42-2.92-3.4-2.92a5.875 5.875 0 00-5.7 6.08c0 2.54 1.44 4.12 4.24 4.12a8.391 8.391 0 003.64-.76zm-1.28-4.42c0 .88-1.12 1.2-3.36 1.18a2.428 2.428 0 012.3-2.02c.66 0 1.06.34 1.06.84zm4.3 10.62a7.041 7.041 0 003.18.62 6.077 6.077 0 003.78-1.1 7.007 7.007 0 002.06-4.34l1.48-8.06a9.131 9.131 0 00-3.62-.68 6.3 6.3 0 00-6.56 6.44 3.219 3.219 0 003.14 3.48 3.33 3.33 0 002.8-1.44h.04l-.16.82c-.4 1.96-1.48 2.6-2.92 2.6a6.2 6.2 0 01-2.56-.54zm6.88-8.56c-.3 1.66-1.26 2.7-2.2 2.7-.88 0-1.32-.72-1.32-1.7 0-1.86 1.24-3.8 2.98-3.8a2.861 2.861 0 011.04.18zm13.04-4.78l-.86 4.52c-.38 1.96-1.38 3.14-2.36 3.14-.74 0-.98-.5-.98-1.14a7.8 7.8 0 01.14-1.28l.98-5.24h-2.88l-1.02 5.46a8.827 8.827 0 00-.2 1.8c0 1.86.94 2.74 2.5 2.74a4.251 4.251 0 003.38-1.82h.04l-.18 1.6h2.54c.14-.88.28-1.94.52-3.18l1.26-6.6zm7.34 9.78l.68-3.64c.36-1.92 1.22-3.56 3.06-3.56a3.39 3.39 0 01.46.02l.56-2.8a4.874 4.874 0 00-.54-.02 3.655 3.655 0 00-3.12 2.22h-.06c.06-.68.12-1.34.18-2h-2.5c-.1.84-.22 2.48-.5 3.96l-1.1 5.82zm11.7-10a5.866 5.866 0 00-5.84 6.18 3.869 3.869 0 004.14 4.04c3.4 0 5.84-2.62 5.84-6.2a3.884 3.884 0 00-4.14-4.02zm-.38 2.18c1.16 0 1.54.96 1.54 1.86 0 1.68-.88 3.98-2.46 3.98-1 0-1.56-.76-1.56-1.9-.02-1.52.82-3.94 2.48-3.94zm6.04 7.26a5.448 5.448 0 003 .76c2.58 0 4.48-1.2 4.48-3.44 0-1.36-1.12-2.14-2.18-2.68-.8-.38-1.2-.72-1.2-1.12 0-.52.52-.86 1.28-.86a4.575 4.575 0 011.96.44l.68-2.04a5.375 5.375 0 00-2.52-.5c-2.52 0-4.3 1.34-4.3 3.36a3.077 3.077 0 002.08 2.6c.9.44 1.22.78 1.22 1.26s-.42.88-1.24.88a6.378 6.378 0 01-2.56-.68z" fill="#878787" opacity=".73"/></g><g data-name="Grupo 26"><path data-name="Trazado 3799" d="M1468.823 5297.374a3.844 3.844 0 010 7.659h-38.293a3.923 3.923 0 01-3.939-3.939 4.609 4.609 0 011.094-2.845l32.826-36.327a15.32 15.32 0 10-26.261-10.723 3.844 3.844 0 01-7.659 0 22.975 22.975 0 0122.978-22.978 22.975 22.975 0 0122.978 22.978 23.188 23.188 0 01-6.784 16.413l-26.48 29.762z" fill="#3cdabf"/><path data-name="Trazado 3800" d="M1491.145 5267.83a27.616 27.616 0 01-8.535-4.814 15.6 15.6 0 010-22.54 33.982 33.982 0 0124.948-9.848 37.226 37.226 0 0128.666 13.349 5.229 5.229 0 011.094 3.064 5.325 5.325 0 01-5.252 5.252 4.97 4.97 0 01-3.5-1.313l-1.97-1.97a25.6 25.6 0 00-18.82-7.659 22.941 22.941 0 00-17.507 7 6.869 6.869 0 00-1.532 4.6 4.4 4.4 0 003.283 4.158l32.604 10.721a23.8 23.8 0 018.535 4.814 15.6 15.6 0 010 22.54 33.982 33.982 0 01-24.948 9.848 37.56 37.56 0 01-28.665-13.35 5.229 5.229 0 01-1.094-3.064 5.325 5.325 0 015.252-5.252 4.97 4.97 0 013.5 1.313l1.97 1.97a25.6 25.6 0 0018.82 7.659 22.941 22.941 0 0017.507-7 6.869 6.869 0 001.532-4.6 4.4 4.4 0 00-3.283-4.158z" fill="#5268c1"/><path data-name="Trazado 3801" d="M1376.473 5238.068a6.894 6.894 0 107-6.784c-3.72-.219-6.784 2.845-7 6.784" fill="#3cdabf"/><path data-name="Trazado 3802" d="M1400.108 5244.633a6.894 6.894 0 1013.787.219 6.894 6.894 0 10-13.787-.219" fill="#3cdabf"/><path data-name="Trazado 3803" d="M1411.925 5239.818a37.045 37.045 0 00-29.105-8.534l1.532 13.79a24.254 24.254 0 0118.382 5.033z" fill="#3cdabf"/><path data-name="Trazado 3804" d="M1424.834 5266.517l-.219-3.283a27.151 27.151 0 00-1.97-8.316 7.211 7.211 0 00-7.222-4.377 6.82 6.82 0 00-5.909 7.878 5.567 5.567 0 00.438 1.532 21.92 21.92 0 011.532 8.535 23.308 23.308 0 01-6.127 15.319 22.837 22.837 0 01-36.106-2.845 21.8 21.8 0 01-4.158-13.13c0-2.845-3.939-5.471-2.845-8.1 1.532-3.72 4.158-7.878.438-9.191a7.067 7.067 0 00-8.972 4.158v.219a38.281 38.281 0 00-1.97 14.881 35.194 35.194 0 009.629 23.2 37.74 37.74 0 0014.881 9.848 40.757 40.757 0 0016.194 1.97c13.568-1.313 23.2-8.535 29.543-20.352a29.4 29.4 0 003.5-12.255l.219-3.064v-2.626z" fill="#5268c1"/><path data-name="Trazado 3805" d="M1357.653 5198.239a6.818 6.818 0 016.784 6.784v64.12a6.818 6.818 0 01-6.784 6.784 6.818 6.818 0 01-6.783-6.784v-64.12a6.818 6.818 0 016.783-6.784z" fill="#5268c1"/></g></g></svg>