<svg xmlns="http://www.w3.org/2000/svg" width="398" height="224"><defs><clipPath id="a"><path transform="translate(278 4543)" fill="#fff" d="M0 0h398v224H0z"/></clipPath></defs><g transform="translate(-278 -4543)" clip-path="url(#a)"><g data-name="bajatuseguro"><g data-name="Grupo 34"><path data-name="Trazado 197" d="M458.156 4612.093l.157-1.742a14.712 14.712 0 011.091-4.392 3.6 3.6 0 013.789-2.238 3.642 3.642 0 012.948 4.907 12.366 12.366 0 00-.766 4.416 11.96 11.96 0 003.21 8.027 11.372 11.372 0 006.943 3.77 12.179 12.179 0 0013.355-16.309 3.635 3.635 0 116.839-2.459 21.1 21.1 0 011.137 7.743 18.3 18.3 0 01-5.063 12.112 19.517 19.517 0 01-7.722 5.173 19.259 19.259 0 01-8.425.991c-7.1-.7-12.122-4.483-15.485-10.623a16.418 16.418 0 01-1.853-6.418q-.075-.8-.153-1.6z" fill="#5268c2"/><g data-name="Grupo 32" fill="#5268c2"><path data-name="Trazado 198" d="M469.709 4651.014c-.549-.151-10.814-4.162-11.345-4.4a5.315 5.315 0 01-3.038-4.583 5.111 5.111 0 011.834-4.015c1.405-1.2 3.777-2.687 8.584-6.023l3.232 3.629c-2.253 2.18-3.582 2.868-3.582 4.483 0 2.232 1.154 3.1 5.926 3.572"/><g data-name="Grupo 31"><path data-name="Trazado 199" d="M474.7 4647.44a3.782 3.782 0 11-3.781-3.78 3.781 3.781 0 013.781 3.78"/><path data-name="Trazado 200" d="M465.568 4641.953a5.122 5.122 0 11-5.122-5.122 5.122 5.122 0 015.122 5.122"/><path data-name="Trazado 201" d="M469.685 4633.911a2.441 2.441 0 11-2.441-2.441 2.441 2.441 0 012.441 2.441"/></g></g><g data-name="Grupo 33" fill="#3cdbc0"><path data-name="Trazado 202" d="M483.399 4597.211a3.624 3.624 0 11-3.709-3.554 3.624 3.624 0 013.709 3.554"/><path data-name="Trazado 203" d="M471.104 4600.694a3.639 3.639 0 11-3.725-3.566 3.639 3.639 0 013.725 3.566"/><path data-name="Trazado 204" d="M464.982 4598.13a19.374 19.374 0 0115.27-4.443l-.852 7.221a12.427 12.427 0 00-9.568 2.645z"/></g><path data-name="Trazado 205" d="M498.678 4654.998a5.809 5.809 0 11-5.809-5.808 5.809 5.809 0 015.809 5.808" fill="#3cdbc0"/><path data-name="Trazado 206" d="M485.231 4642.39a3.686 3.686 0 11-3.686-3.686 3.686 3.686 0 013.686 3.686" fill="#3cdbc0"/></g><g data-name="Grupo 38"><path data-name="Trazado 207" d="M602.533 4688.73l.106-1.187a10 10 0 01.745-2.991 2.452 2.452 0 012.582-1.525 2.481 2.481 0 012.008 3.343 8.436 8.436 0 00-.522 3.008 8.149 8.149 0 002.187 5.469 7.748 7.748 0 004.73 2.568 8.3 8.3 0 009.1-11.11 2.476 2.476 0 114.659-1.675 14.371 14.371 0 01.775 5.275 12.465 12.465 0 01-3.449 8.252 13.294 13.294 0 01-5.261 3.524 13.121 13.121 0 01-5.739.675c-4.839-.476-8.258-3.054-10.549-7.237a11.181 11.181 0 01-1.263-4.372l-.1-1.089z" fill="#5268c2"/><path data-name="Trazado 208" d="M520.321 4689.734v-1.082c.022-.266.047-.531.064-.8a10.745 10.745 0 01.742-3.233 2.47 2.47 0 114.637 1.706 8.24 8.24 0 00-.4 4.416 8.058 8.058 0 002.347 4.394 7.9 7.9 0 007.333 2.212 8.1 8.1 0 006.307-5.549 7.616 7.616 0 00.375-3.33 7.848 7.848 0 00-.518-2.18 2.471 2.471 0 011.709-3.294c.183-.045.373-.065.56-.1h.093c.055.011.109.025.165.031a2.347 2.347 0 011.846 1.116 4.472 4.472 0 01.406.96 12.8 12.8 0 01.663 3.783c.03 1.112.028 2.225.033 3.338q.013 3.122.018 6.244l.014 3.848c0 .773 0 1.546.007 2.318a9.912 9.912 0 01-.27 2.386 10.609 10.609 0 01-3.167 5.341 14.329 14.329 0 01-9.247 3.856 13.064 13.064 0 01-3.843-.371 14.143 14.143 0 01-9.072-6.7 3.212 3.212 0 01-.6-1.518 2.51 2.51 0 01.5-1.752 2.441 2.441 0 012.1-.929 1.771 1.771 0 011.34.564q.529.594 1 1.235a14.014 14.014 0 001.707 2.011 8.891 8.891 0 005.517 2.447 9.373 9.373 0 004.128-.533 7.62 7.62 0 004.166-3.427 5.282 5.282 0 00.734-2.38c.016-.489.022-.978.024-1.467 0-1.2 0-2.392.005-3.586v-.2c-.086.064-.139.1-.189.141a12.529 12.529 0 01-6.951 2.712 14.356 14.356 0 01-3.219-.112 12.235 12.235 0 01-3.983-1.294 13.757 13.757 0 01-4.819-4.3 12.229 12.229 0 01-2.207-6.186 13.85 13.85 0 00-.055-.736z" fill="#5268c2"/><path data-name="Trazado 209" d="M583.757 4678.529v.473a13.456 13.456 0 013.843-2.168 12.855 12.855 0 014.429-.755 18.622 18.622 0 012.225.142 9.622 9.622 0 012.191.505 4.666 4.666 0 011.662 1 2.189 2.189 0 01.658 1.647 2.331 2.331 0 01-.2.967 2.719 2.719 0 01-.529.789 2.294 2.294 0 01-.778.531 2.471 2.471 0 01-.965.189 2.664 2.664 0 01-1.037-.258 8.635 8.635 0 00-3.227-.588 8.066 8.066 0 00-3.228.647 8.239 8.239 0 00-4.392 4.392 8.074 8.074 0 00-.649 3.228v10.743a2.462 2.462 0 11-4.924 0v-21.484a2.363 2.363 0 01.718-1.73 2.392 2.392 0 011.756-.72 2.454 2.454 0 012.449 2.45" fill="#5268c2"/><path data-name="Trazado 210" d="M570.172 4700.038a10.96 10.96 0 01-3.44 1.849 12.9 12.9 0 01-3.935.577 11.744 11.744 0 01-4.758-.978 12.523 12.523 0 01-6.561-6.561 11.76 11.76 0 01-.977-4.758v-11.638a2.361 2.361 0 01.719-1.732 2.387 2.387 0 011.754-.718 2.452 2.452 0 012.45 2.45v11.638a7.2 7.2 0 00.577 2.874 7.364 7.364 0 009.647 3.922 7.49 7.49 0 003.946-3.934 7.117 7.117 0 00.577-2.863v-11.637a2.363 2.363 0 01.718-1.732 2.387 2.387 0 011.755-.718 2.452 2.452 0 012.45 2.45v11.815a12.829 12.829 0 01-4.924 9.694" fill="#5268c2"/><g data-name="Grupo 35"><path data-name="Trazado 211" d="M635.384 4679.439a3.207 3.207 0 11-3.2-3.121 3.137 3.137 0 013.2 3.121zm-5.613 0a2.418 2.418 0 002.436 2.493 2.516 2.516 0 10-2.436-2.493zm1.922 1.636h-.723v-3.121a6.347 6.347 0 011.2-.095 1.948 1.948 0 011.085.228.867.867 0 01.3.685.8.8 0 01-.647.723v.039a.921.921 0 01.571.761 2.4 2.4 0 00.229.78h-.78a2.656 2.656 0 01-.247-.762c-.057-.342-.247-.494-.647-.494h-.343zm.02-1.77h.342c.4 0 .723-.133.723-.456 0-.285-.209-.475-.667-.475a1.747 1.747 0 00-.4.039z" fill="#5268c2"/></g><path data-name="Trazado 212" d="M385.429 4669.674a1.95 1.95 0 11-1.2-1.806 1.958 1.958 0 011.2 1.806" fill="#3cdbc0"/><path data-name="Trazado 213" d="M321.536 4680.82l.941-.92a12.716 12.716 0 019.329-3.863 13.193 13.193 0 11-13.193 13.19v-23.037a1.461 1.461 0 112.921 0zm10.272 18.681a10.271 10.271 0 10-9.474-6.34 10.271 10.271 0 009.474 6.343" fill="#3cdbc0"/><path data-name="Trazado 214" d="M372.211 4697.641q-4.759 4.784-10.249 4.782a13.193 13.193 0 119.329-22.522 12.72 12.72 0 013.864 9.33v11.731a1.475 1.475 0 01-2.509 1.036 1.392 1.392 0 01-.437-1.036zm-10.25-18.679a10.255 10.255 0 107.255 3.015 9.892 9.892 0 00-7.255-3.015" fill="#3cdbc0"/><path data-name="Trazado 215" d="M382.015 4677.497a1.474 1.474 0 012.509-1.036 1.4 1.4 0 01.435 1.036v24.995a11.263 11.263 0 01-11.244 11.241 1.445 1.445 0 01-1.049-.427 1.387 1.387 0 01-.435-1.036 1.487 1.487 0 011.484-1.483 8.325 8.325 0 008.293-8.294z" fill="#3cdbc0"/><path data-name="Trazado 216" d="M412.196 4697.765q-4.758 4.784-10.247 4.784a13.194 13.194 0 1113.193-13.193v11.73a1.474 1.474 0 01-2.509 1.036 1.392 1.392 0 01-.437-1.036zm-10.248-18.679a10.255 10.255 0 107.255 3.015 9.892 9.892 0 00-7.255-3.015" fill="#3cdbc0"/><path data-name="Trazado 217" d="M432.196 4699.471a1.461 1.461 0 110 2.922q-9.283 0-9.282-9.281v-14.182h-2.426a1.461 1.461 0 110-2.922h2.426v-9.87a1.474 1.474 0 012.509-1.039 1.4 1.4 0 01.436 1.039v9.87h4.405a1.461 1.461 0 110 2.922h-4.4v14.182q0 6.361 6.338 6.359" fill="#3cdbc0"/><path data-name="Trazado 218" d="M461.866 4691.414c-.036 3.626-2.928 6.941-2.928 6.941q-4.336 4.192-9.283 4.193a12.148 12.148 0 01-12.2-12.227v-12.7a1.461 1.461 0 112.921 0v12.7a8.959 8.959 0 002.709 6.573 9.112 9.112 0 006.573 2.731 9.327 9.327 0 009.283-9.3v-12.7a1.474 1.474 0 012.509-1.036 1.4 1.4 0 01.436 1.036z" fill="#3cdbc0"/><path data-name="Trazado 219" d="M470.001 4688.885h.025a15.079 15.079 0 01-1.815-.789 4.458 4.458 0 01-1.131-.813 5.279 5.279 0 01-1.579-3.793 5.422 5.422 0 011.65-3.889 11.888 11.888 0 018.857-3.439 12.485 12.485 0 015.49 1.236 15.238 15.238 0 014.642 3.5 1.289 1.289 0 01.258.824 1.487 1.487 0 01-1.483 1.483 1.156 1.156 0 01-.92-.377l-.73-.729a9.891 9.891 0 00-7.257-3.015 9.01 9.01 0 00-6.854 2.731 3.006 3.006 0 00-.706 2.026 2.289 2.289 0 00.424 1.227 2.235 2.235 0 001.107.775l12.039 3.982h-.025a14.934 14.934 0 011.815.789 4.039 4.039 0 011.107.812 5.184 5.184 0 011.6 3.793 5.336 5.336 0 01-1.673 3.889 11.816 11.816 0 01-8.835 3.439 13.131 13.131 0 01-10.129-4.713 1.389 1.389 0 01-.259-.847 1.451 1.451 0 01.423-1.048 1.393 1.393 0 011.036-.435 1.274 1.274 0 01.941.377l.73.728a9.884 9.884 0 007.252 3.021 8.945 8.945 0 006.81-2.708 2.952 2.952 0 00.73-2.025 2.179 2.179 0 00-1.529-2.025z" fill="#3cdbc0"/><path data-name="Trazado 220" d="M510.959 4696.872a1.39 1.39 0 011.036.435 1.451 1.451 0 01.425 1.048 1.421 1.421 0 01-.377 1.013 13.2 13.2 0 114.594-10.012 1.447 1.447 0 01-1.461 1.459h-21.954a11.013 11.013 0 002.967 5.8 10.211 10.211 0 0013.853.59 1.414 1.414 0 01.919-.328m2.686-8.976a10.778 10.778 0 00-2.946-5.8 10.238 10.238 0 00-14.512 0 11.019 11.019 0 00-2.967 5.8z" fill="#3cdbc0"/><path data-name="Trazado 221" d="M552.67 4715.355a1.111 1.111 0 11-.325-.791 1.075 1.075 0 01.325.791" fill="#3cdbc0"/><path data-name="Trazado 222" d="M561.724 4713.922a.745.745 0 01.745.745.772.772 0 01-.233.549 5.207 5.207 0 110-7.9.752.752 0 01-.485 1.322.729.729 0 01-.474-.167 3.718 3.718 0 10-.009 5.608.73.73 0 01.456-.149" fill="#3cdbc0"/><path data-name="Trazado 223" d="M574.462 4711.265a5.205 5.205 0 11-1.525-3.682 5.014 5.014 0 011.525 3.682m-5.206-3.72a3.715 3.715 0 102.631 1.088 3.585 3.585 0 00-2.631-1.088" fill="#3cdbc0"/><path data-name="Trazado 224" d="M577.437 4715.726a.745.745 0 01-1.488 0v-8.926a.745.745 0 011.488 0v.2a3.9 3.9 0 012.6-.938 3.939 3.939 0 012.891 1.2 4.55 4.55 0 01.455.53 4.642 4.642 0 01.456-.53 4.091 4.091 0 016.98 2.892v5.578a.745.745 0 01-1.487 0v-5.58a2.603 2.603 0 00-5.206 0v5.578a.745.745 0 01-1.488 0v-5.578a2.603 2.603 0 10-5.206 0z" fill="#3cdbc0"/><g data-name="Grupo 36" fill="#3cdbc0"><path data-name="Trazado 225" d="M619.729 4678.591a2.471 2.471 0 11-2.526-2.421 2.471 2.471 0 012.526 2.421"/><path data-name="Trazado 226" d="M611.353 4680.969a2.479 2.479 0 11-2.537-2.429 2.479 2.479 0 012.537 2.429"/><path data-name="Trazado 227" d="M607.182 4679.218a13.2 13.2 0 0110.4-3.027l-.58 4.92a8.461 8.461 0 00-6.52 1.8z"/></g><g data-name="Grupo 37" fill="#3cdbc0"><path data-name="Trazado 228" d="M537.528 4678.542a2.471 2.471 0 11-2.529-2.426 2.471 2.471 0 012.526 2.421"/><path data-name="Trazado 229" d="M529.151 4680.915a2.479 2.479 0 11-2.537-2.431 2.479 2.479 0 012.537 2.431"/><path data-name="Trazado 230" d="M524.979 4679.164a13.2 13.2 0 0110.4-3.027l-.58 4.92a8.465 8.465 0 00-6.52 1.8z"/></g></g></g></g></svg>