<svg xmlns="http://www.w3.org/2000/svg" width="398" height="224"><defs><clipPath id="a"><path transform="translate(278 4854)" fill="#fff" d="M0 0h398v224H0z"/></clipPath></defs><g transform="translate(-278 -4854)" clip-path="url(#a)"><g data-name="beriatech"><path data-name="Trazado 76" d="M312.458 5002.03a6.5 6.5 0 01-1.971-4.776v-33.718l3.354-6.52v16.618h23.221a6.6 6.6 0 012.7.565 6.758 6.758 0 012.224 1.586l2.77 2.773q.583.548.875.84a6.519 6.519 0 011.968 4.781v13.065a6.726 6.726 0 01-6.744 6.753h-23.624a6.5 6.5 0 01-4.773-1.967zm1.385-4.781a3.28 3.28 0 00.985 2.41 3.232 3.232 0 002.373.985h23.649a3.364 3.364 0 003.395-3.4v-13.07a3.445 3.445 0 00-.985-2.409l-3.686-3.653a3.491 3.491 0 00-2.519-1.131h-23.21z" fill="#f48a0b"/><path data-name="Trazado 77" d="M388.136 5004.002h-30.367a6.722 6.722 0 01-6.743-6.746v-16.878a6.719 6.719 0 016.743-6.743h23.621a6.719 6.719 0 016.745 6.743 6.285 6.285 0 01-1.859 4.63q-2.624 2.625-9.15 9.186l-4.957 4.958-1.458 1.458h17.425zm-22.2-3.391l17.936-17.935a3.38 3.38 0 00-2.479-5.65h-23.624a3.36 3.36 0 00-3.353 3.353v16.878a3.36 3.36 0 003.353 3.355z" fill="#f48a0b"/><path data-name="Trazado 78" d="M426.992 4973.632h1.679v3.39h-30.362a3.279 3.279 0 00-2.407.984 3.226 3.226 0 00-.986 2.369v23.623h-3.354v-23.622a6.722 6.722 0 016.751-6.743z" fill="#f48a0b"/><path data-name="Trazado 79" d="M432.096 4963.539h3.354v5.063h-3.354zm0 10.134h3.354v30.329h-3.354z" fill="#f48a0b"/><path data-name="Trazado 80" d="M438.841 4973.632h30.336a6.716 6.716 0 016.736 6.743v16.878a6.722 6.722 0 01-6.743 6.746h-23.585a6.721 6.721 0 01-6.743-6.746 6.937 6.937 0 01.455-2.551 6.023 6.023 0 011.367-2.078q3.827-3.861 9.149-9.186l4.957-4.958q1.458-1.456 1.5-1.458h-17.424zm22.2 3.39l-17.938 17.937a3.269 3.269 0 00-.913 2.295 3.181 3.181 0 001 2.387 3.316 3.316 0 002.387.967h23.586a3.273 3.273 0 002.406-.984 3.231 3.231 0 00.985-2.37v-16.878a3.182 3.182 0 00-1-2.387 3.328 3.328 0 00-2.387-.966z" fill="#f48a0b"/><g data-name="Grupo 18" fill="#2c53b5"><path data-name="Trazado 81" d="M521.758 4973.634v3.39h-33.719v20.2a3.36 3.36 0 003.393 3.384h30.326v3.395h-30.321a6.729 6.729 0 01-6.752-6.746v-33.721h3.355v10.1z"/><path data-name="Trazado 82" d="M562.372 5004.002h-30.366a6.723 6.723 0 01-6.744-6.746v-16.878a6.72 6.72 0 016.744-6.743h23.622a6.723 6.723 0 016.744 6.743 6.285 6.285 0 01-1.859 4.63q-2.623 2.625-9.149 9.186-4.048 4.046-4.957 4.958l-1.458 1.458h17.424zm-22.2-3.391l17.934-17.935a3.381 3.381 0 00-2.479-5.65h-23.622a3.361 3.361 0 00-3.353 3.353v16.878a3.361 3.361 0 003.354 3.355z"/><path data-name="Trazado 83" d="M601.191 4973.633h1.677v3.39h-30.334a3.362 3.362 0 00-3.354 3.353v16.878a3.362 3.362 0 003.355 3.355h30.33V5004h-30.331a6.722 6.722 0 01-6.745-6.746v-16.877a6.72 6.72 0 016.745-6.743z"/><path data-name="Trazado 84" d="M641.067 4978.964l.439.438a6.531 6.531 0 012.006 4.781l-.036 19.819h-3.358v-19.822a3.284 3.284 0 00-.985-2.41l-3.687-3.649a3.49 3.49 0 00-2.517-1.131h-23.211v27.012h-3.355v-40.462h3.355v10.1h23.208a6.593 6.593 0 012.7.565 7.157 7.157 0 012.263 1.586q1.793 1.822 3.178 3.173z"/></g><path data-name="Trazado 85" d="M322.273 4932.526a4.528 4.528 0 11-4.528-4.529 4.528 4.528 0 014.528 4.529z" fill="#2c53b5"/><path data-name="Trazado 86" d="M333.915 4936.944a4.529 4.529 0 11-4.528-4.528 4.529 4.529 0 014.528 4.528z" fill="#2c53b5"/><path data-name="Trazado 87" d="M343.428 4945.312a4.529 4.529 0 11-4.529-4.529 4.529 4.529 0 014.529 4.529z" fill="#2c53b5"/><path data-name="Trazado 88" d="M347.956 4956.824a4.529 4.529 0 11-4.528-4.528 4.529 4.529 0 014.528 4.528z" fill="#2c53b5"/><path data-name="Trazado 89" d="M320.97 4943.27a2.744 2.744 0 11-2.744-2.744 2.744 2.744 0 012.744 2.744z" fill="#2c53b5"/><path data-name="Trazado 90" d="M327.599 4945.519a2.743 2.743 0 11-.8-1.941 2.744 2.744 0 01.8 1.941z" fill="#2c53b5"/><path data-name="Trazado 91" d="M333.363 4950.59a2.745 2.745 0 11-2.743-2.744 2.745 2.745 0 012.743 2.744z" fill="#2c53b5"/><path data-name="Trazado 92" d="M336.107 4957.564a2.745 2.745 0 11-2.743-2.745 2.744 2.744 0 012.743 2.745z" fill="#2c53b5"/><path data-name="Trazado 93" d="M318.813 4949.973a1.665 1.665 0 11-1.664-1.665 1.665 1.665 0 011.664 1.665z" fill="#2c53b5"/><path data-name="Trazado 94" d="M322.831 4951.335a1.663 1.663 0 11-.487-1.177 1.665 1.665 0 01.487 1.177z" fill="#2c53b5"/><path data-name="Trazado 95" d="M326.331 4954.407a1.665 1.665 0 11-1.664-1.664 1.665 1.665 0 011.664 1.664z" fill="#2c53b5"/><path data-name="Trazado 96" d="M327.994 4958.646a1.665 1.665 0 11-1.664-1.664 1.665 1.665 0 011.664 1.664z" fill="#2c53b5"/></g></g></svg>