<svg xmlns="http://www.w3.org/2000/svg" width="59" height="59"><defs><clipPath id="a"><path transform="translate(179 3524)" fill="#fff" d="M0 0h59v59H0z"/></clipPath></defs><g clip-path="url(#a)" transform="translate(-179 -3524)"><path data-name="Trazado 3822" d="M208.5 3571.765v10.371c6.905 0 12.5-2.322 12.5-5.186s-5.595-5.185-12.5-5.185z" fill="#918fc3"/><path data-name="Trazado 3823" d="M217.546 3576.95c0-2.864-4.05-5.186-9.046-5.186-6.905 0-12.5 2.322-12.5 5.186s5.6 5.186 12.5 5.186c5 0 9.046-2.322 9.046-5.186z" fill="#b5b4d7"/><path data-name="Trazado 3824" d="M208.5 3524.864v53.815a1.725 1.725 0 001.4-.721l15.08-20.993a20.282 20.282 0 00-16.48-32.101z" fill="#323266"/><path data-name="Trazado 3825" d="M209.664 3577.957l12.509-20.993a23.108 23.108 0 003.151-11.819c0-11.201-7.532-20.281-16.824-20.281a20.282 20.282 0 00-16.482 32.1l15.082 20.993a1.725 1.725 0 001.4.721 1.375 1.375 0 001.164-.721z" fill="#6c69af"/><path data-name="Trazado 3826" d="M208.5 3532.643v25.005a12.503 12.503 0 000-25.006z" fill="#baf7ff"/><path data-name="Trazado 3827" d="M217.546 3545.146c0-6.905-4.05-12.5-9.046-12.5a12.503 12.503 0 000 25.006c5-.004 9.046-5.601 9.046-12.506z" fill="#fff"/><path data-name="Trazado 3828" d="M208.5 3531.778a13.367 13.367 0 1013.367 13.368 13.382 13.382 0 00-13.367-13.368zm0 25.006a11.639 11.639 0 1111.639-11.638 11.652 11.652 0 01-11.639 11.638z"/><path data-name="Trazado 3829" d="M229.646 3545.146a21.146 21.146 0 10-38.33 12.323l15.084 20.993a2.589 2.589 0 004.209 0l3.742-5.209c3.437.792 5.792 2.279 5.792 3.7 0 2.044-4.78 4.321-11.639 4.321s-11.643-2.28-11.643-4.324c0-.973 1.095-2 3-2.815a.864.864 0 10-.68-1.589c-2.613 1.117-4.052 2.682-4.052 4.4 0 1.757 1.49 3.343 4.2 4.465A24.7 24.7 0 00208.5 3583a24.7 24.7 0 009.172-1.585c2.705-1.122 4.2-2.708 4.2-4.465 0-2.244-2.378-4.148-6.433-5.212l10.25-14.27a21 21 0 003.961-12.323zm-20.446 32.307a.861.861 0 01-1.4 0l-15.081-20.993a19.417 19.417 0 1131.561 0z"/></g></svg>