<svg xmlns="http://www.w3.org/2000/svg" width="90" height="90"><defs><clipPath id="a"><path fill="#fff" stroke="#707070" transform="translate(501 1875)" d="M0 0h90v90H0z"/></clipPath></defs><g transform="translate(-501 -1875)" clip-path="url(#a)"><g data-name="Grupo 95"><path data-name="Trazado 4026" d="M573.615 1905.406h-5.726v21.678l5.726.349a8.207 8.207 0 008.207-8.207v-5.613a8.207 8.207 0 00-8.207-8.207z" fill="#efe2dd"/><g data-name="Grupo 94"><g data-name="Grupo 89"><g data-name="Grupo 88"><path data-name="Trazado 4027" d="M569.109 1889.851V1944l-2.809-2.781s-14.625-12.919-24.387-13.271l-14.085-.561-12.356.282V1905.8h12.355l14.085-.561c9.762-.347 24.387-13.27 24.387-13.27z" fill="#f9f3f1"/></g></g><g data-name="Grupo 90"><path data-name="Trazado 4028" d="M569.109 1889.851V1944l-2.809-2.781a88.994 88.994 0 00-7.113-5.53V1897.5a89.043 89.043 0 007.113-5.529z" fill="#f3eae6"/></g><path data-name="Trazado 4029" d="M510.616 1922.8h-2.105a6.2 6.2 0 110-12.393h2.105z" fill="#cbc4cc"/><g data-name="Grupo 91"><path data-name="Trazado 4030" d="M526.179 1919.749v29.788a2.123 2.123 0 01-2.124 2.122h-7.61a2.122 2.122 0 01-2.124-2.122v-29.788z" fill="#f9f3f1"/></g><g data-name="Grupo 92"><path data-name="Trazado 4031" d="M526.179 1919.749v26.907h-4.94a.99.99 0 01-.99-.99v-25.917z" fill="#efe2dd"/></g><path data-name="Trazado 4032" d="M567.842 1935.66s-14.625-12.924-24.387-13.271l-2.909-.116a10.23 10.23 0 01-9.823-10.222v-6.364l-2.895.115H518.4v21.798l9.426-.215 2.895.115 11.19.445c9.764.355 24.389 13.274 24.389 13.274l2.809 2.781v-7.086z" fill="#f3eae6"/><path data-name="Trazado 4033" d="M559.187 1929.073v6.615a89 89 0 017.113 5.53l2.809 2.782v-7.086l-1.267-1.254a90.77 90.77 0 00-8.655-6.587z" fill="#efe2dd"/><g data-name="Grupo 93"><path data-name="Trazado 4034" d="M521.906 1902.834h-5.87a7 7 0 00-7 7v13.525a7 7 0 007 7h5.87l3.082-2.687v-20.314z" fill="#6a67ac"/></g><path data-name="Trazado 4035" d="M522.236 1925.575a7 7 0 01-7-7v-13.525a6.989 6.989 0 01.358-2.2 7 7 0 00-6.558 6.983v13.526a7 7 0 007 7h5.87l3.082-2.687v-2.097z" fill="#323266"/><path data-name="Trazado 4036" d="M527.218 1903.862v25.465a1.029 1.029 0 01-1.029 1.029h-4.283v-27.522h4.283a1.029 1.029 0 011.029 1.028z" fill="#6a67ac"/><path data-name="Trazado 4037" d="M526.056 1925.576h-4.15v4.781h4.283a1.029 1.029 0 001.029-1.029v-3.752z" fill="#323266"/></g><path data-name="Trazado 4038" d="M569.177 1944.85h1.561a2.877 2.877 0 002.877-2.877v-50.756a2.877 2.877 0 00-2.877-2.877h-1.561a2.877 2.877 0 00-2.877 2.877v50.756a2.877 2.877 0 002.877 2.877z" fill="#6a67ac"/></g><g data-name="Grupo 96"><path data-name="Trazado 4039" d="M574.929 1904.185v-12.968a4.2 4.2 0 00-4.191-4.191h-1.561a4.2 4.2 0 00-4.191 4.191v.33a29.927 29.927 0 01-23.126 12.381l-3.816.152a1.314 1.314 0 00.052 2.627h.053l3.81-.152a32.569 32.569 0 0014.341-3.921q.8-.435 1.574-.916v29.754q-.774-.48-1.574-.916a32.564 32.564 0 00-14.333-3.92l-13.435-.536v-19.01l4.016-.16a1.314 1.314 0 10-.1-2.626l-3.911.156v-.6a2.346 2.346 0 00-2.344-2.344h-10.157a8.321 8.321 0 00-8.28 7.608 7.51 7.51 0 000 14.944 8.328 8.328 0 005.25 7.032v10.119a1.315 1.315 0 002.629 0v-9.559c.133.006 3.3.01 3.3.01v14a2.307 2.307 0 002.3 2.3h3.625v1.566a.81.81 0 01-.809.809h-7.607a.81.81 0 01-.809-.809v-2.717a1.315 1.315 0 00-2.629 0v2.717a3.441 3.441 0 003.438 3.438h7.612a3.441 3.441 0 003.438-3.438V1938.9h3.724a3.959 3.959 0 003.843-4.908l-1.247-5.048 8.052.321a29.924 29.924 0 0123.12 12.381v.33a4.2 4.2 0 004.191 4.191h1.561a4.2 4.2 0 004.191-4.191v-13.322a9.534 9.534 0 008.207-9.428v-5.614a9.534 9.534 0 00-8.207-9.428zm-71.3 12.415a4.89 4.89 0 014.1-4.819v9.637a4.89 4.89 0 01-4.1-4.819zm6.724 6.758v-13.527a5.69 5.69 0 015.683-5.683h4.557V1920a1.315 1.315 0 102.629 0v-15.852h2.678v24.894h-2.679v-3.442a1.315 1.315 0 10-2.629 0v3.445h-4.556a5.69 5.69 0 01-5.683-5.686zm11.211 21.984v-13.672h3.3v13.672zm10.945-10.722a1.33 1.33 0 01-1.291 1.649h-3.725v-5a2.343 2.343 0 001.039-1.946v-.6l2.547.1zm27.991-1.328V1899.9a32.707 32.707 0 004.485-4.156v41.704a32.718 32.718 0 00-4.485-4.156zm11.8 8.681a1.565 1.565 0 01-1.563 1.563h-1.56a1.564 1.564 0 01-1.563-1.563v-50.756a1.565 1.565 0 011.563-1.563h1.561a1.564 1.564 0 011.562 1.563zm8.207-22.746a6.9 6.9 0 01-5.578 6.767v-19.148a6.9 6.9 0 015.578 6.767z"/><path data-name="Trazado 4040" d="M587.81 1910.745a1.307 1.307 0 00.688-.2l1.702-1.045a1.315 1.315 0 10-1.378-2.239l-1.7 1.047a1.314 1.314 0 00.69 2.434z"/><path data-name="Trazado 4041" d="M590.2 1923.687l-1.7-1.047a1.315 1.315 0 00-1.378 2.239l1.7 1.047a1.315 1.315 0 101.378-2.239z"/><path data-name="Trazado 4042" d="M589.686 1915.105h-1.7a1.315 1.315 0 000 2.629h1.7a1.315 1.315 0 100-2.629z"/></g></g></svg>