<svg xmlns="http://www.w3.org/2000/svg" width="90" height="90"><defs><clipPath id="a"><path fill="#fff" stroke="#707070" transform="translate(501 1875)" d="M0 0h90v90H0z"/></clipPath></defs><g transform="translate(-501 -1875)" clip-path="url(#a)"><g data-name="Grupo 28"><path data-name="Trazado 3918" d="M561.391 1932.773h22.85v22.635h-22.85z" fill="#918fc3" fill-rule="evenodd"/></g><g data-name="Grupo 29"><path data-name="Trazado 3919" d="M554.124 1894.247l4.639-6.134c.458-.608.344-.962-.389-1.186l-7.354-2.237-4.4-6.3c-.433-.628-.807-.628-1.246 0l-4.4 6.3-7.354 2.237c-.732.224-.847.578-.384 1.186l4.634 6.134-.144 7.684c-.015.767.284.982 1.007.732l7.267-2.511 7.265 2.511c.722.249 1.026.035 1.011-.732z" fill="#fec165" fill-rule="evenodd"/></g><g data-name="Grupo 30"><path data-name="Trazado 3920" d="M554.124 1894.247l4.639-6.134c.458-.608.344-.962-.389-1.186l-7.354-2.237-4.4-6.3a1.259 1.259 0 00-.429-.424c2.093 2.785 3.438 7.116 3.438 11.974a21.727 21.727 0 01-2.529 10.59l6.164 2.133c.722.249 1.026.035 1.011-.732z" fill="#fea610" fill-rule="evenodd"/></g><g data-name="Grupo 31"><path data-name="Trazado 3921" d="M507.755 1933.125h23.558v22.283h-23.558z" fill="#b5b4d7" fill-rule="evenodd"/></g><g data-name="Grupo 32"><path data-name="Trazado 3922" d="M530.609 1934.883v-8.541h-22.047a.81.81 0 00-.807.807v7.733z" fill="#dad9eb" fill-rule="evenodd"/></g><g data-name="Grupo 33"><path data-name="Trazado 3923" d="M563.148 1955.407v-36.3h-34.3v36.3z" fill="#6c69af" fill-rule="evenodd"/></g><g data-name="Grupo 34"><path data-name="Trazado 3924" d="M563.148 1920.866v-7.479a1.074 1.074 0 00-1.066-1.066h-32.169a1.07 1.07 0 00-1.061 1.066v7.479z" fill="#dad9eb" fill-rule="evenodd"/></g><g data-name="Grupo 35"><path data-name="Trazado 3925" d="M584.241 1934.883v-7.734a.81.81 0 00-.807-.807H558.93v8.541z" fill="#dad9eb" fill-rule="evenodd"/></g><g data-name="Grupo 36"><path data-name="Trazado 3926" d="M523.485 1926.342h5.366v8.541h-5.366z" fill="#918fc3" fill-rule="evenodd"/></g><g data-name="Grupo 37"><path data-name="Trazado 3927" d="M523.485 1934.883h5.366v18.766h-5.366z" fill="#7e7cb9" fill-rule="evenodd"/></g><g data-name="Grupo 38"><path data-name="Trazado 3928" d="M563.148 1920.866v-7.479a1.074 1.074 0 00-1.066-1.066h-5.805a1.071 1.071 0 011.066 1.066v7.479z" fill="#918fc3" fill-rule="evenodd"/></g><g data-name="Grupo 39"><path data-name="Trazado 3929" d="M563.148 1926.342v-5.476h-5.8v32.783h5.8v-27.307z" fill="#323266" fill-rule="evenodd"/></g><g data-name="Grupo 40"><path data-name="Trazado 3930" d="M584.241 1934.883v-7.734a.81.81 0 00-.807-.807h-4.749a.81.81 0 01.807.807v7.733z" fill="#918fc3" fill-rule="evenodd"/></g><g data-name="Grupo 41"><path data-name="Trazado 3931" d="M579.492 1934.883h4.748v18.766h-4.748z" fill="#514f83" fill-rule="evenodd"/></g><g data-name="Grupo 42"><path data-name="Trazado 3932" d="M563.148 1953.649h-58.279a2.56 2.56 0 00-2.551 2.551v3.329a2.556 2.556 0 002.551 2.551h82.256a2.56 2.56 0 002.556-2.551v-3.329a2.565 2.565 0 00-2.556-2.556h-23.977z" fill="#f8f2f0" fill-rule="evenodd"/></g><g data-name="Grupo 43"><path data-name="Trazado 3933" d="M589.682 1956.2a2.565 2.565 0 00-2.556-2.556h-8.915a2.56 2.56 0 012.551 2.556v3.329a2.556 2.556 0 01-2.551 2.551h8.914a2.56 2.56 0 002.556-2.551z" fill="#eee1dc" fill-rule="evenodd"/></g><g data-name="Grupo 44"><path data-name="Trazado 3934" d="M587.125 1952.33h-1.566v-25.181a2.128 2.128 0 00-2.126-2.126h-18.966v-11.637a2.387 2.387 0 00-2.385-2.386h-32.169a2.385 2.385 0 00-2.38 2.385v11.639h-18.971a2.128 2.128 0 00-2.126 2.126v25.18h-1.567a3.877 3.877 0 00-3.869 3.87v3.329a3.874 3.874 0 003.87 3.871h82.255a3.876 3.876 0 003.875-3.867v-3.333a3.879 3.879 0 00-3.875-3.87zm-22.658-24.669h18.455v5.9h-18.455zm0 8.541h18.455v16.128h-18.455zm-34.297-14.018h12.957a1.319 1.319 0 000-2.637H530.17v-5.909h31.66v5.909h-12.639a1.319 1.319 0 000 2.637h12.639v30.146h-31.66zm-21.1 5.476h18.46v5.9h-18.457zm79.29 31.873a1.237 1.237 0 01-1.238 1.233H504.87a1.234 1.234 0 01-1.233-1.233v-3.333a1.237 1.237 0 011.233-1.233h10.24a1.319 1.319 0 100-2.637h-6.037v-16.13h18.46v16.13H521.2a1.319 1.319 0 000 2.637h65.925a1.239 1.239 0 011.238 1.233z"/><path data-name="Trazado 3935" d="M536.544 1894.678l-.136 7.227a1.92 1.92 0 002.755 2l6.837-2.358 6.835 2.363a2.84 2.84 0 00.922.17 1.769 1.769 0 001.067-.337 2.074 2.074 0 00.77-1.838l-.14-7.227 4.365-5.771a2.073 2.073 0 00.454-1.937 2.081 2.081 0 00-1.512-1.3l-6.918-2.1-4.143-5.936a2.068 2.068 0 00-1.7-1.034 2.076 2.076 0 00-1.705 1.035l-4.14 5.926-6.921 2.105a2.076 2.076 0 00-1.51 1.307 2.069 2.069 0 00.46 1.935zm4.815-8.727a1.318 1.318 0 00.7-.507L546 1879.8l3.942 5.647a1.318 1.318 0 00.7.507l6.592 2.005-4.156 5.5a1.32 1.32 0 00-.267.821l.134 6.884-6.512-2.251a1.32 1.32 0 00-.861 0l-6.508 2.25.129-6.884a1.317 1.317 0 00-.266-.819l-4.153-5.5z"/><path data-name="Trazado 3936" d="M563.469 1891.606a1.318 1.318 0 001.318 1.318h10.853a1.319 1.319 0 000-2.637h-10.852a1.318 1.318 0 00-1.318 1.318z"/><path data-name="Trazado 3937" d="M564.789 1885.625a1.312 1.312 0 00.621-.157l8.924-4.778a1.318 1.318 0 10-1.245-2.324l-8.924 4.778a1.319 1.319 0 00.623 2.481z"/><path data-name="Trazado 3938" d="M564.165 1900.063l8.924 4.779a1.318 1.318 0 101.245-2.324l-8.924-4.779a1.318 1.318 0 10-1.245 2.324z"/><path data-name="Trazado 3939" d="M516.36 1892.924h10.847a1.319 1.319 0 000-2.637H516.36a1.319 1.319 0 000 2.637z"/><path data-name="Trazado 3940" d="M517.661 1880.69l8.924 4.779a1.319 1.319 0 101.245-2.325l-8.924-4.778a1.318 1.318 0 10-1.245 2.324z"/><path data-name="Trazado 3941" d="M526.585 1897.739l-8.924 4.779a1.318 1.318 0 101.245 2.324l8.924-4.779a1.318 1.318 0 10-1.245-2.324z"/><path data-name="Trazado 3942" d="M548.122 1926.953a1.319 1.319 0 00-1.346.047l-3.941 2.551a1.318 1.318 0 001.433 2.213l1.907-1.234v12.889a1.319 1.319 0 002.637 0v-15.308a1.319 1.319 0 00-.689-1.158z"/></g></g></svg>