<svg xmlns="http://www.w3.org/2000/svg" width="90" height="90"><defs><clipPath id="a"><path fill="#fff" stroke="#707070" transform="translate(501 1875)" d="M0 0h90v90H0z"/></clipPath></defs><g transform="translate(-501 -1875)" clip-path="url(#a)"><g data-name="Grupo 105"><path data-name="Trazado 4043" d="M557.922 1916.667c-2.392.733-5.06 2.967-5.06 5.59v14.681c0 2.624 2.669 4.857 5.06 5.59 0-.052-.008-.1-.008-.156v-25.549c0-.053 0-.1.008-.156z" fill="#7b6c79"/><g data-name="Grupo 97"><path data-name="Trazado 4044" d="M557.914 1933.47c-2.39-.736-5.052-2.967-5.052-5.588v9.056c0 2.623 2.669 4.857 5.06 5.59 0-.052-.008-.1-.008-.156z" fill="#695d67"/></g><path data-name="Trazado 4045" d="M534.077 1916.667c2.392.733 5.06 2.967 5.06 5.59v14.681c0 2.624-2.669 4.857-5.06 5.59 0-.052.008-.1.008-.156v-25.549c0-.053 0-.1-.008-.156z" fill="#7b6c79"/><g data-name="Grupo 98"><path data-name="Trazado 4046" d="M534.085 1933.47v8.9c0 .053 0 .1-.008.156 2.391-.733 5.06-2.967 5.06-5.59v-9.054c0 2.621-2.663 4.852-5.052 5.588z" fill="#695d67"/></g><path data-name="Trazado 4047" d="M524.665 1916.823a2.279 2.279 0 01.039-.411h-3.395a5.805 5.805 0 00-1.314.152l-4.121 3.584-.006-.017a5.787 5.787 0 00-.4 2.126v14.681a5.863 5.863 0 005.845 5.845h3.387a2.3 2.3 0 01-.039-.411v-25.549z" fill="#6a67ac"/><g data-name="Grupo 100"><g data-name="Grupo 99"><path data-name="Trazado 4048" d="M524.665 1933.728h-3.356a5.862 5.862 0 01-5.845-5.845v9.056a5.863 5.863 0 005.845 5.845h3.391a2.3 2.3 0 01-.039-.411z" fill="#323266"/></g></g><path data-name="Trazado 4049" d="M576.131 1920.131l-.006.017-4.125-3.585a5.807 5.807 0 00-1.314-.152h-3.391a2.3 2.3 0 01.039.411v25.55a2.279 2.279 0 01-.039.411h3.395a5.837 5.837 0 00.859-.064l4.639-3.8a5.794 5.794 0 00.348-1.981v-14.681a5.784 5.784 0 00-.4-2.126z" fill="#6a67ac"/><g data-name="Grupo 102"><g data-name="Grupo 101"><path data-name="Trazado 4050" d="M570.69 1933.728h-3.356v8.645a2.279 2.279 0 01-.039.411h3.395a5.837 5.837 0 00.859-.064l4.639-3.8a5.794 5.794 0 00.348-1.981v-9.056a5.845 5.845 0 01-5.845 5.845z" fill="#323266"/></g></g><path data-name="Trazado 4051" d="M565.2 1914.516h-5.155a2.313 2.313 0 00-2.307 2.306v25.55a2.313 2.313 0 002.307 2.307h5.155a2.313 2.313 0 002.307-2.307v-25.549a2.313 2.313 0 00-2.307-2.307z" fill="#ff656f"/><path data-name="Trazado 4052" d="M565.2 1914.516h-5.155a2.313 2.313 0 00-2.307 2.306v25.55a2.313 2.313 0 002.307 2.307h5.155a2.313 2.313 0 002.307-2.307v-25.549a2.313 2.313 0 00-2.307-2.307z" fill="#6a67ac"/><path data-name="Trazado 4053" d="M565.2 1935.623h-5.155a2.313 2.313 0 01-2.306-2.307v9.056a2.313 2.313 0 002.306 2.307h5.155a2.313 2.313 0 002.307-2.307v-9.055a2.313 2.313 0 01-2.307 2.306z" fill="#323266"/><path data-name="Trazado 4054" d="M526.8 1914.516h5.158a2.313 2.313 0 012.307 2.306v25.55a2.313 2.313 0 01-2.307 2.307H526.8a2.313 2.313 0 01-2.307-2.307v-25.549a2.313 2.313 0 012.307-2.307z" fill="#6a67ac"/><path data-name="Trazado 4055" d="M531.954 1935.623H526.8a2.313 2.313 0 01-2.307-2.307v9.056a2.313 2.313 0 002.307 2.307h5.158a2.313 2.313 0 002.307-2.307v-9.055a2.313 2.313 0 01-2.311 2.306z" fill="#323266"/><path data-name="Trazado 4056" d="M573.932 1937.3a2.383 2.383 0 00-2.383 2.383v11.917a62.613 62.613 0 01-16.37 5.4 3.655 3.655 0 01.67 4.723 65.483 65.483 0 0019.251-6.593 2.383 2.383 0 001.217-2.079v-13.366a2.383 2.383 0 00-2.385-2.385z" fill="#7b6c79"/><path data-name="Trazado 4057" d="M573.932 1937.3a2.383 2.383 0 00-2.383 2.383v11.917a62.613 62.613 0 01-16.37 5.4 3.655 3.655 0 01.67 4.723c1.059-.178 2.1-.384 3.1-.611a3.654 3.654 0 00.011-.889v-.028a2.711 2.711 0 012.05-2.985 64.245 64.245 0 0011.79-4.11 2.247 2.247 0 001.3-2.042v-10.427a2.452 2.452 0 011.741-2.359 2.377 2.377 0 00-1.909-.972z" fill="#695d67"/><path data-name="Trazado 4058" d="M533.915 1885.364a2.1 2.1 0 01-.892-1.726v-3.138a2.137 2.137 0 01.017-.256 31.98 31.98 0 00-17.167 39.904 2.504 2.504 0 104.719-1.675 26.971 26.971 0 0113.323-33.109z" fill="#7b6c79"/><path data-name="Trazado 4059" d="M558.959 1880.239a2.134 2.134 0 01.017.256v3.143a2.1 2.1 0 01-.892 1.726 26.971 26.971 0 0113.323 33.109 2.504 2.504 0 104.719 1.675 31.98 31.98 0 00-17.167-39.909z" fill="#7b6c79"/><path data-name="Trazado 4060" d="M518.774 1920.148a31.972 31.972 0 0114.248-38.424v-1.224a2.136 2.136 0 01.017-.256 31.98 31.98 0 00-17.165 39.904 2.5 2.5 0 003.809 1.2 2.49 2.49 0 01-.909-1.2z" fill="#695d67"/><path data-name="Trazado 4061" d="M574.307 1918.473a26.965 26.965 0 00-11.032-31.811 3.1 3.1 0 01-1.4-2.869q.006-.077.005-.155v-1.914a31.863 31.863 0 00-2.917-1.484 2.134 2.134 0 01.017.256v3.142a2.1 2.1 0 01-.892 1.726 26.971 26.971 0 0113.334 33.065 2.542 2.542 0 001.393 3.2 2.5 2.5 0 002.4-.277 2.5 2.5 0 01-.908-2.879z" fill="#695d67"/><g data-name="Grupo 103"><path data-name="Trazado 4062" d="M548.016 1963.684a3.667 3.667 0 010-7.333 42.571 42.571 0 004.514-.251 3.667 3.667 0 11.812 7.288 49.893 49.893 0 01-5.326.294z" fill="#b5b4d7"/></g><path data-name="Trazado 4063" d="M549.776 1959.818a4.163 4.163 0 012.169-3.656 43.017 43.017 0 01-3.929.189 3.667 3.667 0 000 7.333c1.257 0 2.651-.056 4.012-.168a4.162 4.162 0 01-2.252-3.698z" fill="#7e7cb9"/><path data-name="Trazado 4064" d="M557.807 1878.515a32.894 32.894 0 00-23.614 0 2.126 2.126 0 00-1.346 1.985v3.138a2.132 2.132 0 002.941 1.968 27.865 27.865 0 0120.424 0 2.132 2.132 0 002.941-1.968v-3.138a2.126 2.126 0 00-1.345-1.981z" fill="#6a67ac"/><g data-name="Grupo 104"><path data-name="Trazado 4065" d="M540.99 1881.88v-3.142a2.126 2.126 0 011.345-1.981c.274-.107.552-.21.831-.31a32.371 32.371 0 00-8.974 2.068 2.126 2.126 0 00-1.345 1.985v3.137a2.132 2.132 0 002.941 1.968 27.125 27.125 0 016.665-1.71 2.114 2.114 0 01-1.463-2.015z" fill="#323266"/></g></g><path data-name="Trazado 4066" d="M560.084 1879.3a3.415 3.415 0 00-1.972-2.017 33.249 33.249 0 00-24.226 0 3.415 3.415 0 00-1.971 2.017 33.319 33.319 0 00-17.442 40.825 7.085 7.085 0 00-.328 2.129v14.681a7.172 7.172 0 007.164 7.165h2.477a3.628 3.628 0 003.185 1.9h4.807a3.629 3.629 0 003.436-2.479c2.662-1.09 5.241-3.6 5.241-6.581v-14.686c0-2.976-2.579-5.49-5.241-6.581a3.629 3.629 0 00-3.436-2.478h-4.807a3.628 3.628 0 00-3.185 1.9c-2.777 0-2.527 0-2.8.009a25.58 25.58 0 0112.931-28.255 3.465 3.465 0 002.539-.024 25.446 25.446 0 016.617-1.676 1.319 1.319 0 10-.3-2.62 28.082 28.082 0 00-7.3 1.849.815.815 0 01-1.13-.745v-3.14a.812.812 0 01.508-.753 30.614 30.614 0 0122.3 0 .812.812 0 01.508.753v3.142a.815.815 0 01-1.13.745 28.076 28.076 0 00-7.3-1.849 1.319 1.319 0 10-.3 2.62 25.452 25.452 0 016.617 1.676 3.468 3.468 0 002.538.023 25.58 25.58 0 0112.926 28.25c-.271-.012-.028-.009-2.8-.009a3.628 3.628 0 00-3.185-1.9h-4.804a3.629 3.629 0 00-3.436 2.478c-2.662 1.091-5.241 3.6-5.241 6.581v14.685c0 2.976 2.579 5.49 5.241 6.581a3.629 3.629 0 003.436 2.479h4.807a3.628 3.628 0 003.185-1.9h2.017v6.672a61.754 61.754 0 01-14.709 4.823 4.943 4.943 0 00-3.313-.8 38.083 38.083 0 01-4.193.241 4.985 4.985 0 100 9.97 48.013 48.013 0 005.3-.3 4.951 4.951 0 003.285-1.775 67.049 67.049 0 0019.147-6.649 3.705 3.705 0 001.891-3.228v-13.367a3.714 3.714 0 00-.073-.729 7.1 7.1 0 00.293-2.018v-4.3a1.319 1.319 0 10-2.637 0v3.575a3.955 3.955 0 00-1.285-.23 3.706 3.706 0 00-3.7 3.7v1.781h-1.584v-23.734h1.615a3.9 3.9 0 00.047 3.223 3.821 3.821 0 004.9 1.893v3.637a1.319 1.319 0 002.637 0v-4.225a7.079 7.079 0 00-.328-2.129 33.318 33.318 0 00-17.439-40.826zm-24.684 39.435a4.669 4.669 0 012.416 3.52v14.68a4.667 4.667 0 01-2.416 3.52zm-9.42-1.915a.99.99 0 01.988-.988h4.807a.988.988 0 01.988.988v25.543a.989.989 0 01-.988 1h-4.804a.99.99 0 01-.988-.988zm-4.149 1.209c-.036-.1-.069-.2-.1-.3h1.615v23.733h-2.037a4.532 4.532 0 01-4.527-4.527v-14.091a3.76 3.76 0 002.729.066 3.82 3.82 0 002.323-4.881zm-2.485.882a1.185 1.185 0 01-2.234.793v-.007a30.68 30.68 0 0114.588-37.346v1.284a3.62 3.62 0 00.246 1.288 28.287 28.287 0 00-12.6 33.989zm37.254 21.544a4.668 4.668 0 01-2.416-3.519v-14.682a4.668 4.668 0 012.416-3.519zm9.42 1.915a.99.99 0 01-.988.988h-4.811a.989.989 0 01-.988-.988v-25.544a.989.989 0 01.988-.994h4.807a.99.99 0 01.988.988zm-13 19.708a45.356 45.356 0 01-5 .286 2.35 2.35 0 110-4.7 40.74 40.74 0 004.48-.254 2.348 2.348 0 11.52 4.667zm19.112-9.3a1.318 1.318 0 00.734-1.182v-11.914a1.065 1.065 0 112.13 0v13.367a1.066 1.066 0 01-.544.929 64.177 64.177 0 01-16.715 6.044 5.039 5.039 0 00-.34-2.11 65.33 65.33 0 0014.735-5.132zm2.753-33.078v.007a1.185 1.185 0 01-2.233-.795 28.291 28.291 0 00-12.6-33.988 3.625 3.625 0 00.246-1.288v-1.285a30.68 30.68 0 0114.587 37.349z"/></g></svg>