<svg xmlns="http://www.w3.org/2000/svg" width="157" height="157"><defs><clipPath id="a"><path transform="translate(-.237)" fill="#fff" d="M0 0h109v109H0z"/></clipPath></defs><g transform="translate(.237)"><circle cx="78.5" cy="78.5" r="78.5" transform="translate(-.237)" fill="#fff"/><g transform="translate(24 24)" clip-path="url(#a)"><g transform="translate(-.322 -.177)"><path data-name="Trazado 74" d="M72.399 91.419a16.286 16.286 0 0116.242-16.33 16.1 16.1 0 017.221 1.7 47.329 47.329 0 00-3.871-48.155l-7.909-2.103a1.719 1.719 0 01-1.1-1.092l-2.151-7.989a47.284 47.284 0 10-6.813 81.081 16.338 16.338 0 01-1.617-7.11z" fill="#6c69af"/><path data-name="Trazado 75" d="M11.456 55.794A47.29 47.29 0 0156.088 8.755q-1.253-.07-2.522-.076a47.288 47.288 0 10-.348 94.574c.951 0 1.894-.024 2.831-.076a47.291 47.291 0 01-44.6-47.384z" fill="#323266"/><path data-name="Trazado 76" d="M85.166 75.467a37.281 37.281 0 00-31.633-56.799h-.139a37.3 37.3 0 00-.132 74.594h.14a37.038 37.038 0 0019.409-5.472 16.3 16.3 0 0112.355-12.323z" fill="#fff"/><path data-name="Trazado 77" d="M32.276 82.245a37.3 37.3 0 0123.8-63.477 40.572 40.572 0 00-2.546-.1h-.139a37.3 37.3 0 00-.132 74.594h.14c.9 0 1.787-.034 2.669-.1a37.021 37.021 0 01-23.792-10.917z" fill="#efe2dd"/><path data-name="Trazado 78" d="M53.281 83.273a27.307 27.307 0 01.109-54.613h.116a27.307 27.307 0 01-.095 54.614z" fill="#6c69af"/><path data-name="Trazado 79" d="M40.437 75.204a27.306 27.306 0 0116.182-46.357 27.7 27.7 0 00-3.113-.188h-.116a27.307 27.307 0 00-.108 54.614h.13a27.391 27.391 0 003.182-.189 27.1 27.1 0 01-16.156-7.88z" fill="#323266"/><path data-name="Trazado 80" d="M53.307 73.282a17.317 17.317 0 01.083-34.633h.087a17.317 17.317 0 01-.058 34.633z" fill="#fff"/><path data-name="Trazado 81" d="M46.457 68.165a17.317 17.317 0 019.626-29.311 17.449 17.449 0 00-2.606-.205h-.087a17.317 17.317 0 00-.083 34.633h.112a17.306 17.306 0 002.644-.208 17.184 17.184 0 01-9.6-4.911z" fill="#efe2dd"/><path data-name="Trazado 82" d="M53.336 63.289a7.326 7.326 0 01-7.268-7.352 7.339 7.339 0 017.309-7.3h.065a7.326 7.326 0 017.28 7.352 7.341 7.341 0 01-7.3 7.3z" fill="#6c69af"/><path data-name="Trazado 83" d="M52.478 61.127a7.183 7.183 0 01-2.127-5.188 7.346 7.346 0 015.208-6.986 7.338 7.338 0 00-2.117-.313h-.064a7.339 7.339 0 00-7.309 7.3 7.326 7.326 0 007.266 7.349h.088a7.275 7.275 0 002.087-.314 7.228 7.228 0 01-3.032-1.848z" fill="#323266"/><path data-name="Trazado 84" d="M98.95 11.747a1.786 1.786 0 01-1.107-1.1l-2.452-8.608a.483.483 0 00-.878-.227L81.036 15.218a1.7 1.7 0 00-.4 1.492l2.35 8.727a1.719 1.719 0 001.1 1.092l8.769 2.335a1.727 1.727 0 001.5-.4l13.475-13.4a.479.479 0 00-.228-.874z" fill="#62dbfb"/><path data-name="Trazado 85" d="M87.739 27.034l-2.5-9.276a1.811 1.811 0 01.427-1.586L96.381 5.514l-.99-3.475a.483.483 0 00-.878-.227L81.036 15.218a1.7 1.7 0 00-.4 1.492l2.35 8.727a1.719 1.719 0 001.1 1.092l3.939 1.052a1.555 1.555 0 01-.291-.547z" fill="#01d0fb"/><ellipse data-name="Elipse 8" cx="16.241" cy="16.33" rx="16.241" ry="16.33" transform="translate(72.399 75.089)" fill="#97d729"/><path data-name="Trazado 86" d="M79.302 91.419a16.314 16.314 0 0112.79-15.957 16.33 16.33 0 100 31.914 16.314 16.314 0 01-12.79-15.957z" fill="#8bc727"/><path data-name="Trazado 87" d="M108.963 16.199a2.073 2.073 0 00-.925-3.558l-6.869-1.937 2.089-2.082a1.606 1.606 0 10-2.265-2.277l-2.107 2.1-1.95-6.846A2.077 2.077 0 0093.38.672L79.9 14.079a2.893 2.893 0 00-.414.527 49.135 49.135 0 00-6.736-3.554 1.606 1.606 0 10-1.272 2.949 45.842 45.842 0 017.953 4.421l1.992 7.4-1.605 1.6A38.6 38.6 0 0055 17.097v-6.785a45.816 45.816 0 019.607 1.357 1.606 1.606 0 00.785-3.115A49.032 49.032 0 0055 7.098V4.181a1.606 1.606 0 10-3.212 0V7.1A48.888 48.888 0 004.524 54.359H1.606a1.606 1.606 0 100 3.212h2.919a48.888 48.888 0 0047.262 47.26v2.917a1.606 1.606 0 103.212 0v-2.917a48.661 48.661 0 0018.334-4.2 17.812 17.812 0 0032.442-4.181 1.607 1.607 0 00-3.085-.9 14.731 14.731 0 11.342-6.824 1.606 1.606 0 103.159-.579 17.888 17.888 0 00-8.227-12.025 48.674 48.674 0 004.3-18.552h2.916a1.606 1.606 0 100-3.212h-2.917a48.832 48.832 0 00-7.386-24.3 2.944 2.944 0 00.608-.455zm-10.408-2.9l6.828 1.926-4.375 4.352L94.1 17.74zM94.348 4.24l1.935 6.793-4.483 4.456-1.848-6.876zM82.214 16.311l5.114-5.089 1.852 6.876-5.134 5.107-1.846-6.85a.328.328 0 01.012-.044zm-30.427-6v6.783a38.984 38.984 0 00-37.264 37.265H7.739a45.738 45.738 0 0144.048-44.044zm0 91.3A45.739 45.739 0 017.74 57.571h6.782a38.9 38.9 0 0037.265 37.262zm3.212 0v-6.779a38.579 38.579 0 0015.811-4.1c-.009.228-.017.456-.017.686a17.925 17.925 0 001.136 6.293A45.356 45.356 0 0155 101.616zm16.409-14.854A35.407 35.407 0 0155 91.622v-.854a1.606 1.606 0 00-3.212 0v.854a35.69 35.69 0 01-34.053-34.051h.856a1.606 1.606 0 100-3.212h-.853a35.766 35.766 0 0134.049-34.048v.854a1.606 1.606 0 103.212 0v-.853a35.407 35.407 0 0122.54 9.368l-4.812 4.787a28.686 28.686 0 00-19.217-7.415h-.12a28.913 28.913 0 00-.114 57.826h.136A28.98 28.98 0 0082 60.212a1.606 1.606 0 00-3.178-.471 25.767 25.767 0 01-25.4 21.925h-.129a25.7 25.7 0 01.1-51.4h.107a25.493 25.493 0 0116.946 6.471l-4.82 4.795a18.745 18.745 0 00-12.143-4.49h-.093a18.923 18.923 0 00-.09 37.845h.12a18.919 18.919 0 0014.47-31.08l4.818-4.793a25.348 25.348 0 016.169 13.574 1.606 1.606 0 003.185-.415 28.539 28.539 0 00-7.074-15.428l4.812-4.788a35.4 35.4 0 019.248 22.4H88.2a1.606 1.606 0 000 3.212h.855a35.42 35.42 0 01-4.913 16.49 17.958 17.958 0 00-12.73 12.7zM52.255 57.098a1.606 1.606 0 002.271.006l3.9-3.877a5.621 5.621 0 01.69 2.759 5.732 5.732 0 01-5.683 5.7h-.09a5.72 5.72 0 01-5.668-5.74 5.73 5.73 0 015.7-5.7h.064a5.579 5.579 0 012.724.7l-3.9 3.878a1.606 1.606 0 00-.008 2.274zm6.239-8.476a8.7 8.7 0 00-5.049-1.592h-.073a8.951 8.951 0 00-8.912 8.9 8.932 8.932 0 008.869 8.964h.1a8.955 8.955 0 008.9-8.9 8.732 8.732 0 00-1.567-5.094l4.848-4.823a15.712 15.712 0 01-12.182 25.6h-.112a15.71 15.71 0 01.071-31.421h.087a15.556 15.556 0 019.87 3.549zm36.566 26.06a17.749 17.749 0 00-6.42-1.2c-.18 0-.357.008-.536.014a38.584 38.584 0 004.16-15.925h6.786a45.372 45.372 0 01-3.99 17.111zm3.99-20.323h-6.784A38.588 38.588 0 0082.083 29.69l1.611-1.6 7.329 1.953a45.624 45.624 0 018.027 24.316zm-5.784-27.075a.341.341 0 01-.056.015l-6.88-1.834 5.13-5.1 6.912 1.842z"/><path data-name="Trazado 88" d="M94.165 85.956l-7.473 7.515-3.578-3.6a1.606 1.606 0 10-2.277 2.265l4.716 4.742a1.606 1.606 0 002.277 0l8.612-8.659a1.606 1.606 0 00-2.278-2.265z"/></g></g></g></svg>