<svg xmlns="http://www.w3.org/2000/svg" width="90" height="90"><defs><clipPath id="a"><path fill="#fff" stroke="#707070" transform="translate(440 1875)" d="M0 0h90v90H0z"/></clipPath></defs><g transform="translate(-440 -1875)" clip-path="url(#a)"><g data-name="Grupo 20"><path data-name="Trazado 41" d="M517.458 1878.068h-57.149a12.843 12.843 0 010 22.2h57.149a11.1 11.1 0 100-22.2z" fill="#6c69af"/><path data-name="Trazado 42" d="M477.286 1889.168a12.837 12.837 0 00-6.386-11.1h-10.591a12.843 12.843 0 010 22.2H470.9a12.837 12.837 0 006.386-11.1z" fill="#323266"/><path data-name="Trazado 43" d="M452.625 1908.909h57.15a12.843 12.843 0 000 22.2h-57.15a11.1 11.1 0 110-22.2z" fill="#918fc3"/><path data-name="Trazado 44" d="M452.12 1920.009a11.1 11.1 0 0111.1-11.1h-10.595a11.1 11.1 0 100 22.2h10.595a11.1 11.1 0 01-11.1-11.1z" fill="#514f83"/><path data-name="Trazado 45" d="M517.458 1939.75h-57.149a12.843 12.843 0 010 22.2h57.149a11.1 11.1 0 000-22.2z" fill="#b5b4d7"/><path data-name="Trazado 46" d="M477.286 1950.85a12.837 12.837 0 00-6.386-11.1h-10.591a12.843 12.843 0 010 22.2H470.9a12.837 12.837 0 006.386-11.1z" fill="#918fc3"/><g data-name="Grupo 19" fill="#dfebfa" transform="translate(440 1875)"><circle data-name="Elipse 1" cx="12.846" cy="12.846" r="12.846" transform="translate(1.525 1.322)"/><circle data-name="Elipse 2" cx="12.846" cy="12.846" r="12.846" transform="translate(62.866 32.163)"/><circle data-name="Elipse 3" cx="12.846" cy="12.846" r="12.846" transform="translate(1.525 63.004)"/></g><path data-name="Trazado 47" d="M448.3 1889.168a12.849 12.849 0 019.46-12.392 12.846 12.846 0 100 24.783 12.849 12.849 0 01-9.46-12.391z" fill="#b1dbfc"/><path data-name="Trazado 48" d="M509.638 1920.009a12.849 12.849 0 019.462-12.392 12.846 12.846 0 100 24.783 12.849 12.849 0 01-9.46-12.392z" fill="#b1dbfc"/><path data-name="Trazado 49" d="M448.3 1950.85a12.849 12.849 0 019.46-12.392 12.846 12.846 0 100 24.783 12.849 12.849 0 01-9.46-12.391z" fill="#b1dbfc"/></g><g data-name="Grupo 21"><path data-name="Trazado 50" d="M454.329 1903.318a14.07 14.07 0 006.8-1.746h56.287a12.414 12.414 0 000-24.827H490.8a1.313 1.313 0 000 2.627h26.616a9.787 9.787 0 010 19.573h-52.864a14.135 14.135 0 000-19.573h20.123a1.313 1.313 0 100-2.627h-23.542a14.158 14.158 0 10-6.8 26.573zm0-25.692a11.532 11.532 0 11-11.529 11.533 11.552 11.552 0 0111.529-11.532z"/><path data-name="Trazado 51" d="M454.329 1965a14.069 14.069 0 006.8-1.746h56.287a12.414 12.414 0 000-24.827h-56.283a14.158 14.158 0 10-6.804 26.573zm63.087-23.946a9.787 9.787 0 010 19.573h-52.864a14.134 14.134 0 000-19.573zm-63.087-1.746a11.532 11.532 0 11-11.529 11.533 11.551 11.551 0 0111.529-11.533z"/><path data-name="Trazado 52" d="M453.16 1886.191v8.009a1.313 1.313 0 002.627 0v-10.085a1.313 1.313 0 00-1.887-1.182l-1.691.818a1.313 1.313 0 00.949 2.44z"/><path data-name="Trazado 53" d="M511.636 1924.185a1.313 1.313 0 00.954 2.215h6.161a1.313 1.313 0 100-2.627h-3.111l2.675-2.828.022-.024a4.668 4.668 0 001.257-3.508 4.2 4.2 0 00-1.585-2.956 3.97 3.97 0 00-3.337-.77 4.811 4.811 0 00-3.24 2.421 1.313 1.313 0 002.316 1.239 2.188 2.188 0 011.452-1.086 1.383 1.383 0 011.168.246 1.575 1.575 0 01.609 1.12 2.071 2.071 0 01-.582 1.527z"/><path data-name="Trazado 54" d="M455.3 1954.615h-2.627a1.313 1.313 0 100 2.627h2.627a3.855 3.855 0 002.9-6.4 3.855 3.855 0 00-2.9-6.4h-2.627a1.313 1.313 0 100 2.627h2.627a1.231 1.231 0 010 2.461h-2.627a1.313 1.313 0 100 2.627h2.627a1.231 1.231 0 010 2.461z"/><path data-name="Trazado 55" d="M452.584 1932.413h56.283a14.152 14.152 0 0020.554-9.037 1.313 1.313 0 00-2.551-.625 11.532 11.532 0 110-5.5 1.313 1.313 0 002.551-.625 14.152 14.152 0 00-20.554-9.037h-56.283a12.414 12.414 0 000 24.827zm0-22.2h52.864a14.135 14.135 0 000 19.573h-52.864a9.787 9.787 0 010-19.573z"/><path data-name="Trazado 56" d="M474.52 1947.066h16.019a1.313 1.313 0 100-2.627H474.52a1.313 1.313 0 100 2.627z"/><path data-name="Trazado 57" d="M474.52 1952.222h34.688a1.313 1.313 0 100-2.627H474.52a1.313 1.313 0 100 2.627z"/><path data-name="Trazado 58" d="M474.52 1957.377h34.688a1.313 1.313 0 000-2.627H474.52a1.313 1.313 0 000 2.627z"/><path data-name="Trazado 59" d="M490.539 1882.623H474.52a1.313 1.313 0 100 2.627h16.019a1.313 1.313 0 100-2.627z"/><path data-name="Trazado 60" d="M509.208 1887.778H474.52a1.313 1.313 0 000 2.627h34.688a1.313 1.313 0 000-2.627z"/><path data-name="Trazado 61" d="M509.208 1892.934H474.52a1.313 1.313 0 000 2.627h34.688a1.313 1.313 0 000-2.627z"/><path data-name="Trazado 62" d="M458 1916.158h16.021a1.313 1.313 0 100-2.627H458a1.313 1.313 0 100 2.627z"/><path data-name="Trazado 63" d="M458 1921.313h34.689a1.313 1.313 0 100-2.627H458a1.313 1.313 0 100 2.627z"/><path data-name="Trazado 64" d="M458 1926.469h34.689a1.313 1.313 0 100-2.627H458a1.313 1.313 0 100 2.627z"/></g></g></svg>