<svg xmlns="http://www.w3.org/2000/svg" width="157" height="157"><defs><clipPath id="a"><path transform="translate(-.237)" fill="#fff" d="M0 0h107v107H0z"/></clipPath></defs><g transform="translate(.237)"><circle cx="78.5" cy="78.5" r="78.5" transform="translate(-.237)" fill="#fff"/><g transform="translate(25 25)" clip-path="url(#a)"><path data-name="Trazado 99" d="M80.457 29.13H26.543l10.242-14h33.431z" fill="#323266"/><path data-name="Trazado 100" d="M64.377 29.13H42.623l5.942-14h9.87z" fill="#6c69af"/><path data-name="Trazado 101" d="M53.456 53.53a77.618 77.618 0 019.026.515L80.457 29.13H26.543l17.969 24.906a77.663 77.663 0 018.944-.506z" fill="#6c69af"/><path data-name="Trazado 102" d="M53.455 53.53q1.933 0 3.792.09l7.129-24.49H42.623l7.128 24.486q1.818-.084 3.704-.086z" fill="#323266"/><path data-name="Trazado 103" d="M85.863 105.715h-64.7a5.264 5.264 0 01-5.264-5.264V73.499h75.228v26.952a5.263 5.263 0 01-5.264 5.264z" fill="#8c808a"/><path data-name="Trazado 104" d="M85.863 101.925h-64.7a5.264 5.264 0 01-5.264-5.264v3.79a5.264 5.264 0 005.264 5.264h64.7a5.264 5.264 0 005.264-5.264v-3.79a5.263 5.263 0 01-5.264 5.264z" fill="#7b7179"/><path data-name="Trazado 105" d="M91.035 73.5c.095-9.764-13.773-19.967-37.582-19.967s-37.675 10.201-37.58 19.965z" fill="#dd636e"/><path data-name="Trazado 106" d="M64.959 50.611a73.05 73.05 0 00-11.5-.871 73.148 73.148 0 00-11.424.858l2.48 3.437a79.307 79.307 0 0117.97.01z" fill="#322f77"/><path data-name="Trazado 107" d="M58.333 49.89q-2.365-.146-4.878-.15-2.468 0-4.791.144l1.086 3.731q1.818-.083 3.7-.086 1.933 0 3.792.09z" fill="#111136"/><path data-name="Trazado 108" d="M16.53 69.71a10.951 10.951 0 00-.657 3.787h75.16a10.956 10.956 0 00-.657-3.787z" fill="#da4a54"/><g data-name="Grupo 24"><path data-name="Trazado 109" d="M92.605 72.95c-.131-3.52-1.806-7-4.875-10.1-4.95-5-12.832-8.457-22.443-10l5.994-8.308a1.58 1.58 0 00-2.561-1.848l-6.986 9.688q-1.194-.128-2.419-.217l6.246-21.456H77.37l-4.952 6.863a1.58 1.58 0 002.561 1.848l6.758-9.366a1.579 1.579 0 00-.006-1.856L71.494 14.201a1.579 1.579 0 00-1.274-.647H36.785a1.58 1.58 0 00-1.274.647l-10.242 14a1.579 1.579 0 00-.006 1.856l16.446 22.8a53.645 53.645 0 00-12.224 3.364 1.58 1.58 0 101.22 2.913c6.272-2.628 14.139-4.017 22.75-4.017a62.52 62.52 0 0119.827 2.919 31.1 31.1 0 0112.2 7.046 12.975 12.975 0 013.846 6.847H17.579c.606-3.563 3.362-7.137 7.779-10a1.579 1.579 0 10-1.719-2.649c-6.077 3.943-9.4 9-9.345 14.244l.021 26.939a6.851 6.851 0 006.843 6.843h44.977a1.579 1.579 0 100-3.158H21.158a3.689 3.689 0 01-3.684-3.684V75.079h72.074v25.372a3.689 3.689 0 01-3.684 3.684H72.452a1.579 1.579 0 100 3.158h13.411a6.851 6.851 0 006.843-6.843s-.037-27.33-.1-27.5zM69.414 16.712l7.931 10.838H65.422l-4.6-10.838zm-12.024 0l4.6 10.838H45.009l4.6-10.838zm-19.8 0h8.593l-4.6 10.838H29.655zm7.675 35.664L29.629 30.709h11.809l6.245 21.451c-.815.06-1.625.128-2.423.213zm8.195-.425c-.851 0-1.694.017-2.532.043l-6.2-21.286h17.544l-6.2 21.285q-1.3-.041-2.621-.042z"/><path data-name="Trazado 110" d="M53.5 5.787a1.579 1.579 0 001.579-1.581V1.285a1.579 1.579 0 10-3.158 0v2.921A1.579 1.579 0 0053.5 5.787z"/><path data-name="Trazado 111" d="M40.781 10.13a1.579 1.579 0 102.233-2.233L40.948 5.83a1.58 1.58 0 10-2.234 2.233z"/><path data-name="Trazado 112" d="M65.102 10.592a1.575 1.575 0 001.117-.463l2.066-2.066a1.579 1.579 0 00-2.233-2.233l-2.066 2.067a1.592 1.592 0 001.116 2.695z"/></g></g></g></svg>