<svg xmlns="http://www.w3.org/2000/svg" width="59" height="59"><defs><clipPath id="a"><path transform="translate(179 3524)" fill="#fff" d="M0 0h59v59H0z"/></clipPath></defs><g clip-path="url(#a)" transform="translate(-179 -3524)"><path data-name="Trazado 3815" d="M236.123 3532.906h-3.457v41.188h3.457a3.446 3.446 0 001.013-2.444v-36.3a3.446 3.446 0 00-1.013-2.444z" fill="#323266"/><path data-name="Trazado 3816" d="M233.679 3535.351a3.446 3.446 0 00-1.013-2.444h-51.789a3.446 3.446 0 00-1.013 2.444v36.3a3.446 3.446 0 001.013 2.444h51.789a3.446 3.446 0 001.013-2.444z" fill="#918fc3"/><path data-name="Trazado 3817" d="M233.679 3571.649l-3.457 3.457h3.457a3.446 3.446 0 002.444-1.013z" fill="#7e7cb9"/><path data-name="Trazado 3818" d="M233.679 3571.649l-25.179-25.178-27.623 27.623a3.446 3.446 0 002.444 1.013h46.9a3.457 3.457 0 003.458-3.458z" fill="#6a67ac"/><path data-name="Trazado 3819" d="M233.679 3531.894h-3.457l3.457 3.457 2.444-2.444a3.446 3.446 0 00-2.444-1.013z" fill="#7e7cb9"/><path data-name="Trazado 3820" d="M230.222 3531.894h-46.901a3.446 3.446 0 00-2.444 1.012l22.734 22.734a6.914 6.914 0 009.778 0l20.29-20.29a3.457 3.457 0 00-3.457-3.456z" fill="#b5b4d7"/><path data-name="Trazado 3821" d="M233.679 3531.029h-50.358a4.326 4.326 0 00-4.321 4.322v36.3a4.326 4.326 0 004.321 4.321h50.358a4.326 4.326 0 004.321-4.323v-36.3a4.326 4.326 0 00-4.321-4.32zm-16.927 22.471l19.266-19.266a2.576 2.576 0 01.253 1.117v36.3a2.576 2.576 0 01-.253 1.117zm16.927-20.742a2.577 2.577 0 011.117.253l-22.018 22.018a6.049 6.049 0 01-8.555 0l-10.146-10.145a.864.864 0 00-1.222 1.222l7.393 7.394-19.266 19.266a2.576 2.576 0 01-.253-1.117v-36.3a2.576 2.576 0 01.253-1.117l9.429 9.429a.864.864 0 001.222-1.222l-9.433-9.428a2.576 2.576 0 011.117-.253zm-50.358 41.484a2.576 2.576 0 01-1.121-.253l19.271-19.267 1.529 1.529a7.778 7.778 0 0011 0l1.529-1.529 19.271 19.267a2.577 2.577 0 01-1.117.253z"/></g></svg>