<svg xmlns="http://www.w3.org/2000/svg" width="90" height="90"><defs><clipPath id="a"><path fill="#fff" stroke="#707070" transform="translate(440 1875)" d="M0 0h90v90H0z"/></clipPath></defs><g transform="translate(-440 -1875)" clip-path="url(#a)"><g data-name="Grupo 18"><path data-name="Trazado 28" d="M485.682 1944.7a1.179 1.179 0 01-1.28 0l-33.73-22.188-8.8 12.031a1.179 1.179 0 00.312 1.686L484.4 1963.5a1.179 1.179 0 001.28 0l.533-.345v-18.795z" fill="#6a67ac"/><g data-name="Grupo 17"><path data-name="Trazado 29" d="M460.031 1928.67l-9.359-6.158-8.8 12.031a1.179 1.179 0 00.312 1.686l10.452 6.752z" fill="#323266"/></g><path data-name="Trazado 30" d="M485.042 1944.893v18.8a1.178 1.178 0 00.64-.189l42.218-27.275a1.179 1.179 0 00.312-1.686l-8.687-11.875-33.843 22.032a1.178 1.178 0 01-.64.193z" fill="#6c69af"/><path data-name="Trazado 31" d="M485.682 1925.907a1.18 1.18 0 01-1.28 0l-24.468-16.061-9.461 12.939L484.4 1944.7a1.179 1.179 0 001.28 0l.533-.345v-18.8z" fill="#918fc3"/><path data-name="Trazado 32" d="M467.268 1914.659l-7.333-4.814-9.462 12.94 9.446 6.1z" fill="#514f83"/><path data-name="Trazado 33" d="M510.178 1909.885l-24.5 16.022a1.179 1.179 0 01-.64.189v18.8a1.178 1.178 0 00.64-.189l33.929-21.92z" fill="#918fc3"/><path data-name="Trazado 34" d="M485.682 1907.11a1.179 1.179 0 01-1.28 0l-15.182-9.963-9.412 12.871 24.592 15.889a1.18 1.18 0 001.28 0l.533-.345v-18.8z" fill="#b5b4d7"/><path data-name="Trazado 35" d="M474.517 1900.623l-5.3-3.476-9.409 12.871 7.392 4.775z" fill="#7e7cb9"/><path data-name="Trazado 36" d="M500.827 1897.1l-15.145 10.01a1.178 1.178 0 01-.64.189v18.801a1.179 1.179 0 00.64-.189l24.594-15.893z" fill="#b5b4d7"/><path data-name="Trazado 37" d="M485.994 1876.81a1.179 1.179 0 00-1.9 0l-14.951 20.442 15.257 9.858a1.179 1.179 0 001.28 0l.533-.345v-29.652z" fill="#dad9eb"/><path data-name="Trazado 38" d="M486.215 1877.975v-.862l-.221-.3a1.179 1.179 0 00-1.9 0l-14.951 20.439 5.335 3.448z" fill="#918fc3"/><path data-name="Trazado 39" d="M485.042 1876.327v30.973a1.178 1.178 0 00.64-.189l15.259-9.858-14.947-20.443a1.171 1.171 0 00-.952-.483z" fill="#dad9eb"/></g><path data-name="Trazado 40" d="M508.862 1948.49a1.318 1.318 0 001.823.392l17.885-11.554a2.5 2.5 0 00.661-3.572L520.635 1922l-2.935-4.011a1.319 1.319 0 00-2.129 1.556l2.107 2.882-31.36 20.261v-15.659l.034-.022 23.548-15.215 2.031 2.778a1.319 1.319 0 002.129-1.556l-2.76-3.783-9.337-12.766-14.947-20.442a2.5 2.5 0 00-1.867-1.014 1.235 1.235 0 00-.3 0 2.5 2.5 0 00-1.868 1.014l-14.944 20.442-9.337 12.766-9.333 12.769-8.598 11.756a2.5 2.5 0 00.661 3.572l42.215 27.272a2.492 2.492 0 001.355.4 2.5 2.5 0 001.355-.4l19.162-12.379a1.319 1.319 0 00-1.431-2.215l-17.768 11.479v-15.659l.037-.023 32.884-21.245 7.776 10.634-17.761 11.475a1.319 1.319 0 00-.392 1.823zm-22.544-68.953l12.692 17.356-12.692 8.2zm0 28.7l.037-.023 14.214-9.183 7.776 10.629-22.027 14.23zm-2.636 53.248l-40.697-26.292 7.776-10.635 32.883 21.242.037.024v15.661zm0-18.8l-31.362-20.259 7.78-10.634 23.545 15.214.037.023zm0-18.8l-4.1-2.648-17.927-11.577 7.776-10.634 14.214 9.183.037.024zm0-18.8l-1.329-.858-11.363-7.334 12.692-17.357z"/></g></svg>