<svg xmlns="http://www.w3.org/2000/svg" width="59" height="59"><defs><clipPath id="a"><path transform="translate(179 3524)" fill="#fff" d="M0 0h59v59H0z"/></clipPath></defs><g clip-path="url(#a)" transform="translate(-179 -3524)"><g transform="translate(179 3524)"><g data-name="Grupo 27" fill="#6c69af"><path data-name="Trazado 3806" d="M50.293 9.381c.125.031.248.062.372.1a9.247 9.247 0 016.215 5.389l.24.575a11.38 11.38 0 01.212 8.207l-1.778-.352-12.281-2.46-.8-4.709-.537-3.177A48.718 48.718 0 0029.5 11.49a48.7 48.7 0 00-12.441 1.462l-.537 3.179-.8 4.708L3.446 23.3l-1.779.356a11.386 11.386 0 01.213-8.206l.24-.575a9.245 9.245 0 016.214-5.399c.124-.033.248-.064.373-.1a91.425 91.425 0 0141.586.005z"/><path data-name="Trazado 3807" d="M50.334 46.915l-2.568-19.377a2.687 2.687 0 00-2.1-2.274l-3.835-.82a2.686 2.686 0 01-2.094-2.22l-.337-2.168a2.686 2.686 0 00-2.655-2.279h-14.5a2.686 2.686 0 00-2.645 2.279l-.333 2.169a2.686 2.686 0 01-2.094 2.219l-3.836.82a2.687 2.687 0 00-2.1 2.274l-2.57 19.376z"/></g><path data-name="Trazado 3808" d="M12.587 46.914l2.566-19.376a2.686 2.686 0 012.1-2.274l3.836-.82a2.687 2.687 0 002.094-2.219l.333-2.169a2.687 2.687 0 012.655-2.279h-3.92a2.686 2.686 0 00-2.651 2.278l-.333 2.169a2.687 2.687 0 01-2.094 2.219l-3.836.82a2.686 2.686 0 00-2.1 2.274l-2.57 19.377z" fill="#323266"/><path data-name="Trazado 3809" d="M53.021 52.023H5.979l.451-5.109h46.14z" fill="#6c69af"/><path data-name="Trazado 3810" d="M6.43 46.914l-.451 5.109h4.856l.451-5.109z" fill="#323266"/><circle data-name="Elipse 9" cx="9.119" cy="9.119" r="9.119" transform="translate(20.382 24.071)" fill="#fff"/><circle data-name="Elipse 10" cx="2.69" cy="2.69" r="2.69" transform="translate(26.81 30.499)" fill="#323266"/><path data-name="Trazado 3811" d="M58.046 15.06l-.24-.575a10.3 10.3 0 00-6.885-5.978l-.382-.1a71.678 71.678 0 00-4.965-1.063 1 1 0 10-.352 1.974 71.655 71.655 0 015.192 1.127 8.289 8.289 0 015.542 4.81l.24.575a10.39 10.39 0 01.648 2.241l-13.5-2.819-.416-2.467a1 1 0 00-.722-.8 49.678 49.678 0 00-12.708-1.5 49.657 49.657 0 00-12.708 1.5 1 1 0 00-.722.8l-.417 2.466-3.457.722a1 1 0 10.41 1.962l2.688-.562-.442 2.617-12.5 2.5a10.364 10.364 0 01-.343-2.342l6.632-1.385a1 1 0 10-.41-1.962l-6.078 1.27a10.4 10.4 0 01.648-2.24l.24-.575a8.289 8.289 0 015.546-4.811l.348-.089h.015a90.479 90.479 0 0132.431-1.62 1 1 0 00.256-1.988A92.572 92.572 0 008.451 8.411l-.369.094a10.3 10.3 0 00-6.889 5.979l-.24.575a12.363 12.363 0 00-.231 8.929 1 1 0 001.141.646l14.058-2.813a1 1 0 00.792-.816l1.226-7.25A48.932 48.932 0 0129.5 12.492a48.946 48.946 0 0111.561 1.264l1.224 7.249a1 1 0 00.792.816l12.229 2.446.052.012 1.778.355a1 1 0 001.14-.646 12.359 12.359 0 00-.23-8.928zM55.8 22.325l-.052-.012-11.6-2.321-.442-2.617 13.282 2.775a10.36 10.36 0 01-.343 2.343z"/><path data-name="Trazado 3812" d="M53.569 46.826a1 1 0 00-1-.914h-1.357l-.753-5.686a1 1 0 10-1.987.263l.718 5.422H9.81l2.417-18.241a1.688 1.688 0 011.317-1.426l3.836-.82a3.708 3.708 0 002.875-3.047l.333-2.169a1.675 1.675 0 011.664-1.428h14.5a1.675 1.675 0 011.664 1.429l.333 2.168a3.708 3.708 0 002.875 3.048l3.835.82a1.688 1.688 0 011.317 1.426l1.26 9.511a1 1 0 101.987-.263l-1.26-9.511a3.7 3.7 0 00-2.886-3.123l-3.835-.82a1.693 1.693 0 01-1.313-1.391l-.336-2.174a3.669 3.669 0 00-3.646-3.129h-.366v-1.308a1 1 0 10-2 0v1.312h-9.757v-1.312a1 1 0 10-2 0v1.312h-.367a3.669 3.669 0 00-3.651 3.125l-.333 2.169a1.693 1.693 0 01-1.312 1.391l-3.836.82a3.7 3.7 0 00-2.886 3.123l-2.451 18.5H6.43a1 1 0 00-1 .914l-.451 5.109a1 1 0 001 1.091h7.51a1 1 0 000-2H7.074l.274-3.1h44.3l.274 3.1H16.83a1 1 0 000 2h36.191a1 1 0 001-1.091z"/><path data-name="Trazado 3813" d="M29.5 23.069a10.121 10.121 0 1010.121 10.12A10.132 10.132 0 0029.5 23.069zm0 18.237a8.116 8.116 0 118.116-8.116 8.125 8.125 0 01-8.116 8.115z"/><path data-name="Trazado 3814" d="M29.5 29.5a3.692 3.692 0 103.692 3.692A3.7 3.7 0 0029.5 29.5zm0 5.38a1.688 1.688 0 111.688-1.688 1.69 1.69 0 01-1.688 1.685z"/></g></g></svg>