<svg xmlns="http://www.w3.org/2000/svg" width="90" height="90"><defs><clipPath id="a"><path fill="#fff" stroke="#707070" transform="translate(501 1875)" d="M0 0h90v90H0z"/></clipPath></defs><g transform="translate(-501 -1875)" clip-path="url(#a)"><g data-name="Grupo 47" fill-rule="evenodd"><path data-name="Trazado 3956" d="M520.982 1930.036c-5.582.291-15.128 3.456-14.207 10.064 2.331 16.776-16.025 22.161 8.4 22.161 12.289 0 20.035-5.386 21.206-16.69l-3.314-12.812z" fill="#fe636e"/><path data-name="Trazado 3957" d="M525.376 1934.472c-2.59.136-7.024 1.6-6.6 4.677 1.086 7.792-7.442 10.289 3.905 10.289 5.709 0 9.31-2.5 9.853-7.752l-1.255-6.33z" fill="#ffd659"/><path data-name="Trazado 3958" d="M530.98 1946.068c-3.318 6.034-9.9 8.943-18.929 8.943a69.069 69.069 0 01-8.11-.357c-2.61 5.546-3.881 7.611 11.238 7.611 12.289 0 20.035-5.386 21.206-16.69l-2.79-2.814-.952-.96c-.085.327-.174.643-.274.96a8.285 8.285 0 01-1.39 3.306z" fill="#fb2a39"/><path data-name="Trazado 3959" d="M529.934 1939.069c-1.22 3.768-4.548 5.572-9.4 5.572-.971 0-1.793-.015-2.491-.055-1.43 3.577-3.477 4.853 4.638 4.853 3.786 0 6.645-1.1 8.3-3.371a8.288 8.288 0 001.39-3.306c.07-.347.124-.7.164-1.075z" fill="#ffbf00"/><path data-name="Trazado 3960" d="M527.737 1920.842l-7.283 4.27c-1.464.859-1.22 3.16-.055 4.341l.583.583 4.393 4.436 7.158 7.215 3.851 3.889 2.008 2.024c1.171 1.176 3.452 1.417 4.3-.055l4.229-7.35-4.783-18.61z" fill="#6a67ac"/><path data-name="Trazado 3961" d="M586.751 1877.961c-3.5-.648-9.883.03-17.654 2.683l3.5 12.962 14.2 4.843c2.64-7.888 3.3-14.349 2.635-17.856-.389-2.045-.638-2.256-2.68-2.633z" fill="#6a67ac"/><path data-name="Trazado 3962" d="M546.741 1892.39c-9.724-3.542-17.255-1.929-24.892 5.044-3.542 3.437-9.435 7.953-4.568 12.862l6.052 6.1 17.395-8.863z" fill="#b5b4d7"/><path data-name="Trazado 3963" d="M575.14 1921.028l-16.349 6.817-7.457 16.8 6.052 6.1c4.867 4.909 9.345-1.035 12.752-4.607 3.532-3.938 9.823-11.438 5.002-25.11z" fill="#b5b4d7"/><path data-name="Trazado 3964" d="M546.741 1892.39a99.875 99.875 0 00-23.408 24.01l4.4 4.441 9.594 9.676 9.594 9.676 3.208 3.235 1.2 1.211a99.772 99.772 0 0023.811-23.612 89.275 89.275 0 0010.277-18.79 74.74 74.74 0 001.38-3.788l-17.697-17.805a86.134 86.134 0 00-22.359 11.746z" fill="#ececec"/><path data-name="Trazado 3965" d="M568.071 1899.62a12.094 12.094 0 00-17.206.221 12.346 12.346 0 00-.219 17.353 12.094 12.094 0 0017.206-.221 12.346 12.346 0 00.219-17.353z" fill="#dad9eb"/><path data-name="Trazado 3966" d="M585.65 1877.81c.344 3.678-.428 9.6-2.795 16.67l3.94 3.969c2.64-7.888 3.3-14.349 2.635-17.856-.388-2.045-.638-2.256-2.68-2.633a11.3 11.3 0 00-1.1-.15z" fill="#323266"/><path data-name="Trazado 3967" d="M581.471 1898.273a89.172 89.172 0 01-10.277 18.79 96.363 96.363 0 01-6.72 8.41 99.543 99.543 0 01-8.289 8.24 103.785 103.785 0 01-8.785 6.959l2.735 2.758 1.2 1.211a99.772 99.772 0 0023.805-23.614 89.274 89.274 0 0010.277-18.79 74.74 74.74 0 001.38-3.788l-3.94-3.969a70.175 70.175 0 01-.832 2.341c-.174.477-.359.965-.553 1.452z" fill="#cecece"/><path data-name="Trazado 3968" d="M542.128 1935.356l-4.228 7.351c-.852 1.472-3.133 1.231-4.3.055l2.79 2.814 2.002 2.024c1.171 1.176 3.452 1.417 4.3-.055l4.229-7.35z" fill="#323266"/><path data-name="Trazado 3969" d="M563.623 1896.807a12.478 12.478 0 01-13.829 19.433 11.739 11.739 0 00.852.954 12.094 12.094 0 0017.206-.221 12.346 12.346 0 00.219-17.353 11.65 11.65 0 00-4.448-2.813z" fill="#918fc3"/><path data-name="Trazado 3970" d="M575.14 1921.028q-1.2 1.7-2.521 3.386c1.136 9.581-3.661 15.268-6.58 18.524-2.8 2.929-6.311 7.456-10.172 6.275l1.519 1.532c4.867 4.909 9.345-1.035 12.752-4.607 3.532-3.939 9.823-11.44 5-25.11z" fill="#7e7cb9"/><path data-name="Trazado 3971" d="M540.579 1890.8a99.887 99.887 0 00-21.046 21.767l3.8 3.833a99.881 99.881 0 0123.408-24.01 30.455 30.455 0 00-6.162-1.59z" fill="#7e7cb9"/></g><path data-name="Trazado 3972" d="M590.736 1880.346c-.486-2.557-1.151-3.212-3.743-3.691-4.477-.828-14.041.231-26.264 5.945a1.329 1.329 0 001.125 2.4 77.776 77.776 0 016.888-2.832l16.532 16.632q-.5 1.435-1.093 2.947c-3.631 9.2-12.682 26.657-32.7 41.152l-12.281-12.381 5.861-5.907a1.328 1.328 0 10-1.886-1.871l-5.846 5.892-12.269-12.377a97.046 97.046 0 0131.085-28.314 1.328 1.328 0 00-1.3-2.315 92.3 92.3 0 00-8.3 5.286c-9.794-3.371-17.71-1.65-25.585 5.541l-.029.028c-.336.326-.692.661-1.07 1.015-2.533 2.38-5.686 5.341-5.747 8.808a6.777 6.777 0 002.231 4.928l6.052 6.1 3.2 3.226-5.806 3.4a3.388 3.388 0 00-1.636 2.554 4.719 4.719 0 00.367 2.449c-4.133.66-8.864 2.47-11.333 5.462a7.31 7.31 0 00-1.721 5.857c.862 6.2-1.3 10.776-2.87 14.116-1.25 2.639-2.23 4.719-1.098 6.504 1.279 2.017 4.732 2.7 13.682 2.7 6.527 0 11.768-1.473 15.578-4.378a17.683 17.683 0 006.537-10.837l.157.159a4.78 4.78 0 003.305 1.357 4.136 4.136 0 00.533-.034 3.372 3.372 0 002.558-1.653l3.361-5.841 1.981 2 7.253 7.315a6.726 6.726 0 004.8 2.256h.1c3.449-.061 6.388-3.244 8.75-5.8.352-.381.684-.74 1.007-1.079l.028-.03c3.087-3.443 10.254-11.437 5.488-25.787a89.72 89.72 0 0010.034-18.523c4.148-10.525 4.831-18.46 4.084-22.379zm-73.973 26.005c.041-2.345 2.741-4.881 4.91-6.918.38-.357.74-.695 1.086-1.031 6.673-6.087 13.11-7.808 21.14-5.537a102.169 102.169 0 00-20.736 21.477l-4.939-4.981a4.193 4.193 0 01-1.461-3.01zm-1.584 54.586a57 57 0 01-8.809-.473c-2.023-.343-2.513-.808-2.629-.992-.347-.547.466-2.27 1.252-3.936 1.621-3.437 4.069-8.63 3.1-15.616a4.692 4.692 0 011.139-3.8c2.235-2.708 7.222-4.381 11.234-4.718l2.18 2.2a8.409 8.409 0 00-4.224 2.455 4.142 4.142 0 00-.959 3.275 10.209 10.209 0 01-1.271 6.155c-.616 1.306-1.2 2.54-.465 3.7.76 1.2 2.45 1.583 6.956 1.583 5.561 0 9.252-2.249 10.638-6.4l1.669 1.683c-1.267 9.875-7.925 14.884-19.809 14.884zm4.913-21.969a1.491 1.491 0 01.375-1.217 7.382 7.382 0 014.405-1.9l6.257 6.311c-.65 3.947-3.488 5.949-8.448 5.949a17.125 17.125 0 01-4.587-.345c.1-.3.323-.774.5-1.144a12.8 12.8 0 001.5-7.653zm21.455 7.911a.717.717 0 01-.6.346 2.082 2.082 0 01-1.612-.561l-5.808-5.858a1.307 1.307 0 00-.107-.107l-11.438-11.537a1.344 1.344 0 00-.123-.124l-.514-.519a2.147 2.147 0 01-.564-1.653.73.73 0 01.345-.608l6.394-3.749 8.88 8.951 8.873 8.949zm27.617-1.643c-.333.35-.668.712-1.022 1.1-2.019 2.186-4.531 4.906-6.845 4.947a4.112 4.112 0 01-2.966-1.469l-4.958-5a101.442 101.442 0 0021-20.5c.094-.124.186-.249.279-.374 3.112 11.679-2.623 18.1-5.49 21.3zm2.4-64c6.578-2.02 11.922-2.53 14.95-1.97a4.262 4.262 0 011.276.338 3.475 3.475 0 01.34 1.237c.514 2.7.208 8.015-1.93 15.119z"/><path data-name="Trazado 3973" d="M562.171 1918.891a1.328 1.328 0 00.761 2.545 13.888 13.888 0 005.863-3.528 13.694 13.694 0 00.219-19.224 13.06 13.06 0 00-9.345-3.878 13.825 13.825 0 00-9.969 23.324 13.1 13.1 0 005.5 3.311 1.329 1.329 0 00.768-2.544 10.293 10.293 0 01-4.377-2.638 11.169 11.169 0 018.08-18.8 10.423 10.423 0 017.458 3.092 11.03 11.03 0 01-.219 15.482 11.226 11.226 0 01-4.737 2.853z"/></g></svg>