<svg xmlns="http://www.w3.org/2000/svg" width="90" height="90"><defs><clipPath id="a"><path fill="#fff" stroke="#707070" transform="translate(501 1875)" d="M0 0h90v90H0z"/></clipPath></defs><g transform="translate(-501 -1875)" clip-path="url(#a)"><g data-name="Grupo 73"><g data-name="Grupo 70"><g data-name="Grupo 69"><path data-name="Trazado 4010" d="M533.265 1925.053a3.088 3.088 0 01-.67-.074c-14.428-3.206-20.595-12.379-23.237-19.514a37.018 37.018 0 01-2.214-14.7 3.076 3.076 0 013.064-2.8h15.215a3.116 3.116 0 013.169 3.335 3.076 3.076 0 01-3.065 2.815h-10.941a1.219 1.219 0 00-1.214 1.334 31.242 31.242 0 001.828 8.083c3.1 8.168 9.4 13.368 18.73 15.441a3.076 3.076 0 01-.665 6.08z" fill="#514f83"/></g></g><g data-name="Grupo 72"><g data-name="Grupo 71"><path data-name="Trazado 4011" d="M558.735 1925.053a3.088 3.088 0 00.67-.074c14.428-3.206 20.595-12.379 23.237-19.514a37.019 37.019 0 002.214-14.7 3.076 3.076 0 00-3.064-2.8h-15.215a3.116 3.116 0 00-3.169 3.335 3.076 3.076 0 003.065 2.815h10.941a1.219 1.219 0 011.214 1.334 31.242 31.242 0 01-1.828 8.083c-3.1 8.168-9.4 13.368-18.73 15.441a3.076 3.076 0 00.665 6.08z" fill="#514f83"/></g></g></g><g data-name="Grupo 74"><path data-name="Trazado 4012" d="M566.151 1963.682h-40.3a1.137 1.137 0 01-1.137-1.137v-6.193a1.137 1.137 0 011.137-1.137h40.3a1.137 1.137 0 011.137 1.137v6.193a1.137 1.137 0 01-1.137 1.137z" fill="#5a5a5a"/></g><g data-name="Grupo 75"><path data-name="Trazado 4013" d="M567.288 1956.351v6.193a1.137 1.137 0 01-1.137 1.137h-3.516a1.137 1.137 0 001.137-1.137v-6.193a1.138 1.138 0 00-1.137-1.137h3.515a1.138 1.138 0 011.138 1.137z" fill="#444"/></g><g data-name="Grupo 76"><path data-name="Trazado 4014" d="M560.034 1955.214h-28.068v-4.08a4.387 4.387 0 014.387-4.387h19.294a4.387 4.387 0 014.387 4.387z" fill="#9c9c9c"/></g><g data-name="Grupo 77"><path data-name="Trazado 4015" d="M560.034 1951.134v4.08h-3.458v-4.08a4.388 4.388 0 00-4.387-4.387h3.457a4.387 4.387 0 014.388 4.387z" fill="#838383"/></g><g data-name="Grupo 78"><path data-name="Trazado 4016" d="M551.709 1930.412l1.964-3.242h-15.345l1.964 3.242a15.043 15.043 0 012.108 7.761 15.483 15.483 0 01-.811 4.964l-1.225 3.61h11.272l-1.225-3.61a15.483 15.483 0 01-.811-4.964 15.046 15.046 0 012.109-7.761z" fill="#908ec1"/></g><g data-name="Grupo 79"><path data-name="Trazado 4017" d="M550.141 1934.1a15.634 15.634 0 00.271 9.04l1.225 3.61h-3.575l-1.225-3.61a15.634 15.634 0 01-.271-9.04 14.436 14.436 0 011.568-3.684l1.966-3.247h3.573l-1.963 3.243a14.374 14.374 0 00-1.569 3.688z" fill="#514f83"/></g><g data-name="Grupo 80"><path data-name="Trazado 4018" d="M546 1929.861a23.1 23.1 0 01-23.1-23.1v-23.11h46.2v23.1a23.1 23.1 0 01-23.1 23.11z" fill="#6a67ab"/></g><g data-name="Grupo 81"><path data-name="Trazado 4019" d="M569.1 1883.651v23.105a23.1 23.1 0 01-23.1 23.104 23.8 23.8 0 01-1.953-.081 23.107 23.107 0 0021.153-23.023v-23.105z" fill="#323266"/></g><g data-name="Grupo 82"><path data-name="Trazado 4020" d="M570.644 1883.651h-49.288a1.626 1.626 0 01-1.626-1.625v-4.082a1.626 1.626 0 011.626-1.626h49.288a1.626 1.626 0 011.626 1.626v4.082a1.626 1.626 0 01-1.626 1.625z" fill="#8c8abc"/></g><g data-name="Grupo 83"><path data-name="Trazado 4021" d="M572.269 1877.943v4.082a1.626 1.626 0 01-1.626 1.626h-3.736a1.626 1.626 0 001.626-1.626v-4.082a1.627 1.627 0 00-1.626-1.626h3.737a1.627 1.627 0 011.625 1.626z" fill="#514f83"/></g><g data-name="Grupo 87"><g data-name="Grupo 84"><path data-name="Trazado 4022" d="M547.635 1896.936l1.691 3.425a1.824 1.824 0 001.373 1l3.78.549a1.824 1.824 0 011.011 3.111l-2.735 2.667a1.824 1.824 0 00-.525 1.612l.646 3.765a1.824 1.824 0 01-2.646 1.922l-3.381-1.777a1.824 1.824 0 00-1.7 0l-3.379 1.777a1.824 1.824 0 01-2.646-1.922l.646-3.765a1.824 1.824 0 00-.525-1.614l-2.735-2.667a1.824 1.824 0 011.011-3.111l3.78-.549a1.823 1.823 0 001.373-1l1.691-3.425a1.824 1.824 0 013.27 0z" fill="#f9f7f8"/></g><g data-name="Grupo 85"><path data-name="Trazado 4023" d="M552.755 1907.686a1.825 1.825 0 00-.526 1.614l.647 3.765a1.824 1.824 0 01-2.647 1.923l-1.39-.731a2.12 2.12 0 00.341-1.58l-.763-4.449a2.157 2.157 0 01.62-1.907l3.232-3.15a2.121 2.121 0 00.652-1.489l1.557.227a1.824 1.824 0 011.011 3.111z" fill="#efedef"/></g><g data-name="Grupo 86"><path data-name="Trazado 4024" d="M586.169 1890.649a4.372 4.372 0 00-4.377-4h-11.369v-1.679h.221a2.948 2.948 0 002.944-2.944v-4.082a2.948 2.948 0 00-2.944-2.944h-33.462a1.319 1.319 0 000 2.637h33.462a.308.308 0 01.308.307v4.082a.308.308 0 01-.308.307h-49.288a.308.308 0 01-.308-.307v-4.082a.308.308 0 01.308-.307H531a1.319 1.319 0 000-2.637h-9.644a2.948 2.948 0 00-2.944 2.944v4.082a2.948 2.948 0 002.944 2.944h.221v1.675h-11.369a4.372 4.372 0 00-4.377 4 38.482 38.482 0 002.291 15.277c2.662 7.2 8.77 16.393 22.763 20A24.4 24.4 0 00538.5 1930l.664 1.1a13.64 13.64 0 011.917 7.078 14.1 14.1 0 01-.741 4.541l-.921 2.715h-3.066a5.712 5.712 0 00-5.706 5.706v2.76h-4.8a2.459 2.459 0 00-2.456 2.456v6.193a2.458 2.458 0 002.458 2.451h40.3a2.458 2.458 0 002.456-2.456v-6.192a2.459 2.459 0 00-2.454-2.452h-4.8v-2.765a5.712 5.712 0 00-5.706-5.706h-3.064l-.921-2.715a14.1 14.1 0 01-.741-4.541 13.641 13.641 0 011.917-7.078l.664-1.095a24.4 24.4 0 007.616-4.075c13.993-3.608 20.1-12.8 22.763-20a38.482 38.482 0 002.291-15.273zm-64.1 20.974a22.387 22.387 0 01-5.629-8.558 29.588 29.588 0 01-1.741-7.631h6.882v11.322a24.434 24.434 0 00.484 4.867zm-11.474-6.615a35.556 35.556 0 01-2.138-14.124 1.749 1.749 0 011.751-1.6h11.369v3.516h-6.991a2.537 2.537 0 00-2.526 2.775 32.274 32.274 0 001.91 8.425 24.462 24.462 0 009.455 12.075 24.431 24.431 0 003.333 5.705 28.339 28.339 0 01-16.163-16.772zm55.375 51.525v5.831h-39.94v-5.831zm-10.323-8.468a3.073 3.073 0 013.069 3.069v2.766h-25.432v-2.765a3.073 3.073 0 013.069-3.069zm-6.484-4.5l.634 1.868H542.2l.634-1.868a16.734 16.734 0 00.881-5.388 16.447 16.447 0 00-1.682-7.317 24.456 24.456 0 007.928 0 16.447 16.447 0 00-1.682 7.317 16.735 16.735 0 00.881 5.388zM546 1928.542a21.811 21.811 0 01-21.786-21.786v-21.786h43.572v21.786A21.811 21.811 0 01546 1928.542zm35.405-23.534a28.34 28.34 0 01-16.165 16.772 24.437 24.437 0 003.338-5.717 24.119 24.119 0 008.56-9.966 1.318 1.318 0 10-2.383-1.128 21.787 21.787 0 01-4.822 6.662 24.433 24.433 0 00.49-4.875v-11.322h6.882a31.32 31.32 0 01-.648 4 1.318 1.318 0 002.569.591 34.048 34.048 0 00.714-4.454 2.537 2.537 0 00-2.526-2.771h-6.991v-3.518h11.369a1.749 1.749 0 011.751 1.6 35.568 35.568 0 01-2.138 14.125z"/><path data-name="Trazado 4025" d="M554.669 1900.6l-3.78-.549a.506.506 0 01-.381-.276l-1.691-3.425a3.142 3.142 0 00-5.635 0l-1.691 3.425a.505.505 0 01-.381.276l-3.78.549a3.142 3.142 0 00-1.741 5.359l2.735 2.666a.505.505 0 01.145.448l-.646 3.765a3.142 3.142 0 004.559 3.312l3.381-1.778a.5.5 0 01.47 0l3.381 1.778a3.142 3.142 0 004.559-3.312l-.646-3.765a.5.5 0 01.145-.447l2.736-2.667a3.142 3.142 0 00-1.739-5.359zm-.1 3.471l-2.736 2.667a3.142 3.142 0 00-.9 2.781l.646 3.765a.505.505 0 01-.733.533l-3.381-1.778a3.141 3.141 0 00-2.924 0l-3.381 1.778a.506.506 0 01-.734-.533l.646-3.765a3.141 3.141 0 00-.9-2.781l-2.742-2.663a.505.505 0 01.28-.862l3.78-.549a3.142 3.142 0 002.366-1.719l1.691-3.425a.505.505 0 01.906 0l1.691 3.425a3.141 3.141 0 002.366 1.719l3.78.549a.506.506 0 01.28.862z"/></g></g></g></svg>