<svg xmlns="http://www.w3.org/2000/svg" width="157" height="157"><defs><clipPath id="a"><path transform="translate(-.237)" fill="#fff" d="M0 0h107v107H0z"/></clipPath></defs><g transform="translate(.237)"><circle cx="78.5" cy="78.5" r="78.5" transform="translate(-.237)" fill="#fff"/><g transform="translate(25 25)" clip-path="url(#a)"><path data-name="Trazado 89" d="M73.904 106.164H11.816a8.744 8.744 0 01-7.572-13.118l21.128-36.6 11.442-19.814a6.982 6.982 0 0112.092 0l11.442 19.819 21.13 36.595a8.744 8.744 0 01-7.572 13.118zm0 0" fill="#5b5b68"/><path data-name="Trazado 90" d="M42.859 33.142c-1.02 0-2.041 1.165-2.626 3.49l-4.968 19.819-9.177 36.6c-1.463 5.831.364 13.118 3.288 13.118h-17.56a8.744 8.744 0 01-7.572-13.123l21.128-36.6 11.442-19.814a6.922 6.922 0 016.045-3.49zm0 0" fill="#40404c"/><path data-name="Trazado 91" d="M57.207 60.205l-5.963-2.149-3.066 4.1a6.64 6.64 0 01-10.637 0l-2.776-3.715-.289-.388-5.963 2.152a2.606 2.606 0 01-3.141-3.756l11.442-19.817a6.981 6.981 0 0112.092 0l11.442 19.819a2.606 2.606 0 01-3.141 3.754zm0 0" fill="#e4e4ef"/><path data-name="Trazado 92" d="M42.859 33.142c-1.02 0-2.041 1.165-2.626 3.49l-4.968 19.819-.5 2-.289-.388-5.963 2.142a2.606 2.606 0 01-3.141-3.756l11.442-19.817a6.922 6.922 0 016.045-3.49zm0 0" fill="#cacadb"/><path data-name="Trazado 93" d="M98.372 106.164H58.887a5.561 5.561 0 01-4.817-8.342l13.436-23.27 7.278-12.61a4.441 4.441 0 017.691 0l7.277 12.6 13.437 23.28a5.562 5.562 0 01-4.817 8.342zm0 0" fill="#5b5b68"/><path data-name="Trazado 94" d="M78.555 59.728c-.781.046-1.553.783-2 2.217l-3.931 12.598-7.25 23.279c-1.154 3.708.289 8.342 2.6 8.342h-9.087a5.561 5.561 0 01-4.817-8.342l13.435-23.27 7.279-12.609a4.4 4.4 0 013.771-2.217zm0 0" fill="#40404c"/><path data-name="Trazado 95" d="M87.753 76.943l-3.793-1.368-2.929 3.918a3 3 0 01-4.8 0l-2.933-3.922-1.113.4-2.68.967a1.658 1.658 0 01-2-2.386l7.276-12.6a4.4 4.4 0 013.751-2.217h.02a4.4 4.4 0 013.92 2.217l7.277 12.6a1.658 1.658 0 01-1.996 2.391zm0 0" fill="#e4e4ef"/><path data-name="Trazado 96" d="M78.545 59.728c-.779.051-1.546.788-1.99 2.217l-3.929 12.598-.442 1.42-2.68.967a1.659 1.659 0 01-2-2.386l7.276-12.6a4.4 4.4 0 013.751-2.217zm0 0" fill="#cacadb"/><path data-name="Trazado 97" d="M66.188 23.973H42.86V3.695h23.328l-5.178 10.14zm0 0" fill="#6c69af"/><path data-name="Trazado 98" d="M104.589 97.016L83.875 61.135a6.059 6.059 0 00-10.493 0l-4.23 7.331-18.846-32.644a8.5 8.5 0 00-5.829-4.146V25.59h21.711a1.616 1.616 0 001.441-2.353l-4.8-9.4 4.8-9.4a1.619 1.619 0 00-1.441-2.361h-21.71V.834a1.618 1.618 0 00-3.236 0v30.843a8.5 8.5 0 00-5.829 4.146L11.122 77.898a1.616 1.616 0 00.593 2.208 1.594 1.594 0 00.807.219 1.615 1.615 0 001.4-.809l10.8-18.7a4.173 4.173 0 004.34.913l4.836-1.743 2.349 3.143a8.256 8.256 0 0013.226 0l2.35-3.143 4.836 1.744a4.174 4.174 0 004.34-.913l6.284 10.886-14.615 25.313a7.117 7.117 0 000 7.181c.071.121.145.238.22.352H11.817a7.128 7.128 0 01-6.172-10.695l4.793-8.292a1.618 1.618 0 10-2.8-1.618l-4.8 8.292a10.363 10.363 0 008.975 15.545h74a1.618 1.618 0 100-3.236H58.871a3.942 3.942 0 01-3.406-5.915l11.8-20.433a3.244 3.244 0 002.782.263l2.665-.962 2.213 2.962a4.616 4.616 0 007.4 0l2.213-2.962 2.666.962a3.248 3.248 0 002.783-.263l11.8 20.433a3.944 3.944 0 01-3.415 5.917h-6.081a1.618 1.618 0 100 3.236h6.081a7.181 7.181 0 006.216-10.767zm-60.112-91.7h19.068l-3.976 7.785a1.627 1.627 0 000 1.474l3.976 7.784H44.477zm14.372 53.073a.951.951 0 01-1.094.3l-5.963-2.153a1.619 1.619 0 00-1.845.552l-3.066 4.1a5.022 5.022 0 01-8.045 0l-3.066-4.1a1.618 1.618 0 00-1.844-.552l-5.965 2.149a.989.989 0 01-1.191-1.424l11.445-19.819a5.308 5.308 0 014.612-2.681h.064a5.308 5.308 0 014.612 2.679L58.95 57.268a.948.948 0 01-.1 1.122zM88.33 75.423a.082.082 0 01-.028-.008l-3.792-1.366a1.619 1.619 0 00-1.845.552l-2.927 3.922a1.38 1.38 0 01-2.212 0l-2.931-3.922a1.617 1.617 0 00-1.845-.552l-3.794 1.367a.169.169 0 00-.022.008.114.114 0 01-.037-.039.207.207 0 01.011-.026l7.277-12.6a2.822 2.822 0 014.889 0l7.278 12.607c0 .008.008.017.011.017a.152.152 0 01-.032.045zm0 0"/></g></g></svg>