<svg xmlns="http://www.w3.org/2000/svg" width="90" height="90"><defs><clipPath id="a"><path fill="#fff" stroke="#707070" transform="translate(501 1875)" d="M0 0h90v90H0z"/></clipPath></defs><g transform="translate(-501 -1875)" clip-path="url(#a)"><g data-name="Grupo 48"><path data-name="Trazado 3974" d="M502.14 1889.013h87.72v25.025h-87.72z" fill="#afafaf"/></g><g data-name="Grupo 49"><path data-name="Trazado 3975" d="M502.14 1914.038h87.72v25.025h-87.72z" fill="#efefef"/></g><g data-name="Grupo 50"><path data-name="Trazado 3976" d="M502.14 1939.063h87.72v25.025h-87.72z" fill="#afafaf"/></g><g data-name="Grupo 59"><g data-name="Grupo 51"><path data-name="Trazado 3977" d="M544.157 1882.463l-4.282 6.55H524.64l4.282-6.55-4.282-6.55h15.235z" fill="#6a67ac"/></g><g data-name="Grupo 52"><path data-name="Trazado 3978" d="M544.158 1883.374h-11.289a.912.912 0 010-1.824h11.289a.912.912 0 010 1.824z" fill="#323266"/></g><g data-name="Grupo 53"><path data-name="Trazado 3979" d="M559.391 1882.463l-4.278 6.55h-15.238l4.282-6.55-4.282-6.55h15.238z" fill="#918fc3"/></g><g data-name="Grupo 54"><path data-name="Trazado 3980" d="M559.39 1883.374h-15.232a.912.912 0 010-1.824h15.232a.912.912 0 010 1.824z" fill="#514f83"/></g><g data-name="Grupo 55"><path data-name="Trazado 3981" d="M574.626 1882.463l-4.282 6.55h-15.231l4.278-6.55-4.278-6.55h15.231z" fill="#b5b4d7"/></g><g data-name="Grupo 56"><path data-name="Trazado 3982" d="M574.624 1883.374h-15.235a.912.912 0 010-1.824h15.235a.912.912 0 110 1.824z" fill="#7e7cb9"/></g><g data-name="Grupo 57"><path data-name="Trazado 3983" d="M589.86 1882.463l-4.282 6.55h-15.234l4.282-6.55-4.282-6.55h15.234z" fill="#dad9eb"/></g><g data-name="Grupo 58"><path data-name="Trazado 3984" d="M584.754 1883.374h-10.13a.912.912 0 110-1.824h10.13a.912.912 0 010 1.824z" fill="#918fc3"/></g></g><g data-name="Grupo 60"><circle data-name="Elipse 11" cx="7.284" cy="7.284" r="7.284" transform="translate(506.366 1894.242)" fill="#b5b4d7"/></g><g data-name="Grupo 61"><circle data-name="Elipse 12" cx="7.284" cy="7.284" r="7.284" transform="translate(506.366 1919.267)" fill="#918fc3"/></g><g data-name="Grupo 62"><circle data-name="Elipse 13" cx="7.284" cy="7.284" r="7.284" transform="translate(506.366 1944.292)" fill="#6966ab"/></g><g data-name="Grupo 63"><circle data-name="Elipse 14" cx="2.723" cy="2.723" r="2.723" transform="translate(529.313 1923.828)" fill="#918fc3"/></g><g data-name="Grupo 64"><circle data-name="Elipse 15" cx="2.723" cy="2.723" r="2.723" transform="translate(546 1898.803)" fill="#b5b4d7"/></g><g data-name="Grupo 65"><circle data-name="Elipse 16" cx="2.723" cy="2.723" r="2.723" transform="translate(577.379 1923.828)" fill="#918fc3"/></g><g data-name="Grupo 66"><circle data-name="Elipse 17" cx="2.723" cy="2.723" r="2.723" transform="translate(562.145 1948.853)" fill="#6966ab"/></g><g data-name="Grupo 67" transform="translate(499.313 1873.313)"><path data-name="Trazado 3985" d="M90.547 14.788h-2.6l3.36-5.14a.912.912 0 000-1L87.028 2.1a.912.912 0 00-.763-.413h-49.63a.912.912 0 000 1.824h3.432l3.687 5.639-3.688 5.639H2.827a.912.912 0 100 1.824h87.72a.912.912 0 000-1.824zm-35.244 0H42.248l3.359-5.139a.881.881 0 00.065-.141.9.9 0 000-.717.911.911 0 00-.065-.141l-3.359-5.14H55.3l3.686 5.639zm5.539-5.14a.912.912 0 000-1l-3.36-5.14h13.055l3.686 5.642-3.686 5.639H57.482zm11.874 5.14l3.36-5.14a.912.912 0 000-1l-3.36-5.14h13.056l3.686 5.642-3.686 5.639H72.716z"/><circle data-name="Elipse 18" cx=".912" cy=".912" r=".912" transform="translate(64.103 39.813)"/><path data-name="Trazado 3986" d="M90.547 39.813H68.663a.912.912 0 000 1.824h21.884a.912.912 0 000-1.824z"/><path data-name="Trazado 3987" d="M90.547 89.863H2.827a.912.912 0 100 1.824h87.72a.912.912 0 000-1.824z"/><circle data-name="Elipse 19" cx=".912" cy=".912" r=".912" transform="translate(23.982 64.838)"/><path data-name="Trazado 3988" d="M90.547 64.838H74.794l4.944-8.122a3.648 3.648 0 10-1.556-.951l-5.523 9.073H62.182L54.7 41.637h6.668a.912.912 0 100-1.824h-7.257l-2.753-8.537a3.637 3.637 0 10-4.658-.646l-6.124 9.184H2.827a.912.912 0 000 1.824h36.535l-5.448 8.171a3.649 3.649 0 101.516 1.014l6.124-9.184h11.23l7.483 23.2H28.541a.912.912 0 100 1.824h32.314l2.753 8.537a3.635 3.635 0 104.553.537l5.523-9.073h16.863a.912.912 0 000-1.824zm-9.758-13.411a1.811 1.811 0 11-1.811 1.811 1.813 1.813 0 011.811-1.811zm-48.066 3.622a1.811 1.811 0 111.811-1.811 1.813 1.813 0 01-1.811 1.811zM49.41 26.4a1.811 1.811 0 11-1.81 1.813 1.813 1.813 0 011.81-1.813zm-6.64 13.413l5.448-8.171a3.471 3.471 0 001.4.194l2.582 7.977h-9.43zm22.785 40.26a1.811 1.811 0 111.811-1.811 1.813 1.813 0 01-1.811 1.812zm1.05-5.289a3.466 3.466 0 00-1.261-.145l-2.573-7.977h8.778z"/><path data-name="Trazado 3989" d="M1.915 65.75a.912.912 0 00.912.912h18.419a.912.912 0 100-1.824H2.827a.912.912 0 00-.912.912z"/><path data-name="Trazado 3990" d="M25.327 3.511h4.012a.912.912 0 000-1.824h-4.012a.912.912 0 000 1.824z"/><circle data-name="Elipse 20" cx=".912" cy=".912" r=".912" transform="translate(32.075 1.687)"/><path data-name="Trazado 3991" d="M11.784 27.544a.912.912 0 00.912-.912v-.319a.912.912 0 10-1.824 0v.319a.912.912 0 00.912.912z"/><path data-name="Trazado 3992" d="M16.89 27.544a.912.912 0 00.912-.912v-.319a.912.912 0 10-1.824 0v.319a.912.912 0 00.912.912z"/><path data-name="Trazado 3993" d="M17.716 30.159a.912.912 0 10-1.671-.73 1.864 1.864 0 01-3.415 0 .912.912 0 10-1.671.729 3.689 3.689 0 006.757.001z"/><path data-name="Trazado 3994" d="M12.7 51.607v-.319a.912.912 0 10-1.824 0v.319a.912.912 0 001.824 0z"/><path data-name="Trazado 3995" d="M16.89 52.519a.912.912 0 00.912-.912v-.319a.912.912 0 00-1.824 0v.319a.912.912 0 00.912.912z"/><path data-name="Trazado 3996" d="M17.316 55.3a.912.912 0 00-.912-.912H12.27a.912.912 0 000 1.824h4.13a.912.912 0 00.916-.912z"/><path data-name="Trazado 3997" d="M11.784 77.544a.912.912 0 00.912-.912v-.319a.912.912 0 00-1.824 0v.319a.912.912 0 00.912.912z"/><path data-name="Trazado 3998" d="M16.89 77.544a.912.912 0 00.912-.912v-.319a.912.912 0 00-1.824 0v.319a.912.912 0 00.912.912z"/><path data-name="Trazado 3999" d="M14.337 79a3.712 3.712 0 00-3.4 2.228.912.912 0 001.671.729 1.888 1.888 0 013.462 0 .912.912 0 001.672-.729A3.712 3.712 0 0014.337 79z"/><path data-name="Trazado 4000" d="M22.533 28.213a8.2 8.2 0 10-8.2 8.2 8.205 8.205 0 008.2-8.2zm-14.567 0a6.372 6.372 0 116.372 6.372 6.379 6.379 0 01-6.372-6.372z"/><path data-name="Trazado 4001" d="M22.533 53.238a8.2 8.2 0 10-8.2 8.2 8.205 8.205 0 008.2-8.2zm-14.567 0a6.372 6.372 0 116.372 6.372 6.379 6.379 0 01-6.372-6.372z"/><path data-name="Trazado 4002" d="M14.337 70.067a8.2 8.2 0 108.2 8.2 8.205 8.205 0 00-8.2-8.2zm0 14.568a6.372 6.372 0 116.372-6.372 6.379 6.379 0 01-6.372 6.372z"/><path data-name="Trazado 4003" d="M10.885 10.061h5l-1.237 1.533a.912.912 0 001.419 1.146L18.5 9.723a.913.913 0 000-1.146L16.063 5.56a.912.912 0 00-1.419 1.146l1.237 1.533h-5a.912.912 0 100 1.823z"/></g></g></svg>