<svg xmlns="http://www.w3.org/2000/svg" width="90" height="90"><defs><clipPath id="a"><path fill="#fff" stroke="#707070" transform="translate(440 1875)" d="M0 0h90v90H0z"/></clipPath></defs><g transform="translate(-440 -1875)" clip-path="url(#a)"><g data-name="Grupo 22" transform="translate(440 1875)"><path data-name="Trazado 3916" d="M38.73 26.905a4.973 4.973 0 11-4.973 4.973 4.973 4.973 0 014.973-4.973z" fill="#918fc3"/><circle data-name="Elipse 5" cx="4.973" cy="4.973" r="4.973" transform="translate(73.015 26.905)" fill="#6c69af"/><circle data-name="Elipse 6" cx="4.973" cy="4.973" r="4.973" transform="translate(15.065 57.481)" fill="#6c69af"/><circle data-name="Elipse 7" cx="4.973" cy="4.973" r="4.973" transform="translate(54.323 57.481)" fill="#a3a1cd"/><path data-name="Trazado 65" d="M37.851 31.878a4.972 4.972 0 012.926-4.531 4.973 4.973 0 100 9.063 4.973 4.973 0 01-2.926-4.532z" fill="#5f5c99"/><path data-name="Trazado 66" d="M77.109 31.878a4.972 4.972 0 012.926-4.531 4.973 4.973 0 100 9.063 4.973 4.973 0 01-2.926-4.532z" fill="#323266"/><path data-name="Trazado 67" d="M19.159 62.453a4.972 4.972 0 012.926-4.531 4.973 4.973 0 100 9.063 4.973 4.973 0 01-2.926-4.532z" fill="#323266"/><path data-name="Trazado 68" d="M58.417 62.453a4.972 4.972 0 012.926-4.531 4.973 4.973 0 100 9.063 4.973 4.973 0 01-2.926-4.532z" fill="#514f83"/></g><g data-name="Grupo 23"><path data-name="Trazado 69" d="M441.318 1959.64h4.042v4.041a1.319 1.319 0 102.637 0v-4.041h18.027v.86a1.319 1.319 0 002.637 0v-.86h18.028v.86a1.319 1.319 0 002.637 0v-.86h18.028v.86a1.319 1.319 0 002.637 0v-.86h18.691a1.319 1.319 0 000-2.637H448v-80.685a1.319 1.319 0 00-2.637 0v18.692h-.863a1.319 1.319 0 000 2.637h.86v18.027h-.86a1.319 1.319 0 000 2.637h.86v18.028h-.86a1.319 1.319 0 000 2.637h.86V1957h-4.042a1.319 1.319 0 100 2.637z"/><path data-name="Trazado 70" d="M474.447 1877.637a1.319 1.319 0 000-2.637h-10.354a1.319 1.319 0 000 2.637z"/><path data-name="Trazado 71" d="M456.741 1881.976a1.318 1.318 0 001.318 1.318h22.422a1.319 1.319 0 100-2.637h-22.422a1.318 1.318 0 00-1.318 1.319z"/><path data-name="Trazado 72" d="M458.059 1888.952h22.422a1.319 1.319 0 000-2.637h-22.422a1.319 1.319 0 000 2.637z"/><path data-name="Trazado 73" d="M522.886 1910.761a1.318 1.318 0 00-2.07-1.633 3.654 3.654 0 110-4.519 1.318 1.318 0 102.07-1.633 6.288 6.288 0 10-9.271 8.449l-12.278 20.085a6.268 6.268 0 00-4.421.1l-13.7-20.373a6.288 6.288 0 10-8.855.192l-12.282 20.08a6.311 6.311 0 102.248 1.379l12.278-20.088a6.268 6.268 0 004.421-.1l13.7 20.373a6.282 6.282 0 00.632 9.3 1.318 1.318 0 101.633-2.07 3.654 3.654 0 114.519 0 1.318 1.318 0 101.633 2.07 6.282 6.282 0 00.438-9.5l12.282-20.073a6.275 6.275 0 007.024-2.042zM460 1941.1a3.654 3.654 0 113.654-3.654A3.658 3.658 0 01460 1941.1zm18.688-30.577a3.654 3.654 0 113.654-3.654 3.658 3.658 0 01-3.654 3.654z"/></g></g></svg>