<svg xmlns="http://www.w3.org/2000/svg" width="90" height="90"><defs><clipPath id="a"><path fill="#fff" stroke="#707070" transform="translate(1053 1875)" d="M0 0h90v90H0z"/></clipPath></defs><g transform="translate(-1053 -1875)" clip-path="url(#a)"><path data-name="Trazado 4004" d="M1129.64 1914.024v17.576a31.64 31.64 0 01-63.281 0v-17.576h17.578v17.576a14.063 14.063 0 1028.125 0v-17.576z" fill="#6966ab"/><g data-name="Grupo 68" fill="#fff"><path data-name="Rectángulo 99" d="M1112.062 1897.852h17.578v16.172h-17.578z"/><path data-name="Rectángulo 100" d="M1066.359 1897.852h17.578v16.172h-17.578z"/></g><path data-name="Trazado 4005" d="M1075.149 1931.6a1.758 1.758 0 10-1.758 1.758 1.758 1.758 0 001.758-1.758z"/><path data-name="Trazado 4006" d="M1064.6 1897.852v33.748a33.4 33.4 0 0066.8 0v-33.748a1.758 1.758 0 00-1.758-1.758h-17.58a1.758 1.758 0 00-1.762 1.758v33.748a12.305 12.305 0 01-24.609 0v-33.748a1.758 1.758 0 00-1.758-1.758h-17.573a1.758 1.758 0 00-1.76 1.758zm63.283 14.414h-14.063v-12.656h14.063zM1098 1947.422a15.838 15.838 0 0015.82-15.822v-15.818h14.063v15.818a29.883 29.883 0 11-59.765 0v-15.818h14.062v15.818a15.815 15.815 0 0015.82 15.822zm-15.82-47.812v12.656h-14.063v-12.656z"/><path data-name="Trazado 4007" d="M1076.079 1938.065a1.759 1.759 0 00-3.372 1 26.612 26.612 0 009.373 13.543 1.758 1.758 0 102.127-2.8 23.071 23.071 0 01-8.128-11.743z"/><path data-name="Trazado 4008" d="M1074.177 1875.186a1.758 1.758 0 00-2.358.786L1068.3 1883a1.758 1.758 0 001.572 2.544h4.187l-2.244 4.487a1.758 1.758 0 003.145 1.572l3.516-7.031a1.758 1.758 0 00-1.572-2.544h-4.185l2.244-4.487a1.758 1.758 0 00-.786-2.355z"/><path data-name="Trazado 4009" d="M1123.4 1875.186a1.758 1.758 0 00-2.358.786l-3.521 7.028a1.758 1.758 0 001.572 2.544h4.187l-2.244 4.487a1.758 1.758 0 003.145 1.572l3.519-7.027a1.758 1.758 0 00-1.572-2.544h-4.19l2.244-4.487a1.758 1.758 0 00-.782-2.359z"/></g></svg>