<svg xmlns="http://www.w3.org/2000/svg" width="38.9" height="38.9"><path data-name="Trazado 32" d="M24.886 10.929H14.014a3.123 3.123 0 00-3.143 3.143v10.872a3.123 3.123 0 003.143 3.143h10.872a3.123 3.123 0 003.143-3.143V14.072a3.123 3.123 0 00-3.143-3.143zM19.424 25.15a5.668 5.668 0 115.668-5.668 5.651 5.651 0 01-5.668 5.668zm5.874-10.151a1.34 1.34 0 111.34-1.34 1.33 1.33 0 01-1.34 1.34zm0 0" fill="#fff"/><path data-name="Trazado 33" d="M19.422 16.232a3.246 3.246 0 103.246 3.246 3.233 3.233 0 00-3.246-3.246zm0 0" fill="#fff"/><path data-name="Trazado 34" d="M19.423 0A19.45 19.45 0 1038.9 19.423 19.458 19.458 0 0019.423 0zm11.686 25.293a5.936 5.936 0 01-5.926 5.926H13.662a5.936 5.936 0 01-5.926-5.926V13.717a5.936 5.936 0 015.926-5.926h11.576a5.936 5.936 0 015.926 5.926v11.576zm0 0" fill="#fff"/></svg>