<svg width="128" height="121" fill="none" xmlns="http://www.w3.org/2000/svg"><path d="M64.836 21.685a13.49 13.49 0 00-2.305-4.716 13.391 13.391 0 00-3.924-3.466 13.276 13.276 0 00-10.153-1.34L9.979 22.542a13.34 13.34 0 00-4.706 2.31 13.44 13.44 0 00-3.464 3.953 13.557 13.557 0 00-1.353 10.25 13.504 13.504 0 002.319 4.726 13.405 13.405 0 003.943 3.468 13.29 13.29 0 0010.186 1.31L55.38 38.18a13.405 13.405 0 008.115-6.279 13.564 13.564 0 001.341-10.215zm30.592 5.216a13.355 13.355 0 003.471-.462 13.369 13.369 0 007.879-5.899 13.53 13.53 0 001.747-9.727 13.457 13.457 0 00-5.329-8.303A13.29 13.29 0 0093.67.116a13.338 13.338 0 00-8.579 4.808 13.512 13.512 0 00-2.997 9.413 13.487 13.487 0 004.201 8.934 13.31 13.31 0 009.133 3.63zm31.622 53.627a13.502 13.502 0 00-4.926-6.16 13.367 13.367 0 00-7.506-2.333c-.578.002-1.155.042-1.728.121a13.285 13.285 0 00-6.864 3.028 13.42 13.42 0 00-4.155 6.278 3.181 3.181 0 01-1.136 1.623 3.147 3.147 0 01-1.87.63 2.98 2.98 0 01-2.039-.812 13.297 13.297 0 00-5.873-3.21 13.237 13.237 0 00-6.683.067L30.147 94.357c-7.249 1.955-11.81 9.248-10.164 16.256a13.496 13.496 0 002.22 4.87 13.405 13.405 0 003.932 3.61 13.276 13.276 0 0010.331 1.444l54.73-14.764a13.285 13.285 0 005.825-3.306 13.415 13.415 0 003.492-5.74 3.074 3.074 0 012.137-2.062 3.058 3.058 0 012.876.71 13.292 13.292 0 009.095 3.606c2.184 0 4.335-.54 6.265-1.57a13.416 13.416 0 004.807-4.341 13.563 13.563 0 001.36-12.543h-.003zm-103.582 4.69a13.34 13.34 0 01-9.155-3.637 13.519 13.519 0 01-4.213-8.954 13.542 13.542 0 013.004-9.435 13.367 13.367 0 018.598-4.82c3.37-.45 6.784.408 9.549 2.4a13.49 13.49 0 015.34 8.322c.666 3.357.04 6.842-1.753 9.75a13.399 13.399 0 01-7.899 5.91 13.307 13.307 0 01-3.471.463zm33.557-9.053a13.326 13.326 0 01-8.818-3.346 13.496 13.496 0 01-4.44-8.37 13.55 13.55 0 012.144-9.24 13.382 13.382 0 017.662-5.524l48.063-12.965a13.286 13.286 0 0110.15 1.346 13.455 13.455 0 016.233 8.178 13.548 13.548 0 01-1.337 10.22 13.445 13.445 0 01-3.442 3.95 13.331 13.331 0 01-4.681 2.324L60.495 75.704a13.307 13.307 0 01-3.47.463v-.002z" fill="#fff"/></svg>