<svg xmlns="http://www.w3.org/2000/svg" width="398" height="224"><defs><clipPath id="a"><path transform="translate(761 4854)" fill="#fff" d="M0 0h398v224H0z"/></clipPath></defs><g transform="translate(-761 -4854)" clip-path="url(#a)"><g data-name="pelagic" transform="translate(-1154.342 3856.403)" fill="#133253"><text transform="translate(2072.436 1154.175)" font-size="27" font-family="SegoeUI, Segoe UI"><tspan x="0" y="0">FLEET</tspan></text><path data-name="Trazado 69" d="M1998.582 1119.715v-1.478h2.462v-18.9l-.013-.488h-2.721v-1.517h7.607q5.018 0 7.146 1.582t2.126 5.229a6.456 6.456 0 01-2.34 5.215 9.5 9.5 0 01-6.294 1.954c-.275 0-.606-.014-1-.042s-.893-.065-1.5-.121l-.017 7.092h2.94l.008 1.478zm5.457-10.184q.915.1 1.41.14t.81.042a5.979 5.979 0 004.341-1.453 5.576 5.576 0 001.489-4.2 4.794 4.794 0 00-1.54-3.927 7.428 7.428 0 00-4.764-1.272c-.456 0-.8 0-1.051.014s-.475.028-.693.052z"/><path data-name="Trazado 70" d="M2032.555 1119.715v-1.478h2.469v-19.392l-.575.018-1.894-.018v-1.517h15.987v4.871h-1.877l-.475-2.833-.455-.5h-7.723l.031 9.391h8.886l-.04 1.453h-8.885l.009 8.474h8.947l.47-.54.572-3.373h1.726v5.443zm5.457-10.882l.031-.579"/><path data-name="Trazado 71" d="M2066.915 1119.715v-1.478h2.669v-18.9l-.006-.488h-2.669v-1.517h8.147v1.517h-2.469l-.012.488v18.852h7.546l.47-.54.572-4.006h1.73v6.076z"/><path data-name="Trazado 72" d="M2156.765 1110.159h6.286l-.075 8.642a39.519 39.519 0 01-3.919.862 21.369 21.369 0 01-3.318.285 15.316 15.316 0 01-3.27-.336 11.034 11.034 0 01-2.757-.969 11.231 11.231 0 01-6.046-10.021 10.531 10.531 0 013.4-8.236q3.4-3.057 9.154-3.057a27.947 27.947 0 013.279.235 10.248 10.248 0 013.564 1.168l-.121 4.712h-1.952l-.527-2.953-.493-.59a10.136 10.136 0 00-1.971-.635 9.9 9.9 0 00-2.01-.2 8.323 8.323 0 00-6.382 2.491 9.614 9.614 0 00-2.333 6.85 10.191 10.191 0 002.422 7.186 8.508 8.508 0 006.567 2.631 15.181 15.181 0 001.7-.1 16.946 16.946 0 001.869-.327l.015-6.159-3.074-.051z"/><path data-name="Trazado 73" d="M2181.908 1119.648v-1.518l2.137-.008.566.008v-18.8l-.009-.461-2.694-.036v-1.5h8.472v1.5h-2.7v19.3l.566-.008 2.13.008v1.518z"/><path data-name="Trazado 74" d="M2226.466 1117.051a6.851 6.851 0 01-3.684 2.382 20.555 20.555 0 01-3.373.287c-1.1 0-11.454.6-11.454-11.014a10.474 10.474 0 013.187-7.966 11.673 11.673 0 018.4-3.017 19.487 19.487 0 013.155.27 10.163 10.163 0 013.445 1.306l.027 5.194h-1.856l-.532-3.694s-6.131-2.512-10.17 1.05c-1.653 1.457-2.215 3.842-2.215 6.642a10.03 10.03 0 002.312 7c1.545 1.7 3.719 2.059 6.445 2.03a5.981 5.981 0 004.633-2.287z"/><path data-name="Trazado 75" d="M2114.582 1088.413l-21.959 42.6 20.925-15.768-10.388 3.213 11.422-19.58 11.146 20.177-9.523-3.945 19.28 15.9z"/><circle data-name="Elipse 1" cx="2.713" cy="2.713" r="2.713" transform="translate(2243.834 1030.973)"/><circle data-name="Elipse 2" cx="2.713" cy="2.713" r="2.713" transform="translate(2258.812 1067.916)"/><circle data-name="Elipse 3" cx="2.713" cy="2.713" r="2.713" transform="translate(2258.812 1146.986)"/><circle data-name="Elipse 4" cx="2.713" cy="2.713" r="2.713" transform="translate(2243.834 1183.312)"/><g data-name="Grupo 15" transform="translate(1964.445 1019.022)"><circle data-name="Elipse 5" cx="2.713" cy="2.713" r="2.713" transform="translate(15.28 11.951)"/><circle data-name="Elipse 6" cx="2.713" cy="2.713" r="2.713" transform="translate(0 48.894)"/><circle data-name="Elipse 7" cx="2.713" cy="2.713" r="2.713" transform="translate(.483 127.964)"/><circle data-name="Elipse 8" cx="2.713" cy="2.713" r="2.713" transform="translate(16.473 164.291)"/><path data-name="Rectángulo 2" d="M38.202.35l.28-.35 5.338 4.274-.28.35z"/><path data-name="Rectángulo 3" d="M33.429 6.523l.259-.366 5.583 3.948-.259.366z"/><path data-name="Rectángulo 4" d="M29.331 12.585l.251-.371 5.662 3.83-.251.37z"/><path data-name="Rectángulo 5" d="M21.631 25.778l.18-.41 6.257 2.756-.18.41z"/><path data-name="Rectángulo 6" d="M18.342 32.317l.18-.41 6.257 2.756-.18.41z"/><path data-name="Rectángulo 7" d="M15.764 39.379l.18-.41 6.257 2.756-.18.41z"/><path data-name="Rectángulo 8" d="M13.317 46.895l.122-.43 6.578 1.868-.122.43z"/><path data-name="Rectángulo 9" d="M9.31 60.997l.122-.43 6.578 1.868-.122.43z"/><path data-name="Rectángulo 10" d="M7.808 68.478l.075-.442 6.74 1.151-.074.442z"/><path data-name="Rectángulo 11" d="M6.781 75.834l.075-.442 6.74 1.151-.074.442z"/><path data-name="Rectángulo 12" d="M6.415 83.103l.048-.445 6.797.731-.048.446z"/><path data-name="Rectángulo 13" d="M6.434 98.882l-.022-.448 6.831-.335.022.448z"/><path data-name="Rectángulo 14" d="M7.921 113.587l-.094-.438 6.684-1.441.094.438z"/><path data-name="Rectángulo 15" d="M6.82 105.919l-.053-.445 6.791-.801.053.444z"/><path data-name="Rectángulo 16" d="M9.969 121.126l-.094-.438 6.684-1.441.094.438z"/><path data-name="Rectángulo 17" d="M13.386 135.805l-.137-.427 6.513-2.084.137.427z"/><path data-name="Rectángulo 18" d="M18.611 149.631l-.204-.399 6.087-3.114.205.399z"/><path data-name="Rectángulo 19" d="M15.571 142.504l-.165-.416 6.355-2.524.165.416z"/><path data-name="Rectángulo 20" d="M22.531 156.387l-.204-.399 6.087-3.114.205.399z"/><path data-name="Rectángulo 21" d="M30.009 169.303l-.249-.372 5.685-3.8.249.372z"/><path data-name="Rectángulo 22" d="M38.846 181.151l-.306-.327 4.992-4.67.306.327z"/><path data-name="Rectángulo 23" d="M33.958 175.14l-.274-.355 5.412-4.179.274.355z"/><path data-name="Rectángulo 24" d="M23.65 18.71l.224-.432L38.82 26.02l-.224.432z"/><path data-name="Rectángulo 25" d="M9.831 53.562l.133-.468 16.19 4.6-.133.468z"/><path data-name="Rectángulo 26" d="M5.172 91.007v-.487h16.831v.487z"/><path data-name="Rectángulo 27" d="M10.403 127.964l-.103-.476 16.453-3.547.103.476z"/><path data-name="Rectángulo 28" d="M24.935 163.415l-.243-.422 14.575-8.415.244.421z"/></g><g data-name="Grupo 16" transform="translate(2220.4 1019.022)"><circle data-name="Elipse 9" cx="2.713" cy="2.713" r="2.713" transform="translate(23.132 11.951)"/><circle data-name="Elipse 10" cx="2.713" cy="2.713" r="2.713" transform="translate(38.412 48.894)"/><circle data-name="Elipse 11" cx="2.713" cy="2.713" r="2.713" transform="translate(37.929 127.964)"/><circle data-name="Elipse 12" cx="2.713" cy="2.713" r="2.713" transform="translate(21.939 164.29)"/><path data-name="Rectángulo 29" d="M.298 4.623l-.28-.35L5.356 0l.28.35z"/><path data-name="Rectángulo 30" d="M4.825 10.471l-.259-.366 5.584-3.948.258.366z"/><path data-name="Rectángulo 31" d="M8.844 16.417l-.251-.371 5.662-3.83.25.372z"/><path data-name="Rectángulo 32" d="M15.949 28.532l-.18-.41 6.256-2.756.18.41z"/><path data-name="Rectángulo 33" d="M19.237 35.072l-.18-.41 6.256-2.756.18.41z"/><path data-name="Rectángulo 34" d="M21.816 42.133l-.18-.41 6.256-2.756.18.41z"/><path data-name="Rectángulo 35" d="M23.944 48.763l-.122-.43 6.577-1.87.123.431z"/><path data-name="Rectángulo 36" d="M27.95 62.865l-.122-.43 6.577-1.87.123.431z"/><path data-name="Rectángulo 37" d="M29.289 69.629l-.075-.442 6.74-1.15.076.441z"/><path data-name="Rectángulo 38" d="M30.316 76.984l-.075-.442 6.74-1.15.076.441z"/><path data-name="Rectángulo 39" d="M30.625 83.837l-.048-.445 6.797-.732.048.445z"/><path data-name="Rectángulo 40" d="M30.574 98.545l.022-.448 6.831.336-.022.447z"/><path data-name="Rectángulo 41" d="M29.232 112.146l.094-.438 6.685 1.441-.095.438z"/><path data-name="Rectángulo 42" d="M30.227 105.116l.053-.445 6.79.802-.052.445z"/><path data-name="Rectángulo 43" d="M27.185 119.684l.094-.438 6.685 1.441-.095.438z"/><path data-name="Rectángulo 44" d="M23.94 133.72l.137-.427 6.512 2.085-.136.426z"/><path data-name="Rectángulo 45" d="M19.14 146.516l.204-.399 6.088 3.115-.204.398z"/><path data-name="Rectángulo 46" d="M21.912 139.98l.165-.416 6.356 2.524-.166.416z"/><path data-name="Rectángulo 47" d="M15.219 153.272l.204-.399 6.088 3.115-.204.398z"/><path data-name="Rectángulo 48" d="M8.144 165.503l.249-.372 5.685 3.8-.25.372z"/><path data-name="Rectángulo 49" d="M0 176.477l.306-.327 4.992 4.67-.306.327z"/><path data-name="Rectángulo 50" d="M4.468 170.96l.274-.355 5.412 4.18-.274.354z"/><path data-name="Rectángulo 51" d="M5.244 26.455l-.224-.432 14.946-7.743.224.433z"/><path data-name="Rectángulo 52" d="M17.817 58.161l-.133-.468 16.19-4.6.133.468z"/><path data-name="Rectángulo 53" d="M21.835 91.006v-.487h16.831v.487z"/><path data-name="Rectángulo 54" d="M16.983 124.417l.103-.476 16.453 3.547-.103.476z"/><path data-name="Rectángulo 55" d="M4.327 155l.243-.422 14.576 8.416-.243.422z"/></g></g></g></svg>