<svg xmlns="http://www.w3.org/2000/svg" width="398" height="224"><defs><clipPath id="a"><path transform="translate(1244 4543)" fill="#fff" d="M0 0h398v224H0z"/></clipPath></defs><g transform="translate(-1244 -4543)" clip-path="url(#a)"><g data-name="Logo SACAMO-PC"><path data-name="Trazado 3830" d="M1500.046 4635.22a58.735 58.735 0 100 .01z" fill="none" stroke="#cbcdcd" stroke-miterlimit="10" stroke-width="1.318" stroke-dasharray="1.87 1.87"/><path data-name="Trazado 3831" d="M1493.974 4615.556l-.245.135-4.647-.952-.52-1.592-2.165.427h-6.312v-6.7l3.122-1.972-3.122-4.855.38-2.222 1.769-1.119a56.024 56.024 0 1011.739 18.846z" fill="#625d9c" stroke="#d3d0e3" stroke-width="1.318"/><path data-name="Trazado 3832" d="M1506.053 4635.22a64.75 64.75 0 11-64.738-64.734 64.753 64.753 0 0164.738 64.734z" fill="none" stroke="#96694c" stroke-width="7.38"/><path data-name="Trazado 3833" d="M1467.344 4642.65a12.8 12.8 0 00-9.293-3.065 13.4 13.4 0 00-9.3 4.683 11.4 11.4 0 00-2.747 8.128 10.8 10.8 0 003.731 7.586 9.116 9.116 0 006.645 2.191 9.558 9.558 0 006.639-3.351 8.289 8.289 0 002-5.916 7.894 7.894 0 00-2.721-5.526 6.764 6.764 0 00-4.522-1.649 7.581 7.581 0 00-2.565.208 7.805 7.805 0 013.122-.879 7.451 7.451 0 015.417 1.78 10.407 10.407 0 01.879 14.632 13.841 13.841 0 01-9.616 4.855 13.107 13.107 0 01-9.543-3.148s-9.543-7.6-2.544-20.574c.333-.578 2.211-3.45 8.107-6.161.416-.172.833-.349 1.238-.52h.036a22.718 22.718 0 0012.7-16.271 18.462 18.462 0 00-2.877-13.846 19.388 19.388 0 00-12.618-8.263 15.861 15.861 0 00-18.675 12.389 12.753 12.753 0 001.993 9.574 13.388 13.388 0 008.71 5.724 11.359 11.359 0 008.414-1.681 10.786 10.786 0 004.683-7.024 9.163 9.163 0 00-1.426-6.853 9.564 9.564 0 00-6.212-4.073 8.284 8.284 0 00-6.129 1.223 7.857 7.857 0 00-3.429 5.12 6.827 6.827 0 00.833 4.74 7.452 7.452 0 001.467 2.118 7.924 7.924 0 01-2.321-2.258 7.42 7.42 0 01-1.16-5.573 10.369 10.369 0 0112.228-8.081 13.83 13.83 0 019.007 5.9 13.091 13.091 0 012.081 9.834s-1.561 10.355-13.529 12.217a13.409 13.409 0 01-10.875-3.965 22.822 22.822 0 00-22.895-4.823 18.461 18.461 0 00-10.547 9.413 19.4 19.4 0 00-.848 15.048 15.876 15.876 0 0020.064 9.98 12.785 12.785 0 007.285-6.515 13.383 13.383 0 00.583-10.407 11.39 11.39 0 00-5.661-6.452 10.823 10.823 0 00-8.435-.557 9.121 9.121 0 00-5.2 4.683 9.579 9.579 0 00-.416 7.425 8.325 8.325 0 004.126 4.683 7.852 7.852 0 006.145.406 6.764 6.764 0 003.689-3.091 7.431 7.431 0 001.1-2.331 7.753 7.753 0 01-.8 3.122 7.451 7.451 0 01-4.246 3.8 10.407 10.407 0 01-13.112-6.551 13.877 13.877 0 01.619-10.745 13.1 13.1 0 017.5-6.691s11.406-4.48 19.138 8.164a14.569 14.569 0 011.275 9.912.672.672 0 000 .1 22.827 22.827 0 007.347 21.937 18.441 18.441 0 0013.425 4.433 19.377 19.377 0 0013.451-6.79 15.9 15.9 0 00-1.415-22.378z" fill="#4d4084"/><path data-name="Trazado 3834" d="M1468.93 4641.698a12.8 12.8 0 00-9.293-3.049 13.393 13.393 0 00-9.3 4.683 11.374 11.374 0 00-2.747 8.128 10.771 10.771 0 003.731 7.581 9.121 9.121 0 006.645 2.2 9.585 9.585 0 006.639-3.335 8.325 8.325 0 002-5.916 7.873 7.873 0 00-2.7-5.531 6.764 6.764 0 00-4.522-1.649 7.471 7.471 0 00-2.57.213 7.857 7.857 0 013.122-.885 7.441 7.441 0 015.406 1.78 10.375 10.375 0 01.885 14.632 13.841 13.841 0 01-9.611 4.855 13.144 13.144 0 01-9.548-3.122s-9.543-7.607-2.539-20.579c.328-.578 2.211-3.45 8.107-6.161.421-.172.833-.349 1.238-.52h.036a22.712 22.712 0 0012.706-16.271 18.488 18.488 0 00-2.909-13.919 19.388 19.388 0 00-12.608-8.252 15.861 15.861 0 00-18.675 12.389 12.769 12.769 0 001.993 9.579 13.388 13.388 0 008.71 5.724 11.38 11.38 0 008.419-1.681 10.818 10.818 0 004.683-7.024 9.142 9.142 0 00-1.431-6.853 9.538 9.538 0 00-6.218-4.069 8.289 8.289 0 00-6.13 1.223 7.883 7.883 0 00-3.424 5.12 6.765 6.765 0 00.833 4.74 7.561 7.561 0 001.467 2.118 7.806 7.806 0 01-2.321-2.258 7.425 7.425 0 01-1.166-5.573 10.407 10.407 0 0112.233-8.081 13.867 13.867 0 019.012 5.9 13.133 13.133 0 012.05 9.834s-1.561 10.355-13.5 12.217a13.409 13.409 0 01-10.875-3.965h0a22.811 22.811 0 00-22.895-4.818 18.451 18.451 0 00-10.547 9.408 19.4 19.4 0 00-.812 15.027 15.875 15.875 0 0020.069 9.98 12.805 12.805 0 007.285-6.515 13.383 13.383 0 00.583-10.407 11.354 11.354 0 00-5.666-6.447 10.766 10.766 0 00-8.429-.562 9.137 9.137 0 00-5.2 4.683 9.543 9.543 0 00-.411 7.42 8.258 8.258 0 004.121 4.683 7.888 7.888 0 006.15.411 6.842 6.842 0 003.684-3.122 7.7 7.7 0 001.1-2.326 7.863 7.863 0 01-.8 3.122 7.441 7.441 0 01-4.246 3.793 10.371 10.371 0 01-13.112-6.551 13.877 13.877 0 01.593-10.708 13.091 13.091 0 017.493-6.691s11.411-4.48 19.143 8.159a14.611 14.611 0 011.254 9.918h0v.1h0a22.822 22.822 0 007.342 21.937 18.441 18.441 0 0013.43 4.433 19.367 19.367 0 0013.445-6.764 15.891 15.891 0 00-1.402-22.386z" fill="#fff" stroke="#625d9c" stroke-width="1.318"/><path data-name="Trazado 3835" d="M1517.539 4580.445l.864 1.655.963-4.256-.968-1.374z" fill="#62b09d"/><path data-name="Rectángulo 74" fill="#70c7b1" d="M1518.402 4582.096l.961-4.253 4.259.963-.961 4.253z"/><path data-name="Trazado 3836" d="M1519.366 4577.843l4.256.963-1.457-1.484-3.767-.853z" fill="#80b89d"/><path data-name="Trazado 3837" d="M1498.282 4613.726l-1.774-.583 4.033-1.649 1.514.734z" fill="#98bf9d"/><path data-name="Rectángulo 75" fill="#add9b1" d="M1494.856 4609.105l4.035-1.652 1.654 4.04-4.034 1.652z"/><path data-name="Trazado 3838" d="M1500.54 4611.493l-1.655-4.038 1.707 1.2 1.462 3.575z" fill="#c5e1b2"/><path data-name="Trazado 3839" d="M1538.8 4562.145l-.843 1.665-1.02-4.235.963-1.385z" fill="#9f77a7"/><path data-name="Rectángulo 76" fill="#b285bc" d="M1532.7 4560.607l4.24-1.02 1.018 4.24-4.239 1.02z"/><path data-name="Trazado 3840" d="M1536.938 4559.574l-4.243 1.016 1.443-1.5 3.762-.9z" fill="#c589bc"/><path data-name="Trazado 3841" d="M1523.632 4590.44l-.843 1.665-1.025-4.241.957-1.384z" fill="#9f77a7"/><path data-name="Trazado 3842" d="M1522.79 4592.105l-4.246 1.02-1.015-4.241 4.236-1.02z" fill="#b285bc"/><path data-name="Trazado 3843" d="M1521.765 4587.864l-4.236 1.02 1.436-1.5 3.757-.9z" fill="#c589bc"/><path data-name="Trazado 3844" d="M1491.102 4605.452l1.212 1.426v-4.36l-1.254-1.124z" fill="#e1c676"/><path data-name="Rectángulo 77" fill="#ffe185" d="M1492.314 4602.512h4.355v4.36h-4.355z"/><path data-name="Trazado 3845" d="M1492.314 4602.517h4.36l-1.746-1.124h-3.866z" fill="#ffe39c"/><path data-name="Trazado 3846" d="M1486.694 4601.045l1.207 1.42v-4.362l-1.249-1.119z" fill="#e1c676"/><path data-name="Rectángulo 78" fill="#ffe185" d="M1487.901 4598.105h4.366v4.36h-4.366z"/><path data-name="Trazado 3847" d="M1487.901 4598.103h4.366l-1.754-1.119h-3.861z" fill="#ffe39c"/><path data-name="Trazado 3848" d="M1511.244 4578.769l.869.593-.65-2.378-.853-.421z" fill="#d2625c"/><path data-name="Rectángulo 79" fill="#f3716a" d="M1510.689 4575.573l2.368-.666.666 2.368-2.368.666z"/><path data-name="Trazado 3849" d="M1511.461 4576.985l2.373-.656-1.119-.349-2.107.583z" fill="#f48470"/><path data-name="Trazado 3850" d="M1498.922 4601.731l.682 1.743 1.426-4.121-.812-1.473z" fill="#299bcc"/><path data-name="Trazado 3851" d="M1499.603 4603.474l4.121 1.431 1.426-4.126-4.121-1.426z" fill="#2cace3"/><path data-name="Trazado 3852" d="M1501.029 4599.353l4.121 1.426-1.285-1.629-3.648-1.27z" fill="#78b8e5"/><path data-name="Trazado 3853" d="M1492.054 4594.317l-1.8.5 2.44-3.611 1.665-.229z" fill="#dbadc2"/><path data-name="Rectángulo 80" fill="#f8c3da" d="M1486.647 4592.393l2.44-3.613 3.618 2.443-2.44 3.613z"/><path data-name="Trazado 3854" d="M1492.694 4591.199l-3.616-2.44 2.076.052 3.205 2.165z" fill="#fbd7e7"/><path data-name="Trazado 3855" d="M1487.631 4610.374l-1.212 1.426v-4.361l1.249-1.124z" fill="#9d9ac0"/><path data-name="Rectángulo 81" fill="#aea9d4" d="M1482.053 4607.439h4.366v4.36h-4.366z"/><path data-name="Trazado 3856" d="M1486.418 4607.439h-4.366l1.748-1.124h3.866z" fill="#acb9de"/><path data-name="Trazado 3857" d="M1498.428 4576.985l-1.212 1.421v-4.36l1.249-1.124z" fill="#c25b76"/><path data-name="Rectángulo 82" fill="#df6987" d="M1492.855 4574.044h4.36v4.366h-4.36z"/><path data-name="Trazado 3858" d="M1497.215 4574.045h-4.36l1.748-1.124h3.861z" fill="#e28695"/><path data-name="Trazado 3859" d="M1506.17 4593.947l-1.009 1.577-.583-4.324 1.087-1.28z" fill="#177574"/><path data-name="Rectángulo 83" fill="#239393" d="M1500.26 4591.757l4.321-.582.582 4.321-4.321.582z"/><path data-name="Trazado 3860" d="M1504.578 4591.199l-4.324.578 1.582-1.342 3.83-.515z" fill="#00a49c"/><path data-name="Trazado 3861" d="M1520.495 4572.562l-1 1.571-.588-4.324 1.087-1.28z" fill="#006178"/><path data-name="Rectángulo 84" fill="#00718b" d="M1514.032 4571.255l4.317-.567.567 4.317-4.317.567z"/><path data-name="Trazado 3862" d="M1518.903 4569.809l-4.324.583 1.587-1.348 3.824-.515z" fill="#007c92"/><path data-name="Trazado 3863" d="M1507.606 4578.368l-1.462 1.16.838-4.277 1.447-.864z" fill="#9dbd89"/><path data-name="Trazado 3864" d="M1506.144 4579.529l-4.277-.838.838-4.282 4.277.843z" fill="#b7db9d"/><path data-name="Trazado 3865" d="M1506.982 4575.251l-4.277-.843 1.93-.76 3.793.739z" fill="#c9e19d"/><path data-name="Trazado 3866" d="M1515.016 4586.121l-.765 1.7-1.218-4.183.885-1.431z" fill="#817678"/><path data-name="Rectángulo 85" fill="#988b8d" d="M1508.839 4584.864l4.186-1.22 1.22 4.187-4.187 1.219z"/><path data-name="Trazado 3867" d="M1513.038 4583.639l-4.2 1.218 1.368-1.566 3.71-1.082z" fill="#ac9d9f"/><path data-name="Trazado 3868" d="M1493.896 4598.5l.5.957.552-2.472-.562-.8z" fill="#62b09d"/><path data-name="Trazado 3869" d="M1494.404 4599.458l2.466.557.562-2.472-2.477-.557z" fill="#70c7b1"/><path data-name="Trazado 3870" d="M1494.952 4596.986l2.477.557-.853-.859-2.185-.494z" fill="#80b89d"/><path data-name="Trazado 3871" d="M1504.811 4586.07l-.9-.617 2.524-.255.723.656z" fill="#9f77a7"/><path data-name="Rectángulo 86" fill="#b285bc" d="M1503.659 4582.92l2.521-.258.259 2.52-2.522.26z"/><path data-name="Trazado 3872" d="M1506.436 4585.195l-.26-2.518.754.942.226 2.229z" fill="#c589bc"/><path data-name="Trazado 3873" d="M1492.777 4610.253l.531.942-2.378-.869-.359-.911z" fill="#006178"/><path data-name="Rectángulo 87" fill="#00718b" d="M1490.042 4612.688l.872-2.38 2.374.87-.871 2.38z"/><path data-name="Trazado 3874" d="M1490.926 4610.322l-.869 2.378-.265-1.181.775-2.107z" fill="#007c92"/><path data-name="Trazado 3875" d="M1493.729 4585.351l-.442.994-.713-2.435.516-.826z" fill="#817678"/><path data-name="Trazado 3876" d="M1493.287 4586.345l-2.435.708-.708-2.435 2.43-.708z" fill="#988b8d"/><path data-name="Trazado 3877" d="M1492.572 4583.91l-2.43.708.791-.905 2.159-.63z" fill="#ac9d9f"/><path data-name="Trazado 3878" d="M1511.202 4595.013l-1.79.531 3.991 1.769 1.53-.692z" fill="#838f9b"/><path data-name="Rectángulo 88" fill="#9dabb9" d="M1507.629 4599.513l1.766-3.986 3.987 1.766-1.767 3.986z"/><path data-name="Trazado 3879" d="M1513.401 4597.309l-1.774 3.986 1.738-1.145 1.566-3.533z" fill="#9bb6bf"/><path data-name="Trazado 3880" d="M1525.245 4575.579l.6-.666-2.066.281-.447.666z" fill="#838f9b"/><path data-name="Rectángulo 89" fill="#9dabb9" d="M1523.496 4573.157l2.062-.28.281 2.061-2.062.281z"/><path data-name="Trazado 3881" d="M1523.779 4575.194l-.281-2.061-.416.9.25 1.826z" fill="#9bb6bf"/><path data-name="Trazado 3882" d="M1498.207 4592.199l.6-.666-2.071.281-.447.661z" fill="#007f9c"/><path data-name="Rectángulo 90" fill="#0095b6" d="M1496.462 4589.737l2.068-.278.278 2.062-2.069.278z"/><path data-name="Trazado 3883" d="M1496.737 4591.813l-.276-2.066-.416.9.245 1.826z" fill="#00a2c0"/><path data-name="Trazado 3884" d="M1488.984 4586.096l-1.389 1.247.578-4.324 1.389-.947z" fill="#00809d"/><path data-name="Rectángulo 91" fill="#0095b6" d="M1482.563 4586.846l.567-4.317 4.317.567-.567 4.317z"/><path data-name="Trazado 3885" d="M1488.172 4583.023l-4.319-.578 1.878-.879 3.83.51z" fill="#00a2c0"/><path data-name="Trazado 3886" d="M1512.331 4591.298l.7-.76-.083 2.414-.718.593z" fill="#00809d"/><path data-name="Trazado 3887" d="M1513.028 4590.539l2.414.088-.083 2.414-2.414-.088z" fill="#0095b6"/><path data-name="Trazado 3888" d="M1512.945 4592.953l2.414.088-.994.588-2.139-.083z" fill="#00a2c0"/><path data-name="Trazado 3889" d="M1526.781 4578.015l.656 1.754 1.483-4.105-.8-1.483z" fill="#98c7de"/><path data-name="Rectángulo 92" fill="#abe1fa" d="M1527.441 4579.768l1.484-4.108 4.103 1.482-1.484 4.108z"/><path data-name="Trazado 3890" d="M1528.919 4575.663l4.105 1.483-1.27-1.649-3.631-1.316z" fill="#c1e8fb"/><path data-name="Trazado 3891" d="M1481.815 4598.542l-.239.957 1.878-1.332.1-.885z" fill="#98c7de"/><path data-name="Rectángulo 93" fill="#abe1fa" d="M1481.579 4599.518l1.883-1.33 1.332 1.887-1.882 1.33z"/><path data-name="Trazado 3892" d="M1483.458 4598.167l1.332 1.884-.047-1.1-1.181-1.67z" fill="#c1e8fb"/><path data-name="Trazado 3893" d="M1530.834 4566.271l-1.722-.723 1.962 3.9 1.623.437z" fill="#e2ac80"/><path data-name="Trazado 3894" d="M1529.112 4565.548l-3.9 1.967 1.967 3.892 3.892-1.962z" fill="#fcbf8d"/><path data-name="Trazado 3895" d="M1531.073 4569.445l-3.892 1.962 2.071.213 3.445-1.738z" fill="#fecc92"/><path data-name="Trazado 3896" d="M1499.88 4581.095l-1.426-.6 1.967 3.892 1.623.442z" fill="#e2ac80"/><path data-name="Rectángulo 94" fill="#fcbf8d" d="M1494.561 4582.473l3.893-1.966 1.967 3.893-3.894 1.966z"/><path data-name="Trazado 3897" d="M1500.421 4584.388l-3.9 1.972 2.071.208 3.45-1.738z" fill="#fecc92"/><path data-name="Trazado 3898" d="M1322.825 4720.179a3.746 3.746 0 011.082-1.212 6.556 6.556 0 011.389-.744 5.444 5.444 0 011.483-.338h.588a6.616 6.616 0 011.129.094 6.387 6.387 0 011.041.281 3.351 3.351 0 01.843.416 2.324 2.324 0 01.567.52l-.234.3-.167.338q-.073.2-.14.437l-.135.52v.187l-.026.036v.036l-.38-.047-.052-.13-.088-.177-.1-.224-.13-.2a2.7 2.7 0 00-.411-.448 3.392 3.392 0 00-.578-.4 2.5 2.5 0 00-.718-.3 3.434 3.434 0 00-.885-.109 2.29 2.29 0 00-.973.213 3.123 3.123 0 00-.885.64 2.659 2.659 0 00-.822 1.951v.4a2.133 2.133 0 00.2.624 3.771 3.771 0 00.39.65 3.688 3.688 0 00.619.578 4.646 4.646 0 00.879.52l2.6 1.041a5.8 5.8 0 011.228.754 3.679 3.679 0 01.827.942 4.027 4.027 0 01.484 1.072 4.318 4.318 0 01.146 1.119v.448a4.917 4.917 0 01-.52 1.79 6.281 6.281 0 01-1.212 1.629 5.141 5.141 0 01-1.727 1.155 5.891 5.891 0 01-2.113.364h-1.009a6.37 6.37 0 01-.885-.193 9.89 9.89 0 01-.864-.3 5.936 5.936 0 01-.734-.385 6.013 6.013 0 01-.583-.416v-.026h-.024c.062-.151.12-.3.172-.442a2.856 2.856 0 00.094-.38l.031-.177v-.177l.036-.151v-.911l.375-.042a10.22 10.22 0 001.145 1.483 2.6 2.6 0 00.973.682 5.2 5.2 0 00.843.234 4.08 4.08 0 00.734.073 3.726 3.726 0 001.374-.234 2.492 2.492 0 00.989-.734 3.877 3.877 0 00.6-1.041 3.752 3.752 0 00.224-1.129 2.914 2.914 0 00-.135-.905 3.584 3.584 0 00-.38-.864 2.544 2.544 0 00-.63-.728 3.35 3.35 0 00-.905-.494l-2.425-1.155a6.483 6.483 0 01-1.639-.963 2.638 2.638 0 01-.791-1.082 10.885 10.885 0 01-.255-1.155 7.6 7.6 0 01-.094-1.2v-.047a4.766 4.766 0 01.567-1.754" fill="#625d9c"/><path data-name="Trazado 3899" d="M1339.087 4718.025h.52l7.285 16.51h-1.285l-.1-.026h-.562l-.182.036h-.479l-2.6-6.5h-5.77l-2.4 6.5h-.369l-.073-.026h-.447l-.052.026h-.916l7.42-16.51m2.217 8.9l-2.409-5.724-2.4 5.724z" fill="#625d9c"/><path data-name="Trazado 3900" d="M1347.719 4723.463a8.809 8.809 0 011.743-2.7 7.582 7.582 0 012.773-1.868 9.887 9.887 0 013.606-.624h.947c.172 0 .338.031.52.036l.52.036a8.688 8.688 0 01.973.1c.323.057.64.125.957.2a6.588 6.588 0 01.89.291 5.126 5.126 0 01.807.416l-.572 1.811h-.182a10.545 10.545 0 00-.869-.692 7.745 7.745 0 00-.921-.557 6.04 6.04 0 00-.957-.385 8.331 8.331 0 00-.952-.25l-.281-.036-.26-.036h-.515a5.973 5.973 0 00-2.357.468 6.765 6.765 0 00-2.081 1.415 6.244 6.244 0 00-1.436 2.237 8.211 8.211 0 00-.52 2.971v.281a11.666 11.666 0 00.552 3.439 5.1 5.1 0 001.5 2.258 7.03 7.03 0 002.081 1.259 6.312 6.312 0 002.284.416h.421a11.907 11.907 0 001.275-.177 8.23 8.23 0 002.4-.921 6.978 6.978 0 00.989-.7l-.193 1.441-.328.213-.3.182-.333.172-.328.14a6.251 6.251 0 01-.52.161 4.406 4.406 0 00-.484.167l-.177.047-.151.047c-.234.047-.468.088-.687.141s-.437.083-.656.12-.437.052-.65.068-.427.026-.645.026a9.366 9.366 0 01-3.205-.52 8.461 8.461 0 01-2.758-1.7 7.311 7.311 0 01-1.894-2.721 9.5 9.5 0 01-.619-3.543v-.047a8.076 8.076 0 01.6-3.1" fill="#625d9c"/><path data-name="Trazado 3901" d="M1369.568 4718.025h.52l7.253 16.51h-1.28l-.1-.026h-.567l-.177.036h-.479l-2.6-6.5h-5.727l-2.4 6.494h-.375l-.073-.026h-.452l-.047.026h-.9l7.415-16.51m2.217 8.9l-2.4-5.724-2.4 5.724z" fill="#625d9c"/><path data-name="Trazado 3902" d="M1380.875 4718.212h.728l6.5 12.431 6.66-12.431h.76l1.858 16.323h-.281l-.26-.036h-.234l-.234-.036h-.333l-.14.026h-.307l-.3.036h-.338l-1.108-12.249-6.12 11.869h-.375l-5.937-11.671-1.108 12.061h-.151l-.182-.036-.2-.036h-.463l-.036.026h-.2l-.156.036h-.281l2.237-16.323" fill="#625d9c"/><path data-name="Trazado 3903" d="M1398.743 4726.178v-.432l.031-.234a7.971 7.971 0 01.78-2.716 10.068 10.068 0 011.769-2.513 6.93 6.93 0 012.732-1.8 10.8 10.8 0 013.767-.6 13.778 13.778 0 013.7.562 5.9 5.9 0 012.487 1.462 9.6 9.6 0 011.561 1.977 7.707 7.707 0 01.859 2.165l.073.286.047.255.047.286.047.281a4.165 4.165 0 01.057.552 2.4 2.4 0 00.036.52v.307a8.679 8.679 0 01-.671 3.5 6.978 6.978 0 01-2.035 2.648 9.513 9.513 0 01-2.909 1.675 9.845 9.845 0 01-3.262.52h-1a3.961 3.961 0 01-.6-.062 3.5 3.5 0 01-.614-.089l-.614-.146a7.545 7.545 0 01-2.258-.89 10.507 10.507 0 01-2.081-1.6 5.916 5.916 0 01-1.478-2.388 10.24 10.24 0 01-.479-3.283v-.255m2.883 3.455a6.171 6.171 0 003.543 3.882 6.884 6.884 0 002.664.494 5.906 5.906 0 002.435-.494 5.723 5.723 0 001.988-1.478 7.123 7.123 0 001.41-2.4 11.885 11.885 0 00.666-3.2v-.354a8.382 8.382 0 00-.463-2.825 7.019 7.019 0 00-1.379-2.331 6.1 6.1 0 00-2.149-1.561 6.847 6.847 0 00-2.7-.52 6.155 6.155 0 00-2.362.427 4.444 4.444 0 00-1.733 1.249 9.839 9.839 0 00-1.956 3.674c-.047.2-.094.4-.14.588a5.214 5.214 0 00-.114.567c-.026.193-.057.375-.083.562s-.052.369-.083.52v-.052a10.511 10.511 0 00.458 3.273z" fill="#625d9c"/><path data-name="Trazado 3904" d="M1430.426 4725.284a4.776 4.776 0 01-3.314 1.2h-3.221v8.575h-.957v-17.169h4.163a4.87 4.87 0 013.315 1.16 3.856 3.856 0 011.348 3.1 3.9 3.9 0 01-1.348 3.122m-.744-5.573a3.913 3.913 0 00-2.6-.822h-3.195v6.613h3.195a4.111 4.111 0 002.648-.859 3.153 3.153 0 001.041-2.482 2.966 2.966 0 00-1.108-2.451" fill="#96694c"/><path data-name="Trazado 3905" d="M1434.105 4735.06v-17.155h8.242v.983h-7.264v6.249h7.264v1.061h-7.264v7.878h7.264v.983z" fill="#8c9091"/><path data-name="Trazado 3906" d="M1452.649 4735.061l-5.453-8.575h-1.852v8.575h-.957v-17.171h3.965a5.977 5.977 0 011.821.276 4.163 4.163 0 011.493.817 4.116 4.116 0 011 1.358 4.225 4.225 0 01.369 1.826 4.8 4.8 0 01-.359 1.941 3.387 3.387 0 01-.973 1.348 4.1 4.1 0 01-1.5.78 6.656 6.656 0 01-1.9.255l5.505 8.575zm-.905-14.351a2.816 2.816 0 00-.8-1.015 3.559 3.559 0 00-1.171-.6 4.8 4.8 0 00-1.441-.208h-2.987v6.613h3.252a3.6 3.6 0 002.487-.859 3.252 3.252 0 00.947-2.508 3.367 3.367 0 00-.286-1.426" fill="#8c9091"/><path data-name="Trazado 3907" d="M1456.973 4726.116v8.944h-.947v-17.155h7.446v.983h-6.494v6.249h6.494v.978z" fill="#8c9091"/><path data-name="Trazado 3908" d="M1465.553 4735.06v-17.155h8.242v.983h-7.253v6.249h7.253v1.061h-7.253v7.878h7.253v.983z" fill="#8c9091"/><path data-name="Trazado 3909" d="M1489.235 4734.046a7.186 7.186 0 01-3.642 1.207l-.572.036h-.656a8.846 8.846 0 110-17.634 11.614 11.614 0 013.991.645 7.909 7.909 0 012.034 1.171v1.228a8.943 8.943 0 00-2.206-1.342 9.975 9.975 0 00-3.819-.749 7.852 7.852 0 100 15.7 8.414 8.414 0 003.726-.775 17.571 17.571 0 002.3-1.462v1.129z" fill="#8c9091"/><path data-name="Trazado 3910" d="M1495.225 4718.888v16.172h-.978v-16.172h-3.8v-.983h8.58v.983z" fill="#8c9091"/><path data-name="Trazado 3911" d="M1515.911 4734.046a7.227 7.227 0 01-3.642 1.207l-.578.036h-.641a8.846 8.846 0 110-17.634 11.656 11.656 0 013.991.645 8.174 8.174 0 012.034 1.171v1.228a9.042 9.042 0 00-2.206-1.342 9.975 9.975 0 00-3.819-.749 7.852 7.852 0 100 15.7 8.435 8.435 0 003.726-.775 17.241 17.241 0 002.3-1.462v1.129z" fill="#96694c"/><path data-name="Rectángulo 95" fill="#8c9091" d="M1518.481 4717.906h.963v17.155h-.963z"/><path data-name="Trazado 3912" d="M1529.82 4735.061l-5.453-8.575h-1.852v8.575h-.963v-17.171h3.97a5.946 5.946 0 011.816.276 4.277 4.277 0 011.5.817 4.085 4.085 0 01.994 1.358 4.3 4.3 0 01.375 1.826 4.9 4.9 0 01-.354 1.941 3.5 3.5 0 01-.978 1.348 4.106 4.106 0 01-1.514.781 6.592 6.592 0 01-1.894.255l5.51 8.575zm-.916-14.351a2.685 2.685 0 00-.791-1.015 3.643 3.643 0 00-1.176-.6 4.756 4.756 0 00-1.441-.208h-2.981v6.613h3.247a3.6 3.6 0 002.487-.859 3.237 3.237 0 00.952-2.508 3.289 3.289 0 00-.3-1.426" fill="#8c9091"/><path data-name="Trazado 3913" d="M1546.257 4734.046a7.227 7.227 0 01-3.642 1.207l-.578.036h-.65a8.846 8.846 0 110-17.634 11.571 11.571 0 013.991.645 8.112 8.112 0 012.04 1.171v1.228a8.975 8.975 0 00-2.211-1.342 9.933 9.933 0 00-3.819-.749 7.852 7.852 0 100 15.7 8.434 8.434 0 003.726-.775 16.913 16.913 0 002.305-1.462v1.129z" fill="#8c9091"/><path data-name="Trazado 3914" d="M1548.827 4735.06v-17.155h.952v16.172h4.839v.983z" fill="#8c9091"/><path data-name="Trazado 3915" d="M1555.841 4735.06v-17.155h8.237v.983h-7.253v6.249h7.253v1.061h-7.253v7.878h7.253v.983z" fill="#8c9091"/><path data-name="Línea 1" fill="#d3d0e3" stroke="#d3d0e3" stroke-linecap="round" stroke-width="1.836" d="M1431.565 4744.479h22.286"/><path data-name="Línea 2" fill="#d3d0e3" stroke="#d3d0e3" stroke-linecap="round" stroke-width="1.836" d="M1431.565 4708.212h22.286"/><path data-name="Rectángulo 96" fill="#625d9c" d="M1437.305 4749.063h2.295v2.295h-2.295z"/><path data-name="Rectángulo 97" fill="#0095b6" d="M1441.088 4750.187l1.623-1.623 1.622 1.623-1.622 1.623z"/><path data-name="Rectángulo 98" fill="#96694c" d="M1445.822 4749.063h2.295v2.295h-2.295z"/></g></g></svg>