<svg xmlns="http://www.w3.org/2000/svg" width="398" height="224"><defs><clipPath id="a"><path transform="translate(761 4543)" fill="#fff" d="M0 0h398v224H0z"/></clipPath></defs><g transform="translate(-761 -4543)" clip-path="url(#a)"><g data-name="sacamo emprendimiento"><g data-name="Grupo 20" fill="#615d99"><path data-name="Trazado 97" d="M965.496 4678.057q-.049-1.26-.108-2.52.886.039 1.762.069t1.762.03q.886 0 1.751-.03t1.751-.069a2.983 2.983 0 000 1.183q-.631-.04-1.151-.079t-1.1-.079q-.58-.04-1.27-.069t-1.654-.029q-.02.629-.047 1.2t-.029 1.3q0 .768.01 1.5c.007.486.01.852.01 1.1q.866 0 1.555-.02t1.26-.047q.572-.03 1.054-.059t.916-.069a3.087 3.087 0 00-.059.61 3.017 3.017 0 00.059.591q-.512-.059-1.191-.1t-1.359-.047l-1.28-.019q-.6-.01-.955-.01 0 .177-.01.384c-.007.138-.01.312-.01.521v1.949q0 1.122.01 1.851t.03 1.1h1.378q.749 0 1.467-.03t1.359-.079a8.814 8.814 0 001.112-.148 1.387 1.387 0 00-.047.305c-.007.112-.01.213-.01.305a1.847 1.847 0 00.059.512q-.886-.04-1.763-.039h-3.573q-.886 0-1.792.039.059-1.26.108-2.511t.048-2.55v-3.386q-.001-1.299-.053-2.56z"/><path data-name="Trazado 98" d="M979.393 4680.716q1.388 2.639 2.9 5.414.2-.373.571-1.073t.866-1.605q.492-.9 1.053-1.959t1.142-2.136q.581-1.082 1.152-2.126t1.063-1.95h.256q.216 1.89.4 3.652t.384 3.466q.2 1.7.394 3.367t.433 3.3a2.78 2.78 0 00-.462-.039h-.925a2.784 2.784 0 00-.463.039q-.217-2.618-.433-5.08t-.531-5.021h-.039q-1.359 2.481-2.668 4.933t-2.491 5.129h-.177q-1.182-2.48-2.471-4.972t-2.589-5.09h-.039q-.138 1.222-.305 2.65t-.305 2.816q-.138 1.388-.237 2.619t-.1 2.018a6.064 6.064 0 00-1.378 0q.256-1.6.531-3.367t.531-3.564q.257-1.792.473-3.535t.374-3.318h.334q1.37 2.793 2.756 5.432z"/><path data-name="Trazado 99" d="M992.893 4680.637q0-1.3-.047-2.55t-.108-2.55q.473.039.956.069t.955.03c.157 0 .347-.007.571-.019s.45-.023.68-.03.449-.017.66-.029.387-.02.531-.02c.2 0 .44.007.729.02a5.93 5.93 0 01.916.118 5.148 5.148 0 01.955.3 2.711 2.711 0 01.856.571 2.806 2.806 0 01.62.935 4.219 4.219 0 01-.325 3.5 4.076 4.076 0 01-1.379 1.26 5.447 5.447 0 01-1.733.61 9.649 9.649 0 01-1.625.158q-.453 0-.827-.009t-.768-.047v1.083q0 1.3.048 2.559t.108 2.481q-.453-.04-.964-.039t-.966.039q.059-1.221.108-2.481t.048-2.559zm1.615 1.477a6.06 6.06 0 002.658.02 3.365 3.365 0 001.191-.5 2.759 2.759 0 00.886-1 4.119 4.119 0 00.108-3.023 1.941 1.941 0 00-.66-.827 2.578 2.578 0 00-1.034-.4 7.961 7.961 0 00-1.378-.108h-1.771z"/><path data-name="Trazado 100" d="M1003.838 4680.637q0-1.3-.047-2.55t-.108-2.55q.571.039 1.122.069t1.123.03q.571 0 1.122-.047t1.123-.047a7.631 7.631 0 011.575.158 3.846 3.846 0 011.309.521 2.639 2.639 0 01.886.955 3.413 3.413 0 01-.1 3.1 3.957 3.957 0 01-1.034 1.122 5.119 5.119 0 01-1.31.689 6.553 6.553 0 01-1.27.325l.65.827q.413.527.925 1.172.512.64 1.063 1.339t1.063 1.339q.512.64.965 1.172t.729.807a4.429 4.429 0 00-.591-.039h-1.162a3.984 3.984 0 00-.571.039l-.9-1.24q-.6-.827-1.329-1.773t-1.487-1.88-1.388-1.585h-.748v1.437q0 1.3.047 2.559t.108 2.481q-.453-.04-.965-.039t-.965.039q.059-1.221.108-2.481t.048-2.559zm1.615 1.122a4 4 0 00.6.079q.326.02.719.02a6.217 6.217 0 001.27-.138 3.692 3.692 0 001.211-.482 2.88 2.88 0 00.916-.926 2.714 2.714 0 00.365-1.467 2.557 2.557 0 00-.284-1.27 2.276 2.276 0 00-.739-.8 2.829 2.829 0 00-.984-.4 5.245 5.245 0 00-1.044-.108q-.69 0-1.143.029t-.768.069l-.079 2.146q-.04 1.063-.039 2.127z"/><path data-name="Trazado 101" d="M1015.818 4678.057q-.047-1.26-.108-2.52.885.039 1.762.069t1.763.03q.885 0 1.75-.03t1.751-.069a3.015 3.015 0 000 1.183q-.63-.04-1.152-.079t-1.1-.079q-.581-.04-1.27-.069t-1.654-.029q-.02.629-.047 1.2t-.029 1.3q0 .768.009 1.5c.007.486.01.852.01 1.1q.866 0 1.555-.02t1.26-.047q.571-.03 1.054-.059c.321-.02.627-.043.915-.069a3.124 3.124 0 00-.059.61 3 3 0 00.059.591q-.511-.059-1.191-.1t-1.358-.047l-1.278-.019q-.6-.01-.955-.01c0 .118 0 .246-.01.384s-.009.312-.009.521v1.949q0 1.122.009 1.851t.03 1.1h1.378q.749 0 1.467-.03t1.359-.079a8.822 8.822 0 001.113-.148 1.4 1.4 0 00-.047.305 4.833 4.833 0 00-.009.305 1.81 1.81 0 00.059.512q-.887-.04-1.763-.039h-3.573q-.886 0-1.792.039.059-1.26.108-2.511t.047-2.55v-3.386q-.002-1.299-.054-2.56z"/><path data-name="Trazado 102" d="M1031.973 4683.955q-2.559-2.744-5.119-5.464-.02.551-.039 1.476t-.019 2.52q0 .414.009 1.024t.02 1.28q.009.67.029 1.359t.04 1.28q.019.591.039 1.033t.039.6a5.527 5.527 0 00-.689-.039 6.2 6.2 0 00-.729.039q.039-.2.089-.728t.089-1.27q.039-.738.089-1.6t.079-1.733q.03-.866.047-1.694t.02-1.476q0-1.89-.01-3.249t-.048-2.028h.315l2.57 2.786q1.37 1.486 2.718 2.934 1.348 1.447 2.56 2.737t2.117 2.2v-2.678q0-2.067-.029-4.026t-.128-3.691a2.836 2.836 0 00.67.1 2.736 2.736 0 00.63-.1q-.039.433-.088 1.3t-.1 1.851q-.048.985-.088 1.93t-.039 1.514v1.183q0 .67.01 1.4t.02 1.467l.02 1.378q.01.64.009 1.112v.65h-.275q-2.268-2.63-4.828-5.377z"/><path data-name="Trazado 103" d="M1041.035 4680.637q0-1.3-.047-2.55t-.108-2.55q.747.039 1.486.069t1.487.03q.748 0 1.487-.047t1.487-.047a8.606 8.606 0 012.963.453 5.173 5.173 0 012.018 1.29 5.08 5.08 0 011.152 2.048 9.465 9.465 0 01.364 2.727 7.323 7.323 0 01-.679 3.318 6.338 6.338 0 01-1.733 2.177 6.468 6.468 0 01-2.323 1.172 9.294 9.294 0 01-2.431.344q-.67 0-1.32-.019t-1.319-.02h-1.319q-.65 0-1.319.039.059-1.221.108-2.481t.047-2.559zm1.615 3.387q0 2.127.118 4.174a7.193 7.193 0 001.122.148q.71.047 1.458.047a9.407 9.407 0 002.166-.256 4.7 4.7 0 001.94-.965 5.166 5.166 0 001.4-1.94 9.59 9.59 0 00.118-6 4.274 4.274 0 00-1.162-1.743 4.121 4.121 0 00-1.762-.886 9.651 9.651 0 00-2.244-.246q-.887 0-1.656.059t-1.378.138q-.059.946-.089 1.978t-.029 2.1z"/><path data-name="Trazado 104" d="M1056.3 4678.087q-.047-1.249-.108-2.55c.17.026.335.047.492.069a3.763 3.763 0 00.947 0c.157-.019.321-.043.492-.069q-.059 1.3-.108 2.55t-.047 2.55v3.387q0 1.3.047 2.559t.108 2.481q-.453-.04-.965-.039t-.965.039q.059-1.221.108-2.481t.047-2.559v-3.387q.004-1.3-.048-2.55z"/><path data-name="Trazado 105" d="M1065.83 4680.716q1.388 2.639 2.9 5.414.2-.373.571-1.073t.866-1.605q.492-.9 1.053-1.959t1.143-2.136q.581-1.082 1.152-2.126t1.063-1.95h.256q.216 1.89.4 3.652t.384 3.466q.2 1.7.394 3.367t.433 3.3a2.789 2.789 0 00-.463-.039h-.925a2.8 2.8 0 00-.463.039q-.217-2.618-.433-5.08t-.532-5.021h-.04q-1.358 2.481-2.668 4.933t-2.491 5.129h-.177q-1.183-2.48-2.471-4.972t-2.589-5.09h-.039q-.139 1.222-.305 2.65t-.305 2.816q-.139 1.388-.237 2.619t-.1 2.018a6.063 6.063 0 00-1.378 0q.255-1.6.531-3.367t.531-3.564q.255-1.792.473-3.535t.374-3.318h.334q1.372 2.793 2.758 5.432z"/><path data-name="Trazado 106" d="M1079.279 4678.087q-.048-1.249-.108-2.55c.17.026.335.047.492.069a3.763 3.763 0 00.947 0c.157-.019.322-.043.492-.069q-.059 1.3-.108 2.55t-.048 2.55v3.387q0 1.3.048 2.559t.108 2.481q-.453-.04-.965-.039t-.965.039q.059-1.221.108-2.481t.048-2.559v-3.387q.003-1.3-.049-2.55z"/><path data-name="Trazado 107" d="M1084.753 4678.057q-.05-1.26-.108-2.52.886.039 1.762.069t1.762.03q.887 0 1.751-.03t1.751-.069a3.015 3.015 0 000 1.183q-.631-.04-1.152-.079t-1.1-.079q-.581-.04-1.27-.069t-1.656-.029q-.02.629-.048 1.2t-.029 1.3q0 .768.01 1.5c.006.486.01.852.01 1.1q.866 0 1.555-.02t1.26-.047q.571-.03 1.054-.059t.915-.069a3.143 3.143 0 00-.059.61 3 3 0 00.058.591q-.512-.059-1.191-.1t-1.359-.047l-1.278-.019q-.6-.01-.955-.01c0 .118 0 .247-.01.384s-.01.312-.01.521v1.949q0 1.122.01 1.851t.029 1.1h1.378q.748 0 1.467-.03t1.358-.079a8.8 8.8 0 001.113-.148 1.4 1.4 0 00-.047.305c-.007.112-.01.213-.01.305a1.847 1.847 0 00.059.512q-.886-.04-1.762-.039h-3.573q-.887 0-1.792.039.059-1.26.108-2.511t.047-2.55v-3.386q.004-1.299-.048-2.56z"/><path data-name="Trazado 108" d="M1100.908 4683.955q-2.56-2.744-5.119-5.464-.02.551-.039 1.476t-.02 2.52q0 .414.01 1.024t.019 1.28q.01.67.03 1.359t.039 1.28q.02.591.04 1.033t.04.6a5.541 5.541 0 00-.69-.039 6.207 6.207 0 00-.728.039q.039-.2.088-.728t.089-1.27l.088-1.6q.048-.862.079-1.733.029-.866.047-1.694t.02-1.476q0-1.89-.01-3.249t-.047-2.028h.315l2.57 2.786q1.37 1.486 2.717 2.934 1.349 1.447 2.56 2.737t2.117 2.2v-2.678q0-2.067-.03-4.026t-.128-3.691a2.83 2.83 0 00.67.1 2.736 2.736 0 00.63-.1q-.04.433-.089 1.3t-.1 1.851q-.049.985-.088 1.93t-.039 1.514v1.183q0 .67.009 1.4t.02 1.467l.02 1.378q.01.64.01 1.112v.65h-.275q-2.265-2.63-4.825-5.377z"/><path data-name="Trazado 109" d="M1112.648 4676.561q-.513 0-1.073.009t-1.122.039q-.561.03-1.083.07t-.936.1a2.367 2.367 0 00.1-.63 2.693 2.693 0 00-.1-.61q1.3.039 2.54.069t2.54.03q1.3 0 2.54-.03t2.54-.069a2.754 2.754 0 00-.1.63 2.342 2.342 0 00.1.61q-.414-.06-.936-.1t-1.083-.07q-.561-.029-1.122-.039t-1.073-.009q-.059 2.028-.059 4.076v3.387q0 1.3.047 2.559t.108 2.481q-.453-.04-.965-.039t-.965.039q.06-1.221.108-2.481t.047-2.559v-3.387q.007-2.048-.053-4.076z"/><path data-name="Trazado 110" d="M1119.084 4682.33a7.754 7.754 0 01.542-2.981 6.224 6.224 0 011.514-2.214 6.528 6.528 0 012.333-1.378 9.648 9.648 0 015.966 0 6.522 6.522 0 012.333 1.378 6.239 6.239 0 011.515 2.215 8.492 8.492 0 010 5.966 6.072 6.072 0 01-3.849 3.564 10.256 10.256 0 01-5.966 0 6.07 6.07 0 01-3.849-3.564 7.732 7.732 0 01-.539-2.985zm12.818 0a8.654 8.654 0 00-.413-2.826 5.381 5.381 0 00-1.153-1.969 4.593 4.593 0 00-1.732-1.152 6.349 6.349 0 00-4.292 0 4.589 4.589 0 00-1.733 1.152 5.381 5.381 0 00-1.152 1.969 9.875 9.875 0 000 5.651 5.366 5.366 0 001.152 1.969 4.577 4.577 0 001.733 1.152 6.349 6.349 0 004.292 0 4.583 4.583 0 001.733-1.152 5.373 5.373 0 001.152-1.969 8.658 8.658 0 00.414-2.825z"/></g><g data-name="Grupo 21"><path data-name="Trazado 111" d="M887.795 4669.105a21 21 0 00-15.28-5.039 22.032 22.032 0 00-15.289 7.713 18.719 18.719 0 00-4.522 13.363 17.757 17.757 0 006.135 12.471 15.024 15.024 0 0010.931 3.6 15.73 15.73 0 0010.913-5.51 13.636 13.636 0 003.294-9.73 12.952 12.952 0 00-4.472-9.091 11.216 11.216 0 00-7.435-2.711 12.5 12.5 0 00-4.226.348 12.914 12.914 0 015.126-1.449 12.222 12.222 0 018.893 2.929 17.056 17.056 0 011.449 24.056 22.783 22.783 0 01-15.8 7.983 21.578 21.578 0 01-15.694-5.171s-15.687-12.508-4.184-33.833c.547-.953 3.637-5.676 13.333-10.131q1.035-.418 2.04-.892l.06-.026a37.351 37.351 0 0020.884-26.754 30.355 30.355 0 00-4.732-22.763 31.883 31.883 0 00-20.726-13.57c-14.408-2.7-28.06 6.476-30.71 20.368a21 21 0 003.276 15.751 22.029 22.029 0 0014.324 9.384 18.712 18.712 0 0013.831-2.764 17.75 17.75 0 007.732-11.546 15.023 15.023 0 00-2.345-11.269 15.731 15.731 0 00-10.229-6.7 13.639 13.639 0 00-10.077 2.018 12.956 12.956 0 00-5.637 8.419 11.222 11.222 0 001.372 7.8 12.434 12.434 0 002.413 3.483 12.868 12.868 0 01-3.818-3.713 12.218 12.218 0 01-1.911-9.166 17.055 17.055 0 0120.108-13.282 22.776 22.776 0 0114.817 9.7 21.575 21.575 0 013.369 16.177s-2.567 17.023-22.2 20.089c-3.329.393-10.716.281-17.879-6.522v.005a37.55 37.55 0 00-37.657-7.924 30.354 30.354 0 00-17.347 15.478 31.882 31.882 0 00-1.39 24.735c4.869 13.827 19.637 21.062 32.994 16.413a21 21 0 0012-10.713 22.029 22.029 0 00.965-17.1 18.708 18.708 0 00-9.312-10.6 17.753 17.753 0 00-13.867-.923 15.024 15.024 0 00-8.587 7.666 15.737 15.737 0 00-.684 12.206 13.635 13.635 0 006.779 7.719 12.95 12.95 0 0010.109.672 11.213 11.213 0 006.066-5.083 12.484 12.484 0 001.811-3.833 12.9 12.9 0 01-1.307 5.162 12.22 12.22 0 01-6.983 6.238 17.058 17.058 0 01-21.558-10.772 22.786 22.786 0 01.989-17.68 21.571 21.571 0 0112.326-11.006s18.755-7.364 31.474 13.424a24.005 24.005 0 012.091 16.3c0 .013-.006.026-.008.039l-.032.157a37.531 37.531 0 0012.074 36.073 30.357 30.357 0 0022.078 7.287 31.891 31.891 0 0022.116-11.164c9.554-11.143 8.438-27.553-2.274-36.796z" fill="#4b4281"/><path data-name="Trazado 112" d="M890.405 4667.543a21 21 0 00-15.279-5.04 22.03 22.03 0 00-15.29 7.713 18.712 18.712 0 00-4.521 13.363 17.754 17.754 0 006.135 12.47 15.018 15.018 0 0010.931 3.6 15.731 15.731 0 0010.913-5.51 13.638 13.638 0 003.294-9.729 12.951 12.951 0 00-4.472-9.092 11.219 11.219 0 00-7.435-2.711 12.478 12.478 0 00-4.226.35 12.881 12.881 0 015.125-1.451 12.229 12.229 0 018.893 2.929 17.058 17.058 0 011.449 24.057 22.788 22.788 0 01-15.8 7.983 21.578 21.578 0 01-15.694-5.171s-15.686-12.508-4.185-33.833c.548-.953 3.637-5.678 13.334-10.131q1.033-.417 2.039-.891l.061-.027a37.352 37.352 0 0020.884-26.753 30.355 30.355 0 00-4.732-22.763 31.882 31.882 0 00-20.725-13.571c-14.408-2.7-28.06 6.476-30.71 20.369a21 21 0 003.275 15.752 22.034 22.034 0 0014.325 9.384 18.716 18.716 0 0013.833-2.766 17.754 17.754 0 007.732-11.549 15.025 15.025 0 00-2.344-11.269 15.735 15.735 0 00-10.229-6.7 13.635 13.635 0 00-10.074 2.012 12.95 12.95 0 00-5.637 8.418 11.217 11.217 0 001.369 7.8 12.444 12.444 0 002.413 3.484 12.885 12.885 0 01-3.817-3.713 12.225 12.225 0 01-1.911-9.166 17.058 17.058 0 0120.11-13.283 22.778 22.778 0 0114.818 9.7 21.571 21.571 0 013.368 16.176s-2.566 17.023-22.2 20.09c-3.329.392-10.716.281-17.879-6.522v.006a37.55 37.55 0 00-37.656-7.924 30.354 30.354 0 00-17.348 15.478 31.886 31.886 0 00-1.389 24.735c4.869 13.826 19.637 21.062 32.994 16.413a21.006 21.006 0 0012-10.712 22.038 22.038 0 00.964-17.1 18.72 18.72 0 00-9.312-10.6 17.757 17.757 0 00-13.867-.922 15.02 15.02 0 00-8.587 7.666 15.743 15.743 0 00-.685 12.208 13.637 13.637 0 006.779 7.717 12.95 12.95 0 0010.109.673 11.217 11.217 0 006.067-5.084 12.449 12.449 0 001.81-3.833 12.876 12.876 0 01-1.307 5.162 12.225 12.225 0 01-6.983 6.238 17.059 17.059 0 01-21.558-10.773 22.785 22.785 0 01.989-17.68 21.57 21.57 0 0112.325-11.006s18.756-7.364 31.475 13.423a24 24 0 012.09 16.3c0 .012-.005.025-.008.039l-.032.158a37.533 37.533 0 0012.074 36.074 30.351 30.351 0 0022.079 7.287 31.877 31.877 0 0022.115-11.164c9.546-11.138 8.429-27.547-2.279-36.788z" fill="#615d99"/></g><g data-name="Grupo 23"><path data-name="Trazado 113" d="M913.241 4637.083a8.862 8.862 0 012.543-2.839 15.767 15.767 0 013.256-1.747 13.04 13.04 0 013.487-.8h.862l.189-.057h.323a15.784 15.784 0 012.65.22 14.616 14.616 0 012.493.662 7.491 7.491 0 011.981.969 5.673 5.673 0 011.332 1.238l-.552.693-.389.8c-.108.3-.219.633-.338 1.022-.1.386-.213.8-.322 1.245v.112l-.059.078v.25l-.056.084v.085l-.883-.117-.135-.3-.189-.413-.253-.526-.305-.471a5.572 5.572 0 00-.959-1.047 8.943 8.943 0 00-1.363-.94 6.071 6.071 0 00-1.686-.693 8.26 8.26 0 00-2.07-.247 5.394 5.394 0 00-2.286.5 7.148 7.148 0 00-2.078 1.5 6.516 6.516 0 00-1.467 2.155 6.41 6.41 0 00-.469 2.427v.607l.059.112v.223a5.242 5.242 0 00.473 1.464 9.8 9.8 0 00.913 1.52 8.591 8.591 0 001.458 1.355 11.569 11.569 0 002.071 1.186l6.138 2.487a13.983 13.983 0 012.876 1.767 8.507 8.507 0 011.933 2.211 9.328 9.328 0 011.13 2.515 9.779 9.779 0 01.358 2.626v.771l-.052.168v.113a11.7 11.7 0 01-1.247 4.2 15.244 15.244 0 01-2.845 3.815 11.846 11.846 0 01-4.062 2.707 13.477 13.477 0 01-5 .884h-.939l-.224-.056h-.443l-.214-.054-.284-.03-.214-.026a15.93 15.93 0 01-2.073-.47c-.687-.2-1.354-.433-2.017-.69a14.864 14.864 0 01-1.743-.909 13.184 13.184 0 01-1.349-.971l-.06-.056h-.054v-.051l-.056-.057q.212-.555.385-1.047a5.092 5.092 0 00.223-.887l.082-.415.027-.413.083-.359.025-.418v-.193l.059-.194v-1.33l.881-.105a22.866 22.866 0 002.684 3.48 5.928 5.928 0 002.292 1.6 11.987 11.987 0 001.957.553 9.915 9.915 0 001.742.168 8.6 8.6 0 003.208-.552 5.666 5.666 0 002.321-1.716 8.388 8.388 0 001.937-5.086 7.313 7.313 0 00-.309-2.129 8.582 8.582 0 00-.9-2.014 5.7 5.7 0 00-1.471-1.712 7.415 7.415 0 00-2.134-1.16l-5.685-2.712a15.056 15.056 0 01-3.842-2.263 5.905 5.905 0 01-1.85-2.543 22.355 22.355 0 01-.611-2.709 18.594 18.594 0 01-.217-2.819v-.11a11.357 11.357 0 011.325-4.12" fill="#636569"/><path data-name="Trazado 114" d="M951.413 4632.03h1.278l17.019 38.74h-1.906l-.248-.054h-.855l-.242-.055h-1.332l-.417.081-.361.029h-.771l-6.08-15.251h-13.486l-5.635 15.251h-.331l-.2-.029-.194-.026h-.157l-.168-.055h-1.051l-.116.055h-.273l-.075.054h-1.8l17.4-38.74m5.194 20.891l-5.641-13.486-5.633 13.487z" fill="#636569"/><path data-name="Trazado 115" d="M971.67 4644.775a20.878 20.878 0 014.092-6.334 17.683 17.683 0 016.522-4.389 23.137 23.137 0 018.455-1.467h1.107l.555.054h.552c.4.037.8.06 1.183.085s.786.047 1.19.081a19.792 19.792 0 012.29.248c.757.13 1.5.289 2.245.471a14.894 14.894 0 012.092.689 12.625 12.625 0 011.88.967l-1.328 4.259h-.44a22.469 22.469 0 00-2.047-1.627 15.845 15.845 0 00-2.152-1.3 15.665 15.665 0 00-2.238-.91 21.715 21.715 0 00-2.239-.585l-.666-.079-.608-.085h-.326l-.279-.053h-.608a13.977 13.977 0 00-5.531 1.1 15.927 15.927 0 00-4.86 3.312 14.894 14.894 0 00-3.374 5.252 19.512 19.512 0 00-1.156 6.966v.715a26.5 26.5 0 001.295 8.068 11.887 11.887 0 003.508 5.306 16.523 16.523 0 004.87 2.954 14.913 14.913 0 005.357.97h1a24.772 24.772 0 002.984-.416 17.673 17.673 0 002.924-.858 18.357 18.357 0 002.708-1.3 17.381 17.381 0 002.323-1.634l-.444 3.372-.772.5-.71.441-.779.39-.772.331c-.408.151-.8.276-1.185.389a10.926 10.926 0 00-1.135.386l-.417.109-.354.112c-.555.107-1.091.22-1.609.331s-1.032.2-1.546.278-1.019.127-1.521.164-1 .056-1.514.056a21.766 21.766 0 01-7.521-1.272 19.575 19.575 0 01-6.468-3.978 17.006 17.006 0 01-4.448-6.382 22.352 22.352 0 01-1.464-8.317v-.111a19.121 19.121 0 011.379-7.263" fill="#636569"/><path data-name="Trazado 116" d="M1022.954 4632.03h1.272l17.022 38.74h-1.907l-.247-.054h-.861l-.245-.055h-1.325l-.418.081-.361.029h-.769l-6.083-15.251h-13.483l-5.635 15.251h-.335l-.194-.029-.195-.026h-.167l-.165-.055h-1.047l-.112.055h-.276l-.083.054h-1.8l17.408-38.74m5.2 20.891l-5.631-13.486-5.636 13.487z" fill="#636569"/><path data-name="Trazado 117" d="M1049.482 4632.471h1.715l15.257 29.178 15.633-29.178h1.772l4.364 38.3-.662-.029-.612-.081-.545-.028-.555-.085h-.774l-.336.059-.384.026-.331.028-.694.081c-.237.017-.5.029-.8.029l-2.6-28.737-14.361 27.85h-.887l-13.927-27.411-2.6 28.3-.358-.029-.417-.081-.467-.082-.531-.03h-.552l-.085.059h-.075l-.418.026-.357.083-.331.054h-.331l5.247-38.3" fill="#636569"/><path data-name="Trazado 118" d="M1091.415 4651.176v-.466l.031-.556.082-.552a18.587 18.587 0 011.823-6.381 23.639 23.639 0 014.144-5.888 16.257 16.257 0 016.409-4.227 25.472 25.472 0 018.844-1.407 32.092 32.092 0 018.7 1.325 13.843 13.843 0 015.829 3.427 22.514 22.514 0 013.622 4.647 17.972 17.972 0 012.016 5.08l.171.662.1.608.112.662.114.662a12.049 12.049 0 01.138 1.3c.016.426.045.841.08 1.245v.72a20.489 20.489 0 01-1.572 8.209 16.3 16.3 0 01-4.785 6.215 22.173 22.173 0 01-6.822 3.925 23.02 23.02 0 01-7.651 1.271h-.942c-.479 0-.953-.009-1.409-.026a13.057 13.057 0 01-1.409-.142 10.05 10.05 0 01-1.436-.22c-.479-.112-.962-.221-1.436-.331a18.016 18.016 0 01-5.307-2.1 25.4 25.4 0 01-4.86-3.757 13.982 13.982 0 01-3.459-5.612 23.972 23.972 0 01-1.132-7.707v-.583m6.767 8.1a14.58 14.58 0 008.32 9.119 16.211 16.211 0 006.247 1.16 13.945 13.945 0 005.72-1.16 13.427 13.427 0 004.67-3.479 17.051 17.051 0 003.312-5.639 27.915 27.915 0 001.549-7.513v-.885a19.8 19.8 0 00-1.078-6.634 16.49 16.49 0 00-3.228-5.47 14.451 14.451 0 00-5.06-3.65 15.913 15.913 0 00-6.327-1.216 14.433 14.433 0 00-5.552 1 10.573 10.573 0 00-4.061 2.927 24.122 24.122 0 00-2.792 4.145 23.1 23.1 0 00-1.794 4.474c-.112.48-.223.944-.331 1.384s-.2.884-.277 1.328-.142.884-.193 1.325-.119.867-.189 1.272v-.117a24.774 24.774 0 001.068 7.626z" fill="#636569"/><g data-name="Grupo 22"><path data-name="Trazado 119" d="M1138.446 4629.333a5.113 5.113 0 11-.03 0zm-.059.98a3.891 3.891 0 00.059 7.778 3.729 3.729 0 003.711-3.859 3.786 3.786 0 00-3.741-3.919zm-.742 6.412h-1.129v-4.873a13.067 13.067 0 011.871-.149 2.6 2.6 0 011.662.386 1.227 1.227 0 01.5 1.041 1.258 1.258 0 01-1.009 1.158v.059c.473.149.713.535.862 1.188a4.328 4.328 0 00.355 1.187h-1.187a3.834 3.834 0 01-.387-1.187c-.089-.5-.385-.742-1.009-.742h-.534zm.03-2.731h.533c.624 0 1.128-.208 1.128-.713 0-.445-.327-.741-1.041-.741a2.708 2.708 0 00-.622.059z" fill="#636569"/></g></g></g></g></svg>