<svg xmlns="http://www.w3.org/2000/svg" width="269.903" height="85.006"><path data-name="Trazado 3761" d="M75.976 52.165a14.367 14.367 0 00-10.447-3.446 15.068 15.068 0 00-10.462 5.272 12.8 12.8 0 00-3.073 9.131 12.118 12.118 0 004.195 8.525 10.278 10.278 0 007.476 2.467 10.759 10.759 0 007.455-3.772 9.3 9.3 0 002.254-6.658 8.854 8.854 0 00-3.06-6.218 7.66 7.66 0 00-5.072-1.855 8.589 8.589 0 00-2.891.238 8.856 8.856 0 013.485-.971 8.348 8.348 0 016.081 2 11.666 11.666 0 01.993 16.452 15.59 15.59 0 01-10.808 5.456 14.733 14.733 0 01-10.741-3.537s-10.728-8.56-2.854-23.144c.375-.653 2.489-3.885 9.118-6.927q.706-.284 1.4-.608l.041-.02a25.541 25.541 0 0014.282-18.3 20.758 20.758 0 00-3.238-15.563 21.791 21.791 0 00-14.172-9.281 17.841 17.841 0 00-21 13.929 14.353 14.353 0 002.241 10.779 15.056 15.056 0 009.794 6.417 12.8 12.8 0 009.46-1.9 12.151 12.151 0 005.288-7.9 10.292 10.292 0 00-1.607-7.7 10.757 10.757 0 00-6.994-4.578 9.334 9.334 0 00-6.89 1.376 8.876 8.876 0 00-3.855 5.757 7.663 7.663 0 00.951 5.329 8.4 8.4 0 001.652 2.384 8.781 8.781 0 01-2.613-2.536 8.35 8.35 0 01-1.319-6.246 11.654 11.654 0 0113.752-9.084 15.593 15.593 0 0110.146 6.626 14.754 14.754 0 012.3 11.062S65.49 36.765 52.067 38.86a15.061 15.061 0 01-12.225-4.46 25.692 25.692 0 00-25.762-5.423A20.739 20.739 0 002.219 39.559a21.785 21.785 0 00-.951 16.9 17.836 17.836 0 0022.555 11.224 14.376 14.376 0 008.212-7.33 15.062 15.062 0 00.664-11.691 12.8 12.8 0 00-6.367-7.244 12.126 12.126 0 00-9.483-.634 10.268 10.268 0 00-5.872 5.24 10.78 10.78 0 00-.469 8.347 9.315 9.315 0 004.635 5.288 8.85 8.85 0 006.914.46 7.664 7.664 0 004.148-3.486 8.5 8.5 0 001.237-2.622 8.782 8.782 0 01-.894 3.537 8.345 8.345 0 01-4.774 4.264 11.662 11.662 0 01-14.741-7.369 15.588 15.588 0 01.675-12.087 14.738 14.738 0 018.43-7.51s12.825-5.034 21.521 9.174a16.361 16.361 0 011.43 11.144.083.083 0 000 .028.193.193 0 01-.023.108 25.678 25.678 0 008.242 24.665 20.738 20.738 0 0015.1 4.981 21.807 21.807 0 0015.123-7.631 17.831 17.831 0 00-1.552-25.153z" fill="#4d4084"/><path data-name="Trazado 3762" d="M77.757 51.097a14.344 14.344 0 00-10.446-3.442 15.062 15.062 0 00-10.462 5.271 12.8 12.8 0 00-3.091 9.136 12.15 12.15 0 004.2 8.526 10.282 10.282 0 007.475 2.464 10.783 10.783 0 007.463-3.767 9.324 9.324 0 002.251-6.657 8.85 8.85 0 00-3.057-6.218 7.676 7.676 0 00-5.072-1.855 8.563 8.563 0 00-2.888.24 8.787 8.787 0 013.487-.993 8.355 8.355 0 016.082 2 11.655 11.655 0 01.989 16.451 15.571 15.571 0 01-10.792 5.451 14.769 14.769 0 01-10.735-3.534s-10.725-8.561-2.853-23.144c.375-.653 2.482-3.885 9.115-6.927q.71-.288 1.4-.612h.041a25.542 25.542 0 0014.267-18.293 20.763 20.763 0 00-3.238-15.567A21.818 21.818 0 0057.727.346a17.846 17.846 0 00-21 13.95 14.366 14.366 0 002.24 10.78 15.075 15.075 0 009.8 6.416 12.782 12.782 0 009.457-1.9 12.132 12.132 0 005.288-7.9 10.269 10.269 0 00-1.6-7.713 10.758 10.758 0 00-6.994-4.578 9.321 9.321 0 00-6.889 1.376 8.849 8.849 0 00-3.852 5.738 7.67 7.67 0 00.951 5.332 8.525 8.525 0 001.652 2.381 8.843 8.843 0 01-2.609-2.537 8.366 8.366 0 01-1.312-6.268 11.655 11.655 0 0113.75-9.083 15.569 15.569 0 0110.144 6.63 14.756 14.756 0 012.3 11.061s-1.752 11.638-15.176 13.737a15.085 15.085 0 01-12.224-4.46 25.783 25.783 0 00-25.793-5.406A20.764 20.764 0 004.014 38.484a21.8 21.8 0 00-.951 16.914 17.835 17.835 0 0022.555 11.224 14.356 14.356 0 008.208-7.308 15.061 15.061 0 00.665-11.694 12.792 12.792 0 00-6.367-7.248 12.152 12.152 0 00-9.483-.635 10.262 10.262 0 00-5.872 5.244 10.777 10.777 0 00-.469 8.347 9.341 9.341 0 004.64 5.276 8.849 8.849 0 006.907.46 7.66 7.66 0 004.15-3.487 8.634 8.634 0 001.237-2.621 8.816 8.816 0 01-.894 3.529 8.374 8.374 0 01-4.775 4.267 11.666 11.666 0 01-14.741-7.367 15.565 15.565 0 01.686-12.088 14.752 14.752 0 018.418-7.527s12.843-5.035 21.525 9.178a16.352 16.352 0 011.43 11.147.092.092 0 010 .026 1.1 1.1 0 01-.023.108 25.693 25.693 0 008.243 24.668 20.769 20.769 0 0015.1 4.984 21.8 21.8 0 0015.123-7.638 17.832 17.832 0 00-1.554-25.152z" fill="#625d9c"/><path data-name="Trazado 3763" d="M84.501 19.93a7.151 7.151 0 012.051-2.286 12.836 12.836 0 012.619-1.4 10.448 10.448 0 012.806-.634h.691l.156-.048h.26a12.83 12.83 0 012.134.178 11.753 11.753 0 012.01.539 6.038 6.038 0 011.586.781 4.529 4.529 0 011.072 1l-.447.558-.317.634c-.088.238-.178.51-.273.821s-.171.635-.26 1v.089l-.047.064v.2l-.044.067v.07l-.71-.095-.108-.241-.156-.317-.193-.432-.247-.378a4.543 4.543 0 00-.771-.843 7.362 7.362 0 00-1.1-.756 4.855 4.855 0 00-1.353-.558 6.788 6.788 0 00-1.667-.2 4.345 4.345 0 00-1.835.4 5.824 5.824 0 00-1.67 1.2 5.245 5.245 0 00-1.188 1.738 5.151 5.151 0 00-.378 1.953v.488l.048.088v.18a4.235 4.235 0 00.378 1.18 8.053 8.053 0 00.736 1.223 6.979 6.979 0 001.173 1.091 9.575 9.575 0 001.667.951l4.936 2a11.16 11.16 0 012.318 1.408 6.928 6.928 0 011.558 1.783 7.486 7.486 0 01.91 2.025 7.859 7.859 0 01.288 2.112v.635l-.044.136v.089a9.409 9.409 0 01-1 3.38 12.322 12.322 0 01-2.289 3.073 9.534 9.534 0 01-3.273 2.177 10.8 10.8 0 01-4.02.714h-.755l-.18-.048h-.352l-.172-.044-.231-.023-.172-.023a12.9 12.9 0 01-1.671-.378q-.82-.245-1.619-.555a12.111 12.111 0 01-1.4-.732 10.955 10.955 0 01-1.088-.784l-.048-.044h-.041v-.041l-.047-.044c.117-.3.216-.581.317-.843a4.229 4.229 0 00.18-.713l.064-.335.023-.333.067-.288.01-.349v-.154l.048-.156v-1.072l.71-.085a18.2 18.2 0 002.158 2.806 4.756 4.756 0 001.845 1.288 9.638 9.638 0 001.585.447 7.889 7.889 0 001.4.133 6.9 6.9 0 002.58-.444 4.533 4.533 0 001.87-1.382 6.936 6.936 0 001.135-1.953 7.045 7.045 0 00.422-2.14 5.9 5.9 0 00-.247-1.711 6.866 6.866 0 00-.73-1.619 4.556 4.556 0 00-1.187-1.376 5.917 5.917 0 00-1.718-.933l-4.579-2.2a12.14 12.14 0 01-3.084-1.823 4.733 4.733 0 01-1.49-2.044 18.625 18.625 0 01-.491-2.181 14.826 14.826 0 01-.175-2.266v-.089a9.179 9.179 0 011.065-3.316" fill="#636569"/><path data-name="Trazado 3764" d="M115.227 15.861h1.027l13.7 31.189h-1.535l-.2-.044h-.687l-.193-.044h-1.072l-.336.067-.291.023h-.635l-4.892-12.276h-10.846l-4.532 12.276h-.268l-.158-.023-.156-.022h-.127l-.136-.044h-.849l-.092.044h-.226l-.064.044h-1.451l14.007-31.189m4.185 16.8l-4.532-10.843-4.54 10.862z" fill="#636569"/><path data-name="Trazado 3765" d="M131.532 26.113a16.877 16.877 0 013.294-5.1 14.248 14.248 0 015.25-3.533 18.618 18.618 0 016.806-1.18h.891l.447.044h.444c.317.028.634.048.951.067s.635.038.951.067a15.6 15.6 0 011.845.2c.605.108 1.211.231 1.8.377a11.8 11.8 0 011.687.554 10.342 10.342 0 011.511.781l-1.069 3.424h-.355a18.833 18.833 0 00-1.649-1.309 12.614 12.614 0 00-3.525-1.779 17.855 17.855 0 00-1.81-.472l-.54-.064-.488-.067h-.232l-.225-.044h-.488a11.2 11.2 0 00-4.439.89 12.759 12.759 0 00-3.912 2.667 12.048 12.048 0 00-2.718 4.226 15.765 15.765 0 00-.929 5.612v.571a21.268 21.268 0 001.043 6.492 9.541 9.541 0 002.79 4.287 13.207 13.207 0 003.922 2.374 11.951 11.951 0 004.317.783h.8a20.391 20.391 0 002.4-.336 14.223 14.223 0 002.353-.69 14.671 14.671 0 002.181-1.043 13.91 13.91 0 001.867-1.315l-.355 2.714-.635.4-.574.355-.634.317-.635.263c-.317.124-.635.226-.951.317a9.319 9.319 0 00-.913.318l-.336.088-.285.089q-.672.133-1.295.267c-.416.089-.831.162-1.247.226s-.821.1-1.224.13-.805.047-1.22.047a17.547 17.547 0 01-6.052-1.024 15.819 15.819 0 01-5.206-3.2 13.7 13.7 0 01-3.58-5.139 18.015 18.015 0 01-1.146-6.721v-.092a15.425 15.425 0 011.11-5.846" fill="#636569"/><path data-name="Trazado 3766" d="M172.812 15.861h1.024l13.706 31.189h-1.535l-.2-.044h-.694l-.2-.044h-1.059l-.339.067-.288.023h-.605l-4.9-12.276h-10.868l-4.532 12.276h-.27l-.156-.023-.159-.022h-.133l-.133-.044h-.843l-.089.044h-.222l-.067.044h-1.446l14.013-31.189m4.182 16.8l-4.533-10.843-4.543 10.861z" fill="#636569"/><path data-name="Trazado 3767" d="M194.158 16.217h1.383l12.279 23.486 12.582-23.486h1.427l3.513 30.828-.533-.023-.491-.067-.44-.023-.447-.067h-.635l-.273.044-.317.023-.267.023-.558.067c-.193 0-.406.023-.635.023l-2.089-23.144-11.56 22.417h-.71l-11.2-22.049-2.093 22.771-.288-.022-.335-.067-.374-.061-.431-.023h-.444l-.07.044h-.06l-.336.023-.285.067-.27.044h-.263l4.22-30.828" fill="#636569"/><path data-name="Trazado 3768" d="M227.915 31.272v-.382l.035-.432.067-.443a14.9 14.9 0 011.468-5.136 18.978 18.978 0 013.334-4.756 13.062 13.062 0 015.149-3.4 20.541 20.541 0 017.123-1.133 25.805 25.805 0 017 1.066 11.1 11.1 0 014.692 2.758 18.008 18.008 0 012.914 3.74 14.564 14.564 0 011.619 4.087l.136.54.085.488.088.533.092.533a9.5 9.5 0 01.108 1.045c0 .342.035.676.064 1v.577a16.529 16.529 0 01-1.268 6.61 13.11 13.11 0 01-3.852 5 17.81 17.81 0 01-5.491 3.171 18.539 18.539 0 01-6.157 1.024h-.755c-.386 0-.768 0-1.136-.022a11.286 11.286 0 01-1.135-.115 7.7 7.7 0 01-1.153-.178l-1.157-.267a14.467 14.467 0 01-4.27-1.69 20.354 20.354 0 01-3.912-3.022 11.188 11.188 0 01-2.784-4.518 19.26 19.26 0 01-.909-6.224v-.457m5.447 6.515a11.731 11.731 0 006.7 7.339 13.037 13.037 0 005.024.95 11.234 11.234 0 004.607-.95 10.786 10.786 0 003.756-2.8 13.725 13.725 0 002.667-4.54 22.43 22.43 0 001.247-6.059v-.7a15.984 15.984 0 00-.878-5.323 13.306 13.306 0 00-2.6-4.4 11.614 11.614 0 00-4.055-2.952 12.823 12.823 0 00-5.095-.98 11.558 11.558 0 00-4.467.8 8.482 8.482 0 00-3.269 2.352 19.219 19.219 0 00-2.248 3.335 18.616 18.616 0 00-1.447 3.6c-.088.386-.178.761-.266 1.113s-.166.713-.223 1.068-.114.713-.155 1.068-.1.7-.155 1.024v-.094a19.987 19.987 0 00.863 6.137z" fill="#636569"/><path data-name="Trazado 3769" d="M265.763 13.692a4.152 4.152 0 11-.022 0zm-.047.789a3.13 3.13 0 10.047 6.26 3 3 0 002.986-3.107 3.059 3.059 0 00-3.009-3.151zm-.6 5.159h-.91v-3.914a10.192 10.192 0 011.51-.121 2.046 2.046 0 011.339.317.984.984 0 01.406.834 1.011 1.011 0 01-.812.932v.048c.381.121.574.431.694.951a3.386 3.386 0 00.285.951h-.951a3.047 3.047 0 01-.317-.951c-.07-.406-.317-.6-.811-.6h-.432zm.023-2.2h.431c.5 0 .907-.168.907-.574 0-.358-.263-.6-.837-.6a2.067 2.067 0 00-.5.047z" fill="#636569"/></svg>