<svg xmlns="http://www.w3.org/2000/svg" width="38.901" height="38.901"><path data-name="Trazado 31" d="M19.587 0A19.451 19.451 0 1038.9 19.587 19.436 19.436 0 0019.587 0zm9.547 15.143v.6A13.553 13.553 0 0115.417 29.3a13.288 13.288 0 01-7.297-2.2 8.1 8.1 0 001.152.055 9.829 9.829 0 005.98-2.03 4.779 4.779 0 01-4.444-3.347 4.8 4.8 0 00.878.11 4.677 4.677 0 001.262-.165 4.723 4.723 0 01-3.786-4.719v-.055a4.2 4.2 0 002.14.6 4.886 4.886 0 01-2.085-4.005 5.12 5.12 0 01.658-2.414 13.516 13.516 0 009.825 5.055 3.554 3.554 0 01-.11-1.1 4.814 4.814 0 018.34-3.237A9.874 9.874 0 0031 10.7a5.068 5.068 0 01-2.14 2.634 10.591 10.591 0 002.743-.713 9.84 9.84 0 01-2.469 2.524zm0 0" fill="#fff"/></svg>