<svg xmlns="http://www.w3.org/2000/svg" width="398" height="224"><defs><clipPath id="a"><path transform="translate(1244 4854)" fill="#fff" d="M0 0h398v224H0z"/></clipPath></defs><g transform="translate(-1244 -4854)" clip-path="url(#a)"><g data-name="vf"><path data-name="Rectángulo 1" fill="#003840" d="M1362 4885h162v162h-162z"/><g data-name="Grupo 13"><path data-name="Trazado 65" d="M1497.861 5002.485l-50.51 28.635a8.853 8.853 0 01-8.707.016l-50.476-28.372a8.854 8.854 0 01-4.515-7.718v-58.237a8.853 8.853 0 014.532-7.726l50.512-28.233a8.852 8.852 0 018.61-.016l50.476 27.97a8.853 8.853 0 014.562 7.744v58.237a8.851 8.851 0 01-4.485 7.7z" fill="#fff"/><path data-name="Trazado 66" d="M1489.841 4992.47l-46.606 26.42-46.606-26.2v-53.876l46.606-26.049 46.606 25.826z" fill="#003840"/><path data-name="Trazado 67" d="M1426.495 4983.899l.668-4.054a155.275 155.275 0 014.751-20.251l2.493-8.13h13.182l-15.563 44.9c-.185.126-11.762.016-11.762.016l-15.753-44.706 13.245-.214c.194 0 2.235 6.559 3.834 11.8q1.9 6.227 3.229 12.6z" fill="#fff"/><path data-name="Trazado 68" d="M1470.697 4946.36c-4.928-.2-7.2.374-7.631 3.627v3.567l7.631.076v11.141l-7.525.039v31.074l-12.739-.07v-46.4a12.579 12.579 0 013.133-8.6 19.219 19.219 0 0117.131-5.53z" fill="#fff"/></g></g></g></svg>