<svg xmlns="http://www.w3.org/2000/svg" width="38.9" height="38.9"><path data-name="Trazado 2230" d="M19.45 0A19.45 19.45 0 1038.9 19.45 19.45 19.45 0 0019.45 0zm.412 30.774a11.635 11.635 0 01-5.562-1.416l-6.177 1.618 1.652-6.031a11.642 11.642 0 1110.087 5.829zm0 0" fill="#fff"/><path data-name="Trazado 2231" d="M19.862 9.555a9.69 9.69 0 00-9.781 9.57 9.4 9.4 0 001.5 5.093l.232.362-.988 3.532 3.7-.95.357.207a9.918 9.918 0 004.976 1.334 9.689 9.689 0 009.776-9.571 9.413 9.413 0 00-2.861-6.771 9.816 9.816 0 00-6.911-2.807zm5.75 13.685a3.028 3.028 0 01-1.984 1.368 4.115 4.115 0 01-1.851-.114 17.2 17.2 0 01-1.676-.606 13 13 0 01-5.02-4.344 5.537 5.537 0 01-1.2-2.977 3.2 3.2 0 011.029-2.4 1.091 1.091 0 01.784-.36c.2 0 .392 0 .563.01s.423-.067.661.494.833 1.992.906 2.136a.521.521 0 01.025.5 8.207 8.207 0 01-.735.984c-.13.158-.3.3-.129.587a8.7 8.7 0 001.635 1.993 8.072 8.072 0 002.364 1.428c.294.144.465.12.637-.072s.735-.84.93-1.128.392-.24.661-.144 1.714.792 2.008.936.49.216.563.336a2.354 2.354 0 01-.171 1.368zm0 0" fill="#fff"/></svg>